<svg width="160" height="50" viewBox="0 0 160 50" fill="none" xmlns="http://www.w3.org/2000/svg">
<g id="text" filter="url(#filter0_d)">
<path id="Vector" d="M29.4462 40.1236C29.4462 40.3736 29.3733 40.5819 29.2275 40.7486C29.0816 40.9361 28.9045 41.0819 28.6962 41.1861C28.4879 41.3111 28.2691 41.4152 28.04 41.4986C27.8108 41.6027 27.6129 41.7069 27.4462 41.8111C26.967 41.7069 26.467 41.6131 25.9462 41.5298C25.4254 41.4673 24.9566 41.3319 24.54 41.1236C23.6858 40.1861 23.0816 39.1027 22.7275 37.8736C22.3941 36.6652 22.1754 35.4569 22.0712 34.2486C22.0295 33.8944 22.0087 33.5506 22.0087 33.2173C22.0087 32.8631 21.9879 32.509 21.9462 32.1548C21.9045 31.8423 21.717 31.6548 21.3837 31.5923C21.6337 31.5506 21.8108 31.4256 21.915 31.2173C22.0191 30.9881 22.0816 30.7381 22.1025 30.4673C22.1233 30.1756 22.1233 29.8944 22.1025 29.6236C22.1025 29.3319 22.1233 29.0923 22.165 28.9048C21.9983 28.9673 21.8525 29.1131 21.7275 29.3423C21.6025 29.5506 21.4879 29.7902 21.3837 30.0611C21.2795 30.3319 21.1754 30.6027 21.0712 30.8736C20.9879 31.1236 20.9045 31.3215 20.8212 31.4673C19.9462 32.9673 18.9254 34.3319 17.7587 35.5611C16.6129 36.7902 15.4254 38.009 14.1962 39.2173C13.842 39.3423 13.5087 39.4986 13.1962 39.6861C12.8837 39.8944 12.592 40.1131 12.3212 40.3423C11.5295 40.5715 10.7795 40.6861 10.0712 40.6861C9.42537 40.6861 8.78995 40.5923 8.16495 40.4048C7.53995 40.2381 6.97745 39.9465 6.47745 39.5298L5.3212 36.9048C5.2587 36.7381 5.18579 36.5715 5.10245 36.4048C5.01912 36.2173 4.95662 36.0402 4.91495 35.8736C4.87329 35.6861 4.85245 35.4881 4.85245 35.2798C4.87329 35.0506 4.8837 34.8527 4.8837 34.6861C4.8837 33.9569 4.90454 33.2277 4.9462 32.4986C5.0087 31.7486 5.09204 31.009 5.1962 30.2798C5.23787 29.9881 5.30037 29.6861 5.3837 29.3736C5.46704 29.0611 5.52954 28.759 5.5712 28.4673V28.1236C5.5712 28.0194 5.56079 27.8944 5.53995 27.7486C5.51912 27.5819 5.45662 27.4777 5.35245 27.4361C5.85245 26.2277 6.10245 24.9673 6.10245 23.6548C6.10245 23.4465 6.09204 23.2486 6.0712 23.0611C6.0712 22.8527 6.06079 22.6444 6.03995 22.4361C6.18579 22.2902 6.27954 22.1236 6.3212 21.9361C6.36287 21.7277 6.3837 21.5194 6.3837 21.3111C6.3837 21.0819 6.3837 20.8631 6.3837 20.6548C6.40454 20.4465 6.46704 20.2486 6.5712 20.0611C6.55037 19.8319 6.52954 19.6131 6.5087 19.4048C6.5087 19.1756 6.5087 18.9465 6.5087 18.7173C6.5087 17.3215 6.61287 15.9465 6.8212 14.5923C7.05037 13.2173 7.16495 11.8319 7.16495 10.4361V9.12355C7.16495 8.83188 7.16495 8.5298 7.16495 8.2173C7.18579 7.9048 7.22745 7.60272 7.28995 7.31105C7.37329 7.01938 7.48787 6.74855 7.6337 6.49855C7.77954 6.22772 7.98787 5.99855 8.2587 5.81105C8.30037 5.81105 8.33162 5.81105 8.35245 5.81105C8.39412 5.79022 8.43579 5.7798 8.47745 5.7798C8.66495 5.7798 8.81079 5.83188 8.91495 5.93605C9.01912 6.01938 9.17537 6.05063 9.3837 6.0298C9.7587 6.57147 10.0504 7.14438 10.2587 7.74855C10.4879 8.35272 10.6025 8.98813 10.6025 9.6548C10.6025 10.1548 10.5295 10.6444 10.3837 11.1236C10.2379 11.6027 10.165 12.1027 10.165 12.6236C10.165 12.8319 10.1754 13.0402 10.1962 13.2486C10.217 13.4569 10.2275 13.6652 10.2275 13.8736C10.2275 14.0819 10.1962 14.2902 10.1337 14.4986C10.092 14.6861 9.99829 14.8527 9.85245 14.9986C9.89412 15.4152 9.92537 15.8423 9.9462 16.2798C9.96704 16.6965 9.97745 17.1131 9.97745 17.5298C9.97745 18.7173 9.90454 19.9048 9.7587 21.0923C9.61287 22.2798 9.4462 23.4673 9.2587 24.6548C9.0712 25.8423 8.90454 27.0298 8.7587 28.2173C8.61287 29.4048 8.53995 30.6027 8.53995 31.8111V32.7173C8.53995 33.009 8.56079 33.3111 8.60245 33.6236C8.47745 33.9152 8.41495 34.2277 8.41495 34.5611C8.41495 35.0194 8.51912 35.4673 8.72745 35.9048C8.93579 36.3423 9.18579 36.7381 9.47745 37.0923C9.58162 37.1131 9.67537 37.1236 9.7587 37.1236C9.86287 37.1444 9.96704 37.1548 10.0712 37.1548C10.6129 37.1548 11.092 37.0402 11.5087 36.8111C11.9462 36.5819 12.3525 36.3006 12.7275 35.9673C13.1233 35.634 13.5087 35.2902 13.8837 34.9361C14.2587 34.5819 14.665 34.2902 15.1025 34.0611C15.7691 33.2069 16.3941 32.3527 16.9775 31.4986C17.5608 30.6236 18.1233 29.7173 18.665 28.7798C18.7066 28.2798 18.8316 27.7798 19.04 27.2798C19.2691 26.759 19.4983 26.2486 19.7275 25.7486C19.9775 25.2486 20.1962 24.759 20.3837 24.2798C20.592 23.8006 20.6962 23.3423 20.6962 22.9048C20.6962 22.6756 20.6233 22.5194 20.4775 22.4361C20.6858 21.8944 20.842 21.3319 20.9462 20.7486C21.0504 20.1652 21.1337 19.5819 21.1962 18.9986C21.2795 18.4152 21.3629 17.8423 21.4462 17.2798C21.5295 16.6965 21.6545 16.1236 21.8212 15.5611C21.8212 15.4361 21.8108 15.3111 21.79 15.1861C21.79 15.0611 21.79 14.9361 21.79 14.8111C21.79 13.8527 21.8837 12.9152 22.0712 11.9986C22.2587 11.0611 22.3525 10.1131 22.3525 9.1548C22.3525 8.92563 22.3316 8.7173 22.29 8.5298C22.2691 8.32147 22.2587 8.12355 22.2587 7.93605C22.2587 7.76938 22.3108 7.66522 22.415 7.62355C22.54 7.58188 22.6025 7.4673 22.6025 7.2798C22.6025 7.11313 22.5816 6.93605 22.54 6.74855C22.5191 6.56105 22.5087 6.36313 22.5087 6.1548C22.5087 5.50897 22.5712 4.87355 22.6962 4.24855C22.8212 3.62355 22.8837 2.98813 22.8837 2.3423V1.9673C22.8837 1.82147 22.8629 1.68605 22.8212 1.56105C22.967 1.33188 23.165 1.18605 23.415 1.12355C23.665 1.04022 23.9045 0.99855 24.1337 0.99855C24.5087 0.99855 24.8212 1.04022 25.0712 1.12355C25.467 2.18605 25.8004 3.2798 26.0712 4.4048C26.342 5.50897 26.5608 6.63397 26.7275 7.7798C26.7691 8.05063 26.8212 8.3423 26.8837 8.6548C26.967 8.94647 27.0087 9.23813 27.0087 9.5298C27.0087 9.5923 26.9879 9.66522 26.9462 9.74855C26.9254 9.83188 26.9045 9.91522 26.8837 9.99855C26.8629 10.1652 26.842 10.3319 26.8212 10.4986C26.8212 10.6652 26.8212 10.8319 26.8212 10.9986C26.8212 11.4986 26.8525 11.9986 26.915 12.4986C26.9775 12.9986 27.0087 13.509 27.0087 14.0298C27.0087 14.6131 26.9254 15.1756 26.7587 15.7173C26.6129 16.2381 26.4983 16.7902 26.415 17.3736C26.3316 17.9777 26.3004 18.5715 26.3212 19.1548C26.342 19.7381 26.3004 20.3319 26.1962 20.9361C26.1545 21.1861 26.092 21.4361 26.0087 21.6861C25.9254 21.9152 25.8837 22.1652 25.8837 22.4361C25.8837 22.6236 25.8941 22.8111 25.915 22.9986C25.9566 23.1861 25.9775 23.384 25.9775 23.5923C25.9775 23.9048 25.9045 24.1444 25.7587 24.3111C25.8004 24.4777 25.8316 24.634 25.8525 24.7798C25.8733 24.9048 25.915 25.0506 25.9775 25.2173C25.8733 25.3423 25.8004 25.4777 25.7587 25.6236C25.717 25.7694 25.6962 25.9256 25.6962 26.0923C25.6962 26.3006 25.7066 26.4986 25.7275 26.6861C25.7483 26.8527 25.7587 27.0298 25.7587 27.2173C25.7587 27.6548 25.6858 28.0715 25.54 28.4673C25.415 28.8631 25.3316 29.2694 25.29 29.6861C25.2691 29.9777 25.2587 30.2694 25.2587 30.5611C25.2795 30.8319 25.29 31.1131 25.29 31.4048C25.29 31.7173 25.2691 32.0194 25.2275 32.3111C25.2066 32.6027 25.1233 32.8944 24.9775 33.1861C25.0191 33.3111 25.0712 33.4361 25.1337 33.5611C25.1962 33.6861 25.29 33.7798 25.415 33.8423C25.415 34.4881 25.4983 35.1444 25.665 35.8111C25.8525 36.4569 26.1025 37.0715 26.415 37.6548C26.4775 37.7798 26.5712 37.8736 26.6962 37.9361C26.8212 37.9986 26.9358 38.0611 27.04 38.1236C27.1441 38.2069 27.2275 38.3006 27.29 38.4048C27.3525 38.509 27.3629 38.6652 27.3212 38.8736C27.3629 38.8944 27.4254 38.9048 27.5087 38.9048C27.6754 38.9048 27.8108 38.8631 27.915 38.7798C28.04 38.6965 28.1858 38.6548 28.3525 38.6548H28.5712C28.7587 38.8423 28.9462 39.0611 29.1337 39.3111C29.342 39.5611 29.4462 39.8319 29.4462 40.1236ZM51.6962 15.8736C51.6545 16.1236 51.592 16.3423 51.5087 16.5298C51.4462 16.6965 51.4358 16.9256 51.4775 17.2173C51.2691 17.2381 51.1025 17.3111 50.9775 17.4361C50.8733 17.5402 50.7795 17.6652 50.6962 17.8111C50.6337 17.9569 50.5608 18.1131 50.4775 18.2798C50.415 18.4256 50.3316 18.5611 50.2275 18.6861C50.3941 19.4361 50.4879 20.1965 50.5087 20.9673C50.5295 21.7381 50.5816 22.4986 50.665 23.2486C50.7691 24.2069 50.9254 25.1548 51.1337 26.0923C51.3629 27.009 51.4775 27.9465 51.4775 28.9048C51.4775 29.1965 51.467 29.4673 51.4462 29.7173C51.4462 29.9673 51.4462 30.2277 51.4462 30.4986C51.4462 30.6652 51.4462 30.8423 51.4462 31.0298C51.467 31.1965 51.4775 31.3631 51.4775 31.5298C51.4775 32.134 51.3941 32.7381 51.2275 33.3423C51.0816 33.9465 50.967 34.5506 50.8837 35.1548C50.6337 35.384 50.415 35.634 50.2275 35.9048C50.0608 36.1756 49.8837 36.4256 49.6962 36.6548C49.5087 36.884 49.29 37.0819 49.04 37.2486C48.79 37.4361 48.4775 37.5611 48.1025 37.6236C48.04 37.8319 47.915 37.9881 47.7275 38.0923C47.5608 38.1965 47.415 38.3423 47.29 38.5298H47.2275C46.7066 38.5298 46.2587 38.4569 45.8837 38.3111C45.5087 38.1652 45.1545 37.9986 44.8212 37.8111C44.5087 37.6236 44.1858 37.4256 43.8525 37.2173C43.5191 37.009 43.1337 36.8423 42.6962 36.7173C42.1129 36.2381 41.5816 35.7173 41.1025 35.1548C40.6233 34.5715 40.0816 34.0506 39.4775 33.5923C39.3316 33.1756 39.1337 32.8319 38.8837 32.5611C38.6545 32.2902 38.4254 31.9777 38.1962 31.6236C38.092 31.4777 38.0087 31.3423 37.9462 31.2173C37.9045 31.0923 37.842 30.9465 37.7587 30.7798C37.6962 30.6131 37.592 30.4986 37.4462 30.4361C37.3212 30.3736 37.2066 30.3006 37.1025 30.2173C36.9358 29.5715 36.6962 28.9777 36.3837 28.4361C36.0712 27.8944 35.7066 27.3736 35.29 26.8736C35.165 27.1027 35.0608 27.3527 34.9775 27.6236C34.915 27.8736 34.8525 28.134 34.79 28.4048C34.7275 28.6548 34.6441 28.9152 34.54 29.1861C34.4566 29.4361 34.342 29.6652 34.1962 29.8736V29.9673C34.1962 30.0715 34.2379 30.134 34.3212 30.1548C34.4045 30.1756 34.4462 30.2381 34.4462 30.3423C34.4462 30.3631 34.4358 30.384 34.415 30.4048C34.415 30.4256 34.415 30.4465 34.415 30.4673C34.3108 30.5506 34.2275 30.6548 34.165 30.7798C34.1233 30.9048 34.0191 30.9777 33.8525 30.9986C33.8733 31.1027 33.8837 31.2069 33.8837 31.3111V31.5923C33.8837 32.1965 33.8108 32.8006 33.665 33.4048C33.54 34.009 33.4775 34.6236 33.4775 35.2486V35.6548C33.4775 35.8006 33.4879 35.9361 33.5087 36.0611C33.5504 36.1861 33.6129 36.3111 33.6962 36.4361C33.7795 36.5611 33.8212 36.6756 33.8212 36.7798C33.8212 36.9256 33.7587 37.0611 33.6337 37.1861C33.7795 37.2902 33.9462 37.4048 34.1337 37.5298C34.3212 37.6548 34.4879 37.7902 34.6337 37.9361C34.8004 38.1027 34.9358 38.2694 35.04 38.4361C35.1441 38.6236 35.1962 38.8215 35.1962 39.0298C35.1962 39.384 35.0816 39.634 34.8525 39.7798C34.6233 39.9256 34.342 40.0402 34.0087 40.1236C33.6962 40.2069 33.3629 40.2798 33.0087 40.3423C32.6754 40.4256 32.3941 40.5611 32.165 40.7486H32.0712C31.8212 40.7486 31.6337 40.6756 31.5087 40.5298C31.3837 40.384 31.1962 40.3111 30.9462 40.3111C30.5504 39.6652 30.2795 38.9361 30.1337 38.1236C29.9879 37.3319 29.915 36.5715 29.915 35.8423C29.915 34.9465 29.9983 34.0506 30.165 33.1548C30.3108 32.259 30.4983 31.3736 30.7275 30.4986C30.9358 29.6236 31.165 28.759 31.415 27.9048C31.6858 27.0298 31.9358 26.1548 32.165 25.2798L32.1962 25.1861C32.1962 25.0819 32.165 25.009 32.1025 24.9673C32.0608 24.9256 32.04 24.8631 32.04 24.7798C32.04 24.7381 32.0504 24.7173 32.0712 24.7173C32.1337 24.509 32.1962 24.3111 32.2587 24.1236C32.342 23.9361 32.4045 23.7277 32.4462 23.4986C32.5712 22.9152 32.6545 22.3215 32.6962 21.7173C32.7587 21.0923 32.79 20.4777 32.79 19.8736C32.8108 19.2694 32.8316 18.6652 32.8525 18.0611C32.8941 17.4361 32.967 16.8215 33.0712 16.2173C33.2379 16.0506 33.3941 15.8736 33.54 15.6861C33.6858 15.4986 33.8733 15.3319 34.1025 15.1861C34.5191 15.2069 34.9358 15.2694 35.3525 15.3736C35.7691 15.4777 36.165 15.6444 36.54 15.8736C36.79 16.7694 36.9566 17.6652 37.04 18.5611C37.1441 19.4569 37.3108 20.3527 37.54 21.2486V21.3423C37.54 21.4465 37.592 21.4986 37.6962 21.4986C37.8212 21.4777 37.915 21.509 37.9775 21.5923C37.9358 21.6548 37.9045 21.7277 37.8837 21.8111C37.8837 21.8944 37.8837 21.9777 37.8837 22.0611V22.5923C37.9254 22.759 37.9775 22.9361 38.04 23.1236C38.1025 23.3111 38.2379 23.4256 38.4462 23.4673C38.5504 24.134 38.7066 24.7486 38.915 25.3111C39.1233 25.8736 39.3629 26.4152 39.6337 26.9361C39.9045 27.4569 40.1962 27.9777 40.5087 28.4986C40.8212 28.9986 41.1441 29.5298 41.4775 30.0923C41.9983 30.4881 42.4462 30.9465 42.8212 31.4673C43.1962 31.9673 43.5712 32.4569 43.9462 32.9361C44.342 33.3944 44.7795 33.8006 45.2587 34.1548C45.7587 34.509 46.4045 34.7277 47.1962 34.8111C47.3004 34.7277 47.3733 34.6131 47.415 34.4673L47.5712 34.0298C47.6337 33.884 47.6962 33.759 47.7587 33.6548C47.842 33.5298 47.9566 33.4361 48.1025 33.3736C48.1441 32.7902 48.1858 32.1965 48.2275 31.5923C48.29 30.9881 48.4254 30.4152 48.6337 29.8736C48.5295 29.6861 48.4775 29.4569 48.4775 29.1861C48.4775 28.9777 48.4879 28.7798 48.5087 28.5923C48.5504 28.4048 48.5712 28.2173 48.5712 28.0298C48.5712 27.634 48.4879 27.3111 48.3212 27.0611C48.3212 26.9152 48.3316 26.7694 48.3525 26.6236C48.3733 26.4569 48.4358 26.3006 48.54 26.1548C48.3733 25.7381 48.2379 25.3006 48.1337 24.8423C48.0504 24.384 48.0087 23.9152 48.0087 23.4361C48.0087 23.1652 48.04 22.884 48.1025 22.5923C47.9775 22.2798 47.8941 21.9152 47.8525 21.4986L47.7275 20.2173C47.6858 19.7798 47.6233 19.3736 47.54 18.9986C47.4566 18.6236 47.3004 18.3215 47.0712 18.0923C47.1962 17.9048 47.2587 17.6861 47.2587 17.4361C47.2587 17.0194 47.1962 16.6236 47.0712 16.2486C46.9462 15.8736 46.8837 15.4777 46.8837 15.0611C46.8837 14.7694 46.9462 14.4777 47.0712 14.1861C47.5295 14.2069 47.9775 14.259 48.415 14.3423C48.8733 14.4048 49.3212 14.4361 49.7587 14.4361C49.8837 14.6027 50.0295 14.7381 50.1962 14.8423C50.3629 14.9465 50.54 15.0506 50.7275 15.1548C50.915 15.2381 51.092 15.3319 51.2587 15.4361C51.4462 15.5402 51.592 15.6861 51.6962 15.8736ZM81.1025 16.4361H80.9775C80.9358 16.4152 80.8941 16.4152 80.8525 16.4361C80.8108 16.4569 80.79 16.4881 80.79 16.5298C80.8316 16.6965 80.8525 16.8111 80.8525 16.8736C80.8525 17.1236 80.7691 17.3423 80.6025 17.5298C80.4566 17.6965 80.3837 17.8423 80.3837 17.9673C80.3837 18.0298 80.415 18.0819 80.4775 18.1236C80.5608 18.1652 80.6233 18.1965 80.665 18.2173C80.5608 18.3423 80.467 18.4777 80.3837 18.6236C80.3004 18.7694 80.2066 18.8944 80.1025 18.9986C80.1441 19.7277 80.2275 20.4465 80.3525 21.1548C80.4983 21.8423 80.5712 22.5402 80.5712 23.2486C80.5712 23.6027 80.5295 23.9569 80.4462 24.3111C80.3837 24.6444 80.3108 24.9881 80.2275 25.3423C80.1441 25.6756 80.0608 26.0194 79.9775 26.3736C79.915 26.7069 79.8837 27.0506 79.8837 27.4048C79.6129 27.9465 79.3212 28.4673 79.0087 28.9673C78.6962 29.4465 78.467 29.9777 78.3212 30.5611C77.842 30.8527 77.4254 31.2173 77.0712 31.6548C76.7379 32.0715 76.4045 32.4881 76.0712 32.9048C75.342 33.1548 74.6754 33.4881 74.0712 33.9048C73.967 33.9256 73.8733 33.9361 73.79 33.9361H73.54C72.7483 33.9361 72.0712 33.7902 71.5087 33.4986C70.9462 33.2069 70.4566 32.8319 70.04 32.3736C69.6441 31.8944 69.3004 31.3527 69.0087 30.7486C68.717 30.1444 68.4462 29.5194 68.1962 28.8736C67.717 29.2277 67.2795 29.634 66.8837 30.0923C66.5087 30.5298 66.1233 30.9673 65.7275 31.4048C65.6025 31.5715 65.4462 31.7694 65.2587 31.9986C65.092 32.2069 64.9254 32.3631 64.7587 32.4673C64.6754 32.509 64.5816 32.5506 64.4775 32.5923C64.3941 32.6131 64.3004 32.6444 64.1962 32.6861C63.6129 33.0194 63.1545 33.4673 62.8212 34.0298C62.4045 34.1965 61.9983 34.384 61.6025 34.5923C61.2275 34.8006 60.8629 35.0194 60.5087 35.2486C60.1129 35.2694 59.717 35.3006 59.3212 35.3423C58.9462 35.3631 58.5712 35.3736 58.1962 35.3736C57.6129 35.3736 57.1962 35.3423 56.9462 35.2798C56.717 35.1965 56.5295 35.1027 56.3837 34.9986C56.2587 34.8736 56.1233 34.7277 55.9775 34.5611C55.8525 34.3944 55.6025 34.2173 55.2275 34.0298C55.1233 33.759 55.0191 33.4881 54.915 33.2173C54.8316 32.9465 54.7066 32.6965 54.54 32.4673V32.0298C54.54 31.8423 54.5295 31.6652 54.5087 31.4986C54.5087 31.3319 54.4775 31.1861 54.415 31.0611C54.3525 30.9152 54.2483 30.8215 54.1025 30.7798C54.1025 30.009 54.1962 29.2486 54.3837 28.4986C54.5712 27.7486 54.7275 26.9881 54.8525 26.2173C54.9566 25.7798 55.0191 25.3319 55.04 24.8736C55.0608 24.7694 55.0712 24.6548 55.0712 24.5298C55.0712 24.4048 55.092 24.2798 55.1337 24.1548C55.1754 24.0298 55.2483 23.9256 55.3525 23.8423C55.4566 23.759 55.5295 23.634 55.5712 23.4673C55.6754 23.1756 55.7379 22.8527 55.7587 22.4986C55.7795 22.1444 55.8108 21.8111 55.8525 21.4986C55.9566 20.8736 56.0712 20.2486 56.1962 19.6236C56.342 18.9986 56.5087 18.384 56.6962 17.7798C56.6754 17.6756 56.665 17.5819 56.665 17.4986V17.1861C56.665 16.3944 56.717 15.6236 56.8212 14.8736C56.9462 14.1236 57.0087 13.3527 57.0087 12.5611C57.0087 12.1861 56.9775 11.7902 56.915 11.3736C57.0191 11.1652 57.1337 10.9777 57.2587 10.8111C57.4045 10.6236 57.592 10.4777 57.8212 10.3736C58.2587 10.6027 58.6858 10.8527 59.1025 11.1236C59.54 11.3736 59.9566 11.6548 60.3525 11.9673V12.7173C60.3525 13.3215 60.3316 13.9673 60.29 14.6548C60.2691 15.3215 60.2066 15.9986 60.1025 16.6861C60.0191 17.3736 59.9045 18.0402 59.7587 18.6861C59.6129 19.3319 59.415 19.9256 59.165 20.4673V21.4673C58.79 22.134 58.54 22.8319 58.415 23.5611C58.29 24.2902 58.1441 25.0194 57.9775 25.7486C57.9358 25.9777 57.8525 26.2486 57.7275 26.5611C57.6025 26.8736 57.54 27.1444 57.54 27.3736C57.54 27.4777 57.5504 27.5819 57.5712 27.6861C57.6129 27.7902 57.6441 27.8944 57.665 27.9986C57.4983 28.3736 57.4045 28.7798 57.3837 29.2173C57.3837 29.634 57.3316 30.0506 57.2275 30.4673C57.3941 30.7381 57.54 31.0298 57.665 31.3423C57.8108 31.634 57.967 31.9361 58.1337 32.2486L58.4462 32.2173C58.6337 32.2173 58.8316 32.2381 59.04 32.2798C59.2483 32.3006 59.4462 32.3111 59.6337 32.3111C59.7379 32.3111 59.842 32.3111 59.9462 32.3111C60.0504 32.2902 60.1545 32.2694 60.2587 32.2486C60.3837 32.0194 60.5504 31.8423 60.7587 31.7173C60.967 31.5715 61.1754 31.4465 61.3837 31.3423C61.6129 31.2381 61.8212 31.1236 62.0087 30.9986C62.217 30.8736 62.3837 30.6965 62.5087 30.4673H62.9462C62.9879 30.4048 63.0608 30.3215 63.165 30.2173C63.29 30.1131 63.4045 30.009 63.5087 29.9048C63.6129 29.8006 63.6962 29.6965 63.7587 29.5923C63.842 29.4881 63.8733 29.4048 63.8525 29.3423C64.1025 29.2381 64.3108 29.1027 64.4775 28.9361C64.665 28.7486 64.842 28.5611 65.0087 28.3736C65.1754 28.1652 65.342 27.9673 65.5087 27.7798C65.6754 27.5923 65.8733 27.4361 66.1025 27.3111C66.0816 27.2694 66.0712 27.2173 66.0712 27.1548C66.0712 26.9673 66.1233 26.8215 66.2275 26.7173C66.3525 26.6131 66.3837 26.4256 66.3212 26.1548L66.415 26.1861C66.5191 26.1861 66.592 26.1548 66.6337 26.0923C66.6754 26.0298 66.7066 25.9569 66.7275 25.8736C66.7691 25.7902 66.8108 25.7173 66.8525 25.6548C66.915 25.5715 66.9983 25.5194 67.1025 25.4986V25.4361C67.1025 25.0611 67.1754 24.7069 67.3212 24.3736C67.4879 24.0402 67.5712 23.6861 67.5712 23.3111C67.5712 23.2069 67.5608 23.1131 67.54 23.0298C67.5191 22.9256 67.4879 22.8215 67.4462 22.7173C67.6337 22.509 67.7483 22.2694 67.79 21.9986C67.8525 21.7277 67.8837 21.4465 67.8837 21.1548C67.9045 20.8631 67.9254 20.5715 67.9462 20.2798C67.967 19.9881 68.0504 19.7069 68.1962 19.4361C68.1962 19.2277 68.1233 19.0819 67.9775 18.9986L68.3525 18.4986C68.4775 18.3319 68.6233 18.1965 68.79 18.0923H68.8525C69.0816 18.0923 69.2795 18.1548 69.4462 18.2798C69.6337 18.384 69.8004 18.509 69.9462 18.6548C70.1129 18.7798 70.2795 18.9152 70.4462 19.0611C70.6129 19.1861 70.8004 19.2798 71.0087 19.3423V20.0298C71.217 20.1131 71.3733 20.259 71.4775 20.4673C71.4566 21.0298 71.4358 21.5923 71.415 22.1548C71.415 22.7173 71.415 23.2694 71.415 23.8111C71.415 24.6444 71.4358 25.4777 71.4775 26.3111C71.5191 27.1236 71.6233 27.9361 71.79 28.7486C72.0191 28.9777 72.2483 29.2069 72.4775 29.4361C72.7275 29.6652 72.915 29.9256 73.04 30.2173H73.415C74.1441 30.2173 74.7066 29.9881 75.1025 29.5298C75.4983 29.0506 75.7795 28.4986 75.9462 27.8736C76.2587 27.7277 76.4879 27.5298 76.6337 27.2798C76.8004 27.009 76.9254 26.7173 77.0087 26.4048C77.1129 26.0923 77.1962 25.7798 77.2587 25.4673C77.342 25.134 77.467 24.8423 77.6337 24.5923C77.6545 24.3423 77.665 24.0923 77.665 23.8423V23.0611C77.665 21.8527 77.6025 20.6548 77.4775 19.4673C77.3733 18.259 77.3108 17.0611 77.29 15.8736C77.2066 15.7069 77.1441 15.509 77.1025 15.2798L77.0087 14.5923C76.9879 14.3631 76.9358 14.1548 76.8525 13.9673C76.79 13.759 76.6858 13.6131 76.54 13.5298C76.6025 13.3215 76.6337 13.0715 76.6337 12.7798C76.6337 12.509 76.6025 12.2381 76.54 11.9673C76.4983 11.6965 76.4462 11.4256 76.3837 11.1548C76.5504 11.009 76.6858 10.8631 76.79 10.7173C76.8941 10.5715 77.0712 10.4986 77.3212 10.4986C77.467 10.4986 77.592 10.5402 77.6962 10.6236C77.8212 10.7069 77.9358 10.8006 78.04 10.9048C78.1441 11.009 78.2483 11.1027 78.3525 11.1861C78.4775 11.2694 78.6233 11.3111 78.79 11.3111C78.8316 11.3111 78.8733 11.3111 78.915 11.3111C78.9775 11.2902 79.04 11.2798 79.1025 11.2798C79.3108 11.4881 79.4775 11.7486 79.6025 12.0611C79.7483 12.3736 79.8733 12.7069 79.9775 13.0611C80.1025 13.3944 80.2275 13.7277 80.3525 14.0611C80.4983 14.3944 80.6754 14.6965 80.8837 14.9673C80.8837 15.0298 80.8733 15.0923 80.8525 15.1548C80.8525 15.1965 80.8525 15.2486 80.8525 15.3111C80.8525 15.4986 80.8837 15.6861 80.9462 15.8736C81.0087 16.0611 81.0608 16.2486 81.1025 16.4361ZM89.8525 32.1236C89.7483 32.2902 89.6233 32.4465 89.4775 32.5923C89.3316 32.7173 89.1962 32.8527 89.0712 32.9986C88.9254 33.0611 88.7587 33.0923 88.5712 33.0923C88.4045 33.0923 88.2379 33.0923 88.0712 33.0923C87.9254 33.0715 87.7795 33.0715 87.6337 33.0923C87.5087 33.0923 87.4045 33.134 87.3212 33.2173C87.1545 33.1756 87.0295 33.1027 86.9462 32.9986C86.8629 32.8736 86.717 32.8006 86.5087 32.7798C86.4254 32.759 86.342 32.759 86.2587 32.7798C85.9462 32.4256 85.6545 32.0506 85.3837 31.6548C85.1337 31.259 84.8941 30.884 84.665 30.5298C84.6441 29.759 84.5816 28.9777 84.4775 28.1861C84.4566 27.9986 84.4254 27.8111 84.3837 27.6236C84.342 27.4361 84.3108 27.259 84.29 27.0923C84.29 26.884 84.3004 26.6861 84.3212 26.4986C84.3629 26.2902 84.3941 26.1027 84.415 25.9361C84.4983 25.3319 84.592 24.7381 84.6962 24.1548C84.8004 23.5715 84.8941 22.9777 84.9775 22.3736C85.0608 21.8319 85.1025 21.2694 85.1025 20.6861C85.1025 20.0819 85.0087 19.5194 84.8212 18.9986L84.79 18.8423C84.8316 18.6756 84.8733 18.5402 84.915 18.4361C84.9775 18.3111 85.0191 18.1756 85.04 18.0298C85.0816 17.8006 85.0295 17.634 84.8837 17.5298C84.9462 17.3631 85.0504 17.259 85.1962 17.2173C85.342 17.1548 85.4254 17.0298 85.4462 16.8423C85.467 16.759 85.467 16.6756 85.4462 16.5923C85.6129 16.5298 85.7795 16.4777 85.9462 16.4361C86.1337 16.3736 86.3108 16.3631 86.4775 16.4048C86.7483 16.4465 86.9879 16.5402 87.1962 16.6861C87.4045 16.8111 87.6025 16.9569 87.79 17.1236C88.1233 18.1236 88.2587 19.1861 88.1962 20.3111C88.1337 21.4152 88.0295 22.5298 87.8837 23.6548C87.7379 24.7798 87.6441 25.884 87.6025 26.9673C87.5608 28.0298 87.7275 29.0194 88.1025 29.9361L88.165 29.9673C88.2691 29.9881 88.3525 29.9569 88.415 29.8736C88.4775 29.7694 88.5608 29.7277 88.665 29.7486C88.7483 29.7902 88.8004 29.8111 88.8212 29.8111C88.9045 30.2277 89.04 30.6236 89.2275 30.9986C89.415 31.3736 89.6233 31.7486 89.8525 32.1236ZM113.384 15.8736C113.342 16.1236 113.28 16.3423 113.196 16.5298C113.134 16.6965 113.123 16.9256 113.165 17.2173C112.957 17.2381 112.79 17.3111 112.665 17.4361C112.561 17.5402 112.467 17.6652 112.384 17.8111C112.321 17.9569 112.248 18.1131 112.165 18.2798C112.102 18.4256 112.019 18.5611 111.915 18.6861C112.082 19.4361 112.175 20.1965 112.196 20.9673C112.217 21.7381 112.269 22.4986 112.352 23.2486C112.457 24.2069 112.613 25.1548 112.821 26.0923C113.05 27.009 113.165 27.9465 113.165 28.9048C113.165 29.1965 113.155 29.4673 113.134 29.7173C113.134 29.9673 113.134 30.2277 113.134 30.4986C113.134 30.6652 113.134 30.8423 113.134 31.0298C113.155 31.1965 113.165 31.3631 113.165 31.5298C113.165 32.134 113.082 32.7381 112.915 33.3423C112.769 33.9465 112.655 34.5506 112.571 35.1548C112.321 35.384 112.102 35.634 111.915 35.9048C111.748 36.1756 111.571 36.4256 111.384 36.6548C111.196 36.884 110.977 37.0819 110.727 37.2486C110.477 37.4361 110.165 37.5611 109.79 37.6236C109.727 37.8319 109.602 37.9881 109.415 38.0923C109.248 38.1965 109.102 38.3423 108.977 38.5298H108.915C108.394 38.5298 107.946 38.4569 107.571 38.3111C107.196 38.1652 106.842 37.9986 106.509 37.8111C106.196 37.6236 105.873 37.4256 105.54 37.2173C105.207 37.009 104.821 36.8423 104.384 36.7173C103.8 36.2381 103.269 35.7173 102.79 35.1548C102.311 34.5715 101.769 34.0506 101.165 33.5923C101.019 33.1756 100.821 32.8319 100.571 32.5611C100.342 32.2902 100.113 31.9777 99.8837 31.6236C99.7795 31.4777 99.6962 31.3423 99.6337 31.2173C99.592 31.0923 99.5295 30.9465 99.4462 30.7798C99.3837 30.6131 99.2795 30.4986 99.1337 30.4361C99.0087 30.3736 98.8941 30.3006 98.79 30.2173C98.6233 29.5715 98.3837 28.9777 98.0712 28.4361C97.7587 27.8944 97.3941 27.3736 96.9775 26.8736C96.8525 27.1027 96.7483 27.3527 96.665 27.6236C96.6025 27.8736 96.54 28.134 96.4775 28.4048C96.415 28.6548 96.3316 28.9152 96.2275 29.1861C96.1441 29.4361 96.0295 29.6652 95.8837 29.8736V29.9673C95.8837 30.0715 95.9254 30.134 96.0087 30.1548C96.092 30.1756 96.1337 30.2381 96.1337 30.3423C96.1337 30.3631 96.1233 30.384 96.1025 30.4048C96.1025 30.4256 96.1025 30.4465 96.1025 30.4673C95.9983 30.5506 95.915 30.6548 95.8525 30.7798C95.8108 30.9048 95.7066 30.9777 95.54 30.9986C95.5608 31.1027 95.5712 31.2069 95.5712 31.3111V31.5923C95.5712 32.1965 95.4983 32.8006 95.3525 33.4048C95.2275 34.009 95.165 34.6236 95.165 35.2486V35.6548C95.165 35.8006 95.1754 35.9361 95.1962 36.0611C95.2379 36.1861 95.3004 36.3111 95.3837 36.4361C95.467 36.5611 95.5087 36.6756 95.5087 36.7798C95.5087 36.9256 95.4462 37.0611 95.3212 37.1861C95.467 37.2902 95.6337 37.4048 95.8212 37.5298C96.0087 37.6548 96.1754 37.7902 96.3212 37.9361C96.4879 38.1027 96.6233 38.2694 96.7275 38.4361C96.8316 38.6236 96.8837 38.8215 96.8837 39.0298C96.8837 39.384 96.7691 39.634 96.54 39.7798C96.3108 39.9256 96.0295 40.0402 95.6962 40.1236C95.3837 40.2069 95.0504 40.2798 94.6962 40.3423C94.3629 40.4256 94.0816 40.5611 93.8525 40.7486H93.7587C93.5087 40.7486 93.3212 40.6756 93.1962 40.5298C93.0712 40.384 92.8837 40.3111 92.6337 40.3111C92.2379 39.6652 91.967 38.9361 91.8212 38.1236C91.6754 37.3319 91.6025 36.5715 91.6025 35.8423C91.6025 34.9465 91.6858 34.0506 91.8525 33.1548C91.9983 32.259 92.1858 31.3736 92.415 30.4986C92.6233 29.6236 92.8525 28.759 93.1025 27.9048C93.3733 27.0298 93.6233 26.1548 93.8525 25.2798L93.8837 25.1861C93.8837 25.0819 93.8525 25.009 93.79 24.9673C93.7483 24.9256 93.7275 24.8631 93.7275 24.7798C93.7275 24.7381 93.7379 24.7173 93.7587 24.7173C93.8212 24.509 93.8837 24.3111 93.9462 24.1236C94.0295 23.9361 94.092 23.7277 94.1337 23.4986C94.2587 22.9152 94.342 22.3215 94.3837 21.7173C94.4462 21.0923 94.4775 20.4777 94.4775 19.8736C94.4983 19.2694 94.5191 18.6652 94.54 18.0611C94.5816 17.4361 94.6545 16.8215 94.7587 16.2173C94.9254 16.0506 95.0816 15.8736 95.2275 15.6861C95.3733 15.4986 95.5608 15.3319 95.79 15.1861C96.2066 15.2069 96.6233 15.2694 97.04 15.3736C97.4566 15.4777 97.8525 15.6444 98.2275 15.8736C98.4775 16.7694 98.6441 17.6652 98.7275 18.5611C98.8316 19.4569 98.9983 20.3527 99.2275 21.2486V21.3423C99.2275 21.4465 99.2795 21.4986 99.3837 21.4986C99.5087 21.4777 99.6025 21.509 99.665 21.5923C99.6233 21.6548 99.592 21.7277 99.5712 21.8111C99.5712 21.8944 99.5712 21.9777 99.5712 22.0611V22.5923C99.6129 22.759 99.665 22.9361 99.7275 23.1236C99.79 23.3111 99.9254 23.4256 100.134 23.4673C100.238 24.134 100.394 24.7486 100.602 25.3111C100.811 25.8736 101.05 26.4152 101.321 26.9361C101.592 27.4569 101.884 27.9777 102.196 28.4986C102.509 28.9986 102.832 29.5298 103.165 30.0923C103.686 30.4881 104.134 30.9465 104.509 31.4673C104.884 31.9673 105.259 32.4569 105.634 32.9361C106.03 33.3944 106.467 33.8006 106.946 34.1548C107.446 34.509 108.092 34.7277 108.884 34.8111C108.988 34.7277 109.061 34.6131 109.102 34.4673L109.259 34.0298C109.321 33.884 109.384 33.759 109.446 33.6548C109.53 33.5298 109.644 33.4361 109.79 33.3736C109.832 32.7902 109.873 32.1965 109.915 31.5923C109.977 30.9881 110.113 30.4152 110.321 29.8736C110.217 29.6861 110.165 29.4569 110.165 29.1861C110.165 28.9777 110.175 28.7798 110.196 28.5923C110.238 28.4048 110.259 28.2173 110.259 28.0298C110.259 27.634 110.175 27.3111 110.009 27.0611C110.009 26.9152 110.019 26.7694 110.04 26.6236C110.061 26.4569 110.123 26.3006 110.227 26.1548C110.061 25.7381 109.925 25.3006 109.821 24.8423C109.738 24.384 109.696 23.9152 109.696 23.4361C109.696 23.1652 109.727 22.884 109.79 22.5923C109.665 22.2798 109.582 21.9152 109.54 21.4986L109.415 20.2173C109.373 19.7798 109.311 19.3736 109.227 18.9986C109.144 18.6236 108.988 18.3215 108.759 18.0923C108.884 17.9048 108.946 17.6861 108.946 17.4361C108.946 17.0194 108.884 16.6236 108.759 16.2486C108.634 15.8736 108.571 15.4777 108.571 15.0611C108.571 14.7694 108.634 14.4777 108.759 14.1861C109.217 14.2069 109.665 14.259 110.102 14.3423C110.561 14.4048 111.009 14.4361 111.446 14.4361C111.571 14.6027 111.717 14.7381 111.884 14.8423C112.05 14.9465 112.227 15.0506 112.415 15.1548C112.602 15.2381 112.78 15.3319 112.946 15.4361C113.134 15.5402 113.28 15.6861 113.384 15.8736ZM136.29 16.5298V16.6548C136.144 16.6965 136.071 16.8006 136.071 16.9673C135.842 17.0715 135.602 17.1548 135.352 17.2173C135.102 17.259 134.863 17.3319 134.634 17.4361C134.405 17.4152 134.165 17.4048 133.915 17.4048C133.686 17.384 133.457 17.3736 133.227 17.3736C132.602 17.3736 131.977 17.3944 131.352 17.4361C130.727 17.4777 130.102 17.4777 129.477 17.4361C129.186 17.6027 128.863 17.7381 128.509 17.8423C128.175 17.9256 127.852 17.9673 127.54 17.9673C127.29 17.9673 127.071 17.9361 126.884 17.8736C126.384 18.1236 125.832 18.3319 125.227 18.4986C124.644 18.6652 124.05 18.8319 123.446 18.9986C122.842 19.1444 122.259 19.3215 121.696 19.5298C121.155 19.7173 120.675 19.9881 120.259 20.3423C120.217 20.634 120.186 20.9256 120.165 21.2173C120.144 21.4881 120.134 21.759 120.134 22.0298C120.134 22.3215 120.144 22.5923 120.165 22.8423C120.207 23.0923 120.28 23.3423 120.384 23.5923C120.488 23.634 120.602 23.6652 120.727 23.6861C120.873 23.7069 120.998 23.7173 121.102 23.7173C121.207 23.7173 121.311 23.7069 121.415 23.6861C121.519 23.6444 121.592 23.5715 121.634 23.4673C121.946 23.4256 122.259 23.4152 122.571 23.4361C122.884 23.4361 123.196 23.4361 123.509 23.4361C123.821 23.4361 124.123 23.4256 124.415 23.4048C124.727 23.384 125.03 23.3319 125.321 23.2486C125.655 23.1652 125.977 23.1131 126.29 23.0923C126.623 23.0715 126.946 23.0506 127.259 23.0298C127.571 23.009 127.894 22.9777 128.227 22.9361C128.561 22.8736 128.905 22.759 129.259 22.5923C129.53 22.6965 129.8 22.7486 130.071 22.7486C130.363 22.7486 130.644 22.7694 130.915 22.8111C131.061 22.9152 131.175 23.0298 131.259 23.1548C131.363 23.2798 131.415 23.4256 131.415 23.5923C131.415 23.884 131.311 24.1756 131.102 24.4673C130.894 24.759 130.727 25.0298 130.602 25.2798H130.259C129.759 25.2798 129.269 25.3527 128.79 25.4986C128.332 25.6236 127.863 25.7798 127.384 25.9673C126.925 26.134 126.457 26.2902 125.977 26.4361C125.519 26.5611 125.04 26.6236 124.54 26.6236C124.457 26.6236 124.405 26.6756 124.384 26.7798C124.384 26.8631 124.363 26.9256 124.321 26.9673C124.217 26.9465 124.061 26.9361 123.852 26.9361C123.373 26.9361 122.915 26.9881 122.477 27.0923C122.04 27.1965 121.592 27.2486 121.134 27.2486C121.009 27.2486 120.884 27.2486 120.759 27.2486C120.634 27.2277 120.509 27.2069 120.384 27.1861C120.28 27.3527 120.144 27.4673 119.977 27.5298C119.811 27.5715 119.655 27.6548 119.509 27.7798C119.446 27.9673 119.405 28.1965 119.384 28.4673C119.384 28.7381 119.373 29.0194 119.352 29.3111C119.352 29.5819 119.332 29.8423 119.29 30.0923C119.248 30.3423 119.165 30.5402 119.04 30.6861C119.061 30.7902 119.144 30.8319 119.29 30.8111C119.436 30.7694 119.509 30.8319 119.509 30.9986C119.509 31.1861 119.488 31.384 119.446 31.5923C119.405 31.8006 119.384 32.009 119.384 32.2173C119.384 32.6131 119.425 33.0506 119.509 33.5298C119.613 33.9881 119.759 34.4152 119.946 34.8111C120.155 35.2069 120.425 35.5402 120.759 35.8111C121.092 36.0611 121.509 36.1861 122.009 36.1861C122.342 36.1861 122.655 36.1236 122.946 35.9986C123.238 35.8736 123.477 35.6652 123.665 35.3736L123.821 35.3423C123.905 35.3423 123.977 35.3527 124.04 35.3736C124.123 35.3944 124.207 35.4048 124.29 35.4048C124.415 35.4048 124.571 35.3319 124.759 35.1861C124.967 35.0194 125.186 34.8319 125.415 34.6236C125.665 34.4152 125.915 34.2173 126.165 34.0298C126.415 33.8215 126.655 33.6756 126.884 33.5923C127.03 33.3006 127.165 33.009 127.29 32.7173C127.436 32.4256 127.644 32.1965 127.915 32.0298V31.1236C128.123 30.8944 128.342 30.6861 128.571 30.4986C128.821 30.3111 129.009 30.0715 129.134 29.7798C129.238 29.8215 129.332 29.8527 129.415 29.8736C129.519 29.8944 129.623 29.9048 129.727 29.9048C129.832 29.9048 129.936 29.8944 130.04 29.8736C130.165 29.8527 130.28 29.8215 130.384 29.7798C130.55 30.009 130.675 30.2694 130.759 30.5611C130.863 30.8319 130.988 31.0923 131.134 31.3423C130.946 31.7173 130.727 32.1652 130.477 32.6861C130.227 33.2069 129.957 33.7277 129.665 34.2486C129.373 34.7694 129.061 35.2694 128.727 35.7486C128.415 36.2069 128.102 36.5611 127.79 36.8111C127.727 36.8736 127.592 36.9465 127.384 37.0298C127.155 37.1965 126.946 37.3527 126.759 37.4986C126.571 37.6652 126.394 37.8527 126.227 38.0611C125.623 38.2486 125.04 38.4986 124.477 38.8111C123.936 39.1236 123.394 39.4256 122.852 39.7173C122.602 39.6548 122.332 39.6236 122.04 39.6236C121.79 39.6236 121.54 39.634 121.29 39.6548C121.04 39.6965 120.769 39.7173 120.477 39.7173C120.394 39.6131 120.269 39.5402 120.102 39.4986C119.957 39.4777 119.905 39.3736 119.946 39.1861C119.238 39.1444 118.665 38.9465 118.227 38.5923C117.79 38.259 117.415 37.8423 117.102 37.3423C116.811 36.8423 116.571 36.3006 116.384 35.7173C116.196 35.134 115.998 34.5715 115.79 34.0298V33.9361C115.79 33.8319 115.832 33.7694 115.915 33.7486C115.998 33.7277 116.04 33.6652 116.04 33.5611C116.04 33.5194 116.03 33.4881 116.009 33.4673C115.946 33.2381 115.894 33.0402 115.852 32.8736C115.811 32.7069 115.79 32.509 115.79 32.2798C115.79 31.9465 115.811 31.6236 115.852 31.3111C115.894 30.9777 115.915 30.6444 115.915 30.3111C115.915 29.9777 115.873 29.6861 115.79 29.4361C115.873 29.3319 115.946 29.1965 116.009 29.0298C116.05 28.8423 116.082 28.6548 116.102 28.4673C116.123 28.2798 116.134 28.0923 116.134 27.9048C116.155 27.7173 116.186 27.5506 116.227 27.4048C116.144 27.1756 116.071 26.9777 116.009 26.8111C115.946 26.6236 115.915 26.4048 115.915 26.1548V25.9361C116.123 25.5819 116.3 25.2173 116.446 24.8423C116.592 24.4673 116.748 24.0819 116.915 23.6861V23.5923C116.915 22.9881 116.894 22.384 116.852 21.7798C116.811 21.1756 116.79 20.5715 116.79 19.9673V19.3736C116.79 19.1652 116.8 18.9673 116.821 18.7798C116.988 18.6965 117.113 18.5819 117.196 18.4361C117.28 18.2902 117.405 18.1756 117.571 18.0923H118.602L118.79 17.7798C118.852 17.6756 118.894 17.5611 118.915 17.4361C119.144 17.3736 119.363 17.2902 119.571 17.1861C119.8 17.0611 120.009 16.9361 120.196 16.8111C120.488 16.6444 120.748 16.4986 120.977 16.3736C121.227 16.2277 121.467 16.1131 121.696 16.0298C121.946 15.9256 122.207 15.8423 122.477 15.7798C122.748 15.7173 123.061 15.6652 123.415 15.6236C123.582 15.6236 123.686 15.5923 123.727 15.5298C123.79 15.4673 123.873 15.3944 123.977 15.3111C124.227 15.3527 124.477 15.3944 124.727 15.4361C124.977 15.4569 125.227 15.4673 125.477 15.4673C125.977 15.4673 126.446 15.3736 126.884 15.1861C127.509 15.1861 128.123 15.1756 128.727 15.1548C129.352 15.134 129.977 15.1236 130.602 15.1236C131.144 15.1236 131.686 15.1444 132.227 15.1861C132.769 15.2277 133.3 15.3006 133.821 15.4048C134.009 15.3423 134.217 15.3111 134.446 15.3111C134.696 15.3111 134.946 15.3423 135.196 15.4048C135.467 15.4465 135.727 15.4465 135.977 15.4048C135.998 15.634 136.05 15.8319 136.134 15.9986C136.238 16.1444 136.29 16.3215 136.29 16.5298ZM155.79 20.9986C155.79 21.2069 155.717 21.3423 155.571 21.4048C155.425 21.4673 155.352 21.5923 155.352 21.7798C155.352 21.8423 155.373 21.8944 155.415 21.9361C155.457 21.9777 155.477 22.0402 155.477 22.1236V22.2486C155.227 23.4569 154.863 24.509 154.384 25.4048C153.925 26.3006 153.384 27.1236 152.759 27.8736C152.134 28.6236 151.425 29.3319 150.634 29.9986C149.863 30.6652 149.03 31.3631 148.134 32.0923C147.884 32.3006 147.623 32.509 147.352 32.7173C147.102 32.9256 146.863 33.1444 146.634 33.3736L145.946 34.0298C145.925 34.0506 145.811 34.1027 145.602 34.1861C145.394 34.2486 145.269 34.2902 145.227 34.3111C144.936 34.4361 144.623 34.5819 144.29 34.7486C143.977 34.9152 143.707 35.1236 143.477 35.3736C143.061 35.3736 142.707 35.4361 142.415 35.5611C142.123 35.6861 141.8 35.8527 141.446 36.0611C141.342 36.0611 141.248 36.0402 141.165 35.9986C141.102 35.9569 141.03 35.9152 140.946 35.8736C140.863 35.8319 140.769 35.8111 140.665 35.8111C140.582 35.7902 140.467 35.8006 140.321 35.8423C140.071 35.4256 139.8 35.0715 139.509 34.7798C139.217 34.4881 138.821 34.3111 138.321 34.2486C138.259 33.8944 138.113 33.6236 137.884 33.4361C137.655 33.2277 137.425 33.009 137.196 32.7798C137.155 32.6548 137.123 32.509 137.102 32.3423C137.082 32.1756 137.04 32.0194 136.977 31.8736C136.915 31.7277 136.832 31.6027 136.727 31.4986C136.623 31.3944 136.477 31.3423 136.29 31.3423C136.269 31.2173 136.321 31.1548 136.446 31.1548C136.571 31.1548 136.634 31.1027 136.634 30.9986C136.634 30.8736 136.613 30.7486 136.571 30.6236C136.53 30.4986 136.509 30.3631 136.509 30.2173C136.509 30.1131 136.519 30.0194 136.54 29.9361C136.561 29.8527 136.592 29.759 136.634 29.6548C136.571 29.0923 136.54 28.5194 136.54 27.9361C136.54 26.8111 136.613 25.7069 136.759 24.6236C136.925 23.5194 137.009 22.4048 137.009 21.2798C137.009 20.7798 136.977 20.2798 136.915 19.7798C136.873 19.2798 136.78 18.7902 136.634 18.3111C136.155 18.4152 135.675 18.5402 135.196 18.6861C134.717 18.8111 134.269 18.9881 133.852 19.2173C133.623 19.0715 133.384 18.9881 133.134 18.9673C132.863 18.9256 132.602 18.8631 132.352 18.7798C132.207 18.4881 132.134 18.1861 132.134 17.8736C132.134 17.5819 132.186 17.3006 132.29 17.0298L132.602 16.2173C133.102 16.1131 133.602 15.9569 134.102 15.7486C134.582 15.5402 135.071 15.3527 135.571 15.1861C135.738 15.1444 135.946 15.0923 136.196 15.0298C136.467 14.9673 136.655 14.9152 136.759 14.8736C136.905 14.8111 136.998 14.6965 137.04 14.5298C137.102 14.3423 137.186 14.1861 137.29 14.0611H137.821C137.946 14.0611 138.082 14.0715 138.227 14.0923C138.373 14.0923 138.509 14.1236 138.634 14.1861C139.384 13.9986 140.134 13.884 140.884 13.8423C141.634 13.7798 142.405 13.6965 143.196 13.5923C143.28 13.5923 143.405 13.5819 143.571 13.5611L144.102 13.4673C144.29 13.4256 144.457 13.3944 144.602 13.3736C144.769 13.3319 144.884 13.3111 144.946 13.3111C145.009 13.3111 145.04 13.3423 145.04 13.4048H145.571C146.467 13.4048 147.342 13.5194 148.196 13.7486L150.759 14.4361C151.113 14.7277 151.467 15.009 151.821 15.2798C152.175 15.5506 152.571 15.7902 153.009 15.9986C153.113 16.3319 153.269 16.6027 153.477 16.8111C153.707 16.9986 153.957 17.2069 154.227 17.4361C154.332 17.7069 154.467 17.9986 154.634 18.3111C154.821 18.6027 154.998 18.9048 155.165 19.2173C155.332 19.5298 155.477 19.8423 155.602 20.1548C155.727 20.4465 155.79 20.7277 155.79 20.9986ZM152.884 21.4673C152.655 20.9881 152.436 20.4881 152.227 19.9673C152.019 19.4465 151.759 18.9777 151.446 18.5611C151.071 18.4569 150.686 18.3319 150.29 18.1861C149.915 18.0194 149.655 17.7381 149.509 17.3423C149.467 17.3631 149.394 17.3736 149.29 17.3736C149.102 17.3736 148.936 17.3006 148.79 17.1548C148.644 17.009 148.477 16.9152 148.29 16.8736C148.123 16.8527 147.894 16.8215 147.602 16.7798C147.332 16.7381 147.04 16.7069 146.727 16.6861C146.415 16.6652 146.102 16.6444 145.79 16.6236C145.498 16.6027 145.269 16.5923 145.102 16.5923C144.936 16.5923 144.759 16.6027 144.571 16.6236C144.405 16.6236 144.227 16.634 144.04 16.6548C143.873 16.6548 143.769 16.6861 143.727 16.7486C143.686 16.7902 143.602 16.8319 143.477 16.8736C143.373 16.8319 143.259 16.8111 143.134 16.8111H142.759C142.321 16.8111 141.884 16.884 141.446 17.0298C141.03 17.1548 140.613 17.3319 140.196 17.5611V17.6861C140.196 17.8527 140.269 17.9465 140.415 17.9673C140.561 17.9881 140.644 18.0715 140.665 18.2173C140.561 18.2173 140.477 18.2277 140.415 18.2486C140.352 18.2486 140.321 18.3215 140.321 18.4673C140.321 18.6756 140.342 18.9048 140.384 19.1548C140.446 19.4048 140.477 19.6548 140.477 19.9048C140.477 20.0923 140.457 20.3111 140.415 20.5611C140.373 20.8111 140.269 21.009 140.102 21.1548C140.311 21.3423 140.415 21.5923 140.415 21.9048C140.415 22.1131 140.373 22.3319 140.29 22.5611C140.207 22.7902 140.102 22.9881 139.977 23.1548C139.936 24.0298 139.852 24.9152 139.727 25.8111C139.602 26.7069 139.54 27.5923 139.54 28.4673C139.54 28.9048 139.561 29.3319 139.602 29.7486C139.665 30.1652 139.759 30.5819 139.884 30.9986C140.113 31.2277 140.352 31.4048 140.602 31.5298C140.873 31.6548 141.155 31.7798 141.446 31.9048V31.9986C141.446 32.0611 141.405 32.1236 141.321 32.1861C141.238 32.2486 141.196 32.3319 141.196 32.4361C141.196 32.5194 141.238 32.5611 141.321 32.5611C142.196 32.3111 143.019 32.009 143.79 31.6548C144.561 31.3006 145.28 30.8215 145.946 30.2173C146.009 30.1548 146.071 30.1236 146.134 30.1236C146.175 30.1236 146.227 30.134 146.29 30.1548C146.373 30.1756 146.446 30.1965 146.509 30.2173L146.477 30.0923C146.477 29.9673 146.509 29.8527 146.571 29.7486C146.655 29.6444 146.748 29.5506 146.852 29.4673L147.165 29.1861C147.269 29.0819 147.352 28.9777 147.415 28.8736C147.582 28.8319 147.696 28.7486 147.759 28.6236C147.842 28.4986 147.977 28.4361 148.165 28.4361C148.207 28.2069 148.321 28.0402 148.509 27.9361C148.696 27.8111 148.811 27.634 148.852 27.4048C149.269 27.1756 149.634 26.8944 149.946 26.5611C150.28 26.2277 150.582 25.8736 150.852 25.4986C151.144 25.1236 151.415 24.7381 151.665 24.3423C151.915 23.9256 152.175 23.5298 152.446 23.1548V23.0298C152.446 22.6965 152.498 22.4256 152.602 22.2173C152.727 22.009 152.821 21.759 152.884 21.4673Z" fill="white"/>
</g>
<defs>
<filter id="filter0_d" x="0.852448" y="0.99855" width="158.938" height="48.8125" filterUnits="userSpaceOnUse" color-interpolation-filters="sRGB">
<feFlood flood-opacity="0" result="BackgroundImageFix"/>
<feColorMatrix in="SourceAlpha" type="matrix" values="0 0 0 0 0 0 0 0 0 0 0 0 0 0 0 0 0 0 127 0"/>
<feOffset dy="4"/>
<feGaussianBlur stdDeviation="2"/>
<feColorMatrix type="matrix" values="0 0 0 0 0 0 0 0 0 0 0 0 0 0 0 0 0 0 0.35 0"/>
<feBlend mode="normal" in2="BackgroundImageFix" result="effect1_dropShadow"/>
<feBlend mode="normal" in="SourceGraphic" in2="effect1_dropShadow" result="shape"/>
</filter>
</defs>
</svg>
