<svg width="242" height="242" viewBox="0 0 242 242" fill="none" xmlns="http://www.w3.org/2000/svg">
<g id="Logo" filter="url(#filter0_d)">
<circle id="background" cx="121" cy="121" r="90" fill="#501B1D"/>
<g id="wine">
<path d="M174.946 76.4047C174.892 81.8096 178.946 96.4047 178.946 96.4047L111.446 108.405L101.946 106.405L94.4462 99.9047L66.9462 104.405C66.9462 104.405 64.5 106.405 63.4462 108.405C62.3923 110.405 65.9462 110.31 61.4462 113.405C56.9462 116.5 63.5538 132.595 59.9999 136C58.0376 137.88 59.9029 140.914 61.6304 143.491C62.8435 143.772 63.8848 144.242 64.4999 145C66.9357 148 63.4462 148 63.4462 148L61.4462 152.405L56.9462 156.905L54.9462 158.405L52.9462 156.905L52.9462 143.5C52.9462 143.5 58.0403 142.662 61.6304 143.491C59.9029 140.914 58.0376 137.88 59.9999 136C63.5538 132.595 56.9462 116.5 61.4462 113.405C65.9462 110.31 62.3923 110.405 63.4462 108.405C64.5 106.405 66.9462 104.405 66.9462 104.405C66.9462 104.405 76 99.9047 79.4462 99.9047C82.8923 99.9047 88.4462 101.905 91.4462 96.4047C94.4462 90.9047 102.946 95.4047 102.946 95.4047C102.946 95.4047 109.392 95.9047 111.446 93.4047C113.5 90.9047 118.946 93.4047 118.946 93.4047L120.946 93.4047L121.946 90.9047L149.446 85.9047L151.946 88.4047L155.946 88.4047C155.946 88.4047 157 82.9998 163 82.4998C169 81.9998 169.446 80.9047 169.446 80.9047C169.446 80.9047 175 70.9999 174.946 76.4047Z" fill="black"/>
<path d="M66.9462 104.405L94.4462 99.9047L101.946 106.405L111.446 108.405L178.946 96.4047C178.946 96.4047 174.892 81.8096 174.946 76.4047C175 70.9999 169.446 80.9047 169.446 80.9047C169.446 80.9047 169 81.9998 163 82.4998C157 82.9998 155.946 88.4047 155.946 88.4047L151.946 88.4047L149.446 85.9047L121.946 90.9047L120.946 93.4047L118.946 93.4047C118.946 93.4047 113.5 90.9047 111.446 93.4047C109.392 95.9047 102.946 95.4047 102.946 95.4047C102.946 95.4047 94.4462 90.9047 91.4462 96.4047C88.4462 101.905 82.8923 99.9047 79.4462 99.9047C76 99.9047 66.9462 104.405 66.9462 104.405ZM66.9462 104.405C66.9462 104.405 64.5 106.405 63.4462 108.405C62.3923 110.405 65.9462 110.31 61.4462 113.405C56.9462 116.5 63.5538 132.595 59.9999 136C56.4461 139.405 65.4462 146.595 63.4462 148M63.4462 148L61.4462 152.405L56.9462 156.905L54.9462 158.405L52.9462 156.905L52.9462 143.5C52.9462 143.5 62.0641 142 64.4999 145C66.9357 148 63.4462 148 63.4462 148Z" stroke="black"/>
</g>
<path id="label" d="M124.288 99.0996L121.704 106.096L152.494 100.667L152.934 94.0485L151.852 87.9094L149.823 85.524L121.567 90.5065L123.205 92.9605L124.288 99.0996Z" stroke="white" stroke-width="2"/>
<g id="bottle" filter="url(#filter1_d)">
<path d="M97.1337 81.4223C99.5 78 105.133 76.9464 105.133 76.9464L171 65.5L174.5 67.5L180 93L178.5 97L110.689 108.46C110.689 108.46 105.133 108.46 101.537 106.395C97.9417 104.331 94.6592 99.6381 94.6592 99.6381L66.5833 104.589L64.8009 94.4804L92.8769 89.5299C92.8769 89.5299 94.7673 84.8445 97.1337 81.4223Z" stroke="white" stroke-width="2"/>
</g>
<g id="Unwined" filter="url(#filter2_d)">
<path d="M73.4462 161.124C73.4462 161.374 73.3733 161.582 73.2274 161.749C73.0816 161.936 72.9045 162.082 72.6962 162.186C72.4878 162.311 72.2691 162.415 72.0399 162.499C71.8108 162.603 71.6128 162.707 71.4462 162.811C70.967 162.707 70.467 162.613 69.9462 162.53C69.4253 162.467 68.9566 162.332 68.5399 162.124C67.6858 161.186 67.0816 160.103 66.7274 158.874C66.3941 157.665 66.1753 156.457 66.0712 155.249C66.0295 154.894 66.0087 154.551 66.0087 154.217C66.0087 153.863 65.9878 153.509 65.9462 153.155C65.9045 152.842 65.717 152.655 65.3837 152.592C65.6337 152.551 65.8108 152.426 65.9149 152.217C66.0191 151.988 66.0816 151.738 66.1024 151.467C66.1233 151.176 66.1233 150.894 66.1024 150.624C66.1024 150.332 66.1233 150.092 66.1649 149.905C65.9983 149.967 65.8524 150.113 65.7274 150.342C65.6024 150.551 65.4878 150.79 65.3837 151.061C65.2795 151.332 65.1753 151.603 65.0712 151.874C64.9878 152.124 64.9045 152.321 64.8212 152.467C63.9462 153.967 62.9253 155.332 61.7587 156.561C60.6128 157.79 59.4253 159.009 58.1962 160.217C57.842 160.342 57.5087 160.499 57.1962 160.686C56.8837 160.894 56.592 161.113 56.3212 161.342C55.5295 161.571 54.7795 161.686 54.0712 161.686C53.4253 161.686 52.7899 161.592 52.1649 161.405C51.5399 161.238 50.9774 160.946 50.4774 160.53L49.3212 157.905C49.2587 157.738 49.1858 157.571 49.1024 157.405C49.0191 157.217 48.9566 157.04 48.9149 156.874C48.8733 156.686 48.8524 156.488 48.8524 156.28C48.8733 156.051 48.8837 155.853 48.8837 155.686C48.8837 154.957 48.9045 154.228 48.9462 153.499C49.0087 152.749 49.092 152.009 49.1962 151.28C49.2378 150.988 49.3003 150.686 49.3837 150.374C49.467 150.061 49.5295 149.759 49.5712 149.467L49.5712 149.124C49.5712 149.019 49.5608 148.894 49.5399 148.749C49.5191 148.582 49.4566 148.478 49.3524 148.436C49.8524 147.228 50.1024 145.967 50.1024 144.655C50.1024 144.446 50.092 144.249 50.0712 144.061C50.0712 143.853 50.0608 143.644 50.0399 143.436C50.1858 143.29 50.2795 143.124 50.3212 142.936C50.3628 142.728 50.3837 142.519 50.3837 142.311C50.3837 142.082 50.3837 141.863 50.3837 141.655C50.4045 141.446 50.467 141.249 50.5712 141.061C50.5503 140.832 50.5295 140.613 50.5087 140.405C50.5087 140.176 50.5087 139.946 50.5087 139.717C50.5087 138.321 50.6128 136.946 50.8212 135.592C51.0503 134.217 51.1649 132.832 51.1649 131.436L51.1649 130.124C51.1649 129.832 51.1649 129.53 51.1649 129.217C51.1858 128.905 51.2274 128.603 51.2899 128.311C51.3733 128.019 51.4878 127.749 51.6337 127.499C51.7795 127.228 51.9878 126.999 52.2587 126.811C52.3003 126.811 52.3316 126.811 52.3524 126.811C52.3941 126.79 52.4358 126.78 52.4774 126.78C52.6649 126.78 52.8108 126.832 52.9149 126.936C53.0191 127.019 53.1753 127.051 53.3837 127.03C53.7587 127.571 54.0503 128.144 54.2587 128.749C54.4878 129.353 54.6024 129.988 54.6024 130.655C54.6024 131.155 54.5295 131.644 54.3837 132.124C54.2378 132.603 54.1649 133.103 54.1649 133.624C54.1649 133.832 54.1753 134.04 54.1962 134.249C54.217 134.457 54.2274 134.665 54.2274 134.874C54.2274 135.082 54.1962 135.29 54.1337 135.499C54.092 135.686 53.9983 135.853 53.8524 135.999C53.8941 136.415 53.9253 136.842 53.9462 137.28C53.967 137.696 53.9774 138.113 53.9774 138.53C53.9774 139.717 53.9045 140.905 53.7587 142.092C53.6128 143.28 53.4462 144.467 53.2587 145.655C53.0712 146.842 52.9045 148.03 52.7587 149.217C52.6128 150.405 52.5399 151.603 52.5399 152.811L52.5399 153.717C52.5399 154.009 52.5608 154.311 52.6024 154.624C52.4774 154.915 52.4149 155.228 52.4149 155.561C52.4149 156.019 52.5191 156.467 52.7274 156.905C52.9358 157.342 53.1858 157.738 53.4774 158.092C53.5816 158.113 53.6753 158.124 53.7587 158.124C53.8628 158.144 53.967 158.155 54.0712 158.155C54.6128 158.155 55.092 158.04 55.5087 157.811C55.9462 157.582 56.3524 157.301 56.7274 156.967C57.1233 156.634 57.5087 156.29 57.8837 155.936C58.2587 155.582 58.6649 155.29 59.1024 155.061C59.7691 154.207 60.3941 153.353 60.9774 152.499C61.5608 151.624 62.1233 150.717 62.6649 149.78C62.7066 149.28 62.8316 148.78 63.0399 148.28C63.2691 147.759 63.4983 147.249 63.7274 146.749C63.9774 146.249 64.1962 145.759 64.3837 145.28C64.592 144.801 64.6962 144.342 64.6962 143.905C64.6962 143.676 64.6233 143.519 64.4774 143.436C64.6858 142.894 64.842 142.332 64.9462 141.749C65.0503 141.165 65.1337 140.582 65.1962 139.999C65.2795 139.415 65.3628 138.842 65.4462 138.28C65.5295 137.696 65.6545 137.124 65.8212 136.561C65.8212 136.436 65.8108 136.311 65.7899 136.186C65.7899 136.061 65.7899 135.936 65.7899 135.811C65.7899 134.853 65.8837 133.915 66.0712 132.999C66.2587 132.061 66.3524 131.113 66.3524 130.155C66.3524 129.926 66.3316 129.717 66.2899 129.53C66.2691 129.321 66.2587 129.124 66.2587 128.936C66.2587 128.769 66.3108 128.665 66.4149 128.624C66.5399 128.582 66.6024 128.467 66.6024 128.28C66.6024 128.113 66.5816 127.936 66.5399 127.749C66.5191 127.561 66.5087 127.363 66.5087 127.155C66.5087 126.509 66.5712 125.874 66.6962 125.249C66.8212 124.624 66.8837 123.988 66.8837 123.342L66.8837 122.967C66.8837 122.821 66.8628 122.686 66.8212 122.561C66.967 122.332 67.1649 122.186 67.4149 122.124C67.6649 122.04 67.9045 121.999 68.1337 121.999C68.5087 121.999 68.8212 122.04 69.0712 122.124C69.467 123.186 69.8003 124.28 70.0712 125.405C70.342 126.509 70.5608 127.634 70.7274 128.78C70.7691 129.051 70.8212 129.342 70.8837 129.655C70.967 129.946 71.0087 130.238 71.0087 130.53C71.0087 130.592 70.9878 130.665 70.9462 130.749C70.9253 130.832 70.9045 130.915 70.8837 130.999C70.8628 131.165 70.842 131.332 70.8212 131.499C70.8212 131.665 70.8212 131.832 70.8212 131.999C70.8212 132.499 70.8524 132.999 70.9149 133.499C70.9774 133.999 71.0087 134.509 71.0087 135.03C71.0087 135.613 70.9253 136.176 70.7587 136.717C70.6128 137.238 70.4983 137.79 70.4149 138.374C70.3316 138.978 70.3003 139.571 70.3212 140.155C70.342 140.738 70.3003 141.332 70.1962 141.936C70.1545 142.186 70.092 142.436 70.0087 142.686C69.9253 142.915 69.8837 143.165 69.8837 143.436C69.8837 143.624 69.8941 143.811 69.9149 143.999C69.9566 144.186 69.9774 144.384 69.9774 144.592C69.9774 144.905 69.9045 145.144 69.7587 145.311C69.8003 145.478 69.8316 145.634 69.8524 145.78C69.8733 145.905 69.9149 146.051 69.9774 146.217C69.8733 146.342 69.8003 146.478 69.7587 146.624C69.717 146.769 69.6962 146.926 69.6962 147.092C69.6962 147.301 69.7066 147.499 69.7274 147.686C69.7483 147.853 69.7587 148.03 69.7587 148.217C69.7587 148.655 69.6858 149.071 69.5399 149.467C69.4149 149.863 69.3316 150.269 69.2899 150.686C69.2691 150.978 69.2587 151.269 69.2587 151.561C69.2795 151.832 69.2899 152.113 69.2899 152.405C69.2899 152.717 69.2691 153.019 69.2274 153.311C69.2066 153.603 69.1233 153.894 68.9774 154.186C69.0191 154.311 69.0712 154.436 69.1337 154.561C69.1962 154.686 69.2899 154.78 69.4149 154.842C69.4149 155.488 69.4983 156.144 69.6649 156.811C69.8524 157.457 70.1024 158.071 70.4149 158.655C70.4774 158.78 70.5712 158.874 70.6962 158.936C70.8212 158.999 70.9358 159.061 71.0399 159.124C71.1441 159.207 71.2274 159.301 71.2899 159.405C71.3524 159.509 71.3628 159.665 71.3212 159.874C71.3628 159.894 71.4253 159.905 71.5087 159.905C71.6753 159.905 71.8108 159.863 71.9149 159.78C72.0399 159.696 72.1858 159.655 72.3524 159.655L72.5712 159.655C72.7587 159.842 72.9462 160.061 73.1337 160.311C73.342 160.561 73.4462 160.832 73.4462 161.124ZM95.6962 136.874C95.6545 137.124 95.592 137.342 95.5087 137.53C95.4462 137.696 95.4358 137.926 95.4774 138.217C95.2691 138.238 95.1024 138.311 94.9774 138.436C94.8733 138.54 94.7795 138.665 94.6962 138.811C94.6337 138.957 94.5608 139.113 94.4774 139.28C94.4149 139.426 94.3316 139.561 94.2274 139.686C94.3941 140.436 94.4878 141.196 94.5087 141.967C94.5295 142.738 94.5816 143.499 94.6649 144.249C94.7691 145.207 94.9253 146.155 95.1337 147.092C95.3628 148.009 95.4774 148.946 95.4774 149.905C95.4774 150.196 95.467 150.467 95.4462 150.717C95.4462 150.967 95.4462 151.228 95.4462 151.499C95.4462 151.665 95.4462 151.842 95.4462 152.03C95.467 152.196 95.4774 152.363 95.4774 152.53C95.4774 153.134 95.3941 153.738 95.2274 154.342C95.0816 154.946 94.967 155.551 94.8837 156.155C94.6337 156.384 94.4149 156.634 94.2274 156.905C94.0608 157.176 93.8837 157.426 93.6962 157.655C93.5087 157.884 93.2899 158.082 93.0399 158.249C92.7899 158.436 92.4774 158.561 92.1024 158.624C92.0399 158.832 91.9149 158.988 91.7274 159.092C91.5608 159.196 91.4149 159.342 91.2899 159.53L91.2274 159.53C90.7066 159.53 90.2587 159.457 89.8837 159.311C89.5087 159.165 89.1545 158.999 88.8212 158.811C88.5087 158.624 88.1858 158.426 87.8524 158.217C87.5191 158.009 87.1337 157.842 86.6962 157.717C86.1128 157.238 85.5816 156.717 85.1024 156.155C84.6233 155.571 84.0816 155.051 83.4774 154.592C83.3316 154.176 83.1337 153.832 82.8837 153.561C82.6545 153.29 82.4253 152.978 82.1962 152.624C82.092 152.478 82.0087 152.342 81.9462 152.217C81.9045 152.092 81.842 151.946 81.7587 151.78C81.6962 151.613 81.592 151.499 81.4462 151.436C81.3212 151.374 81.2066 151.301 81.1024 151.217C80.9358 150.571 80.6962 149.978 80.3837 149.436C80.0712 148.894 79.7066 148.374 79.2899 147.874C79.1649 148.103 79.0608 148.353 78.9774 148.624C78.9149 148.874 78.8524 149.134 78.7899 149.405C78.7274 149.655 78.6441 149.915 78.5399 150.186C78.4566 150.436 78.342 150.665 78.1962 150.874L78.1962 150.967C78.1962 151.071 78.2378 151.134 78.3212 151.155C78.4045 151.176 78.4462 151.238 78.4462 151.342C78.4462 151.363 78.4358 151.384 78.4149 151.405C78.4149 151.426 78.4149 151.446 78.4149 151.467C78.3108 151.551 78.2274 151.655 78.1649 151.78C78.1233 151.905 78.0191 151.978 77.8524 151.999C77.8733 152.103 77.8837 152.207 77.8837 152.311L77.8837 152.592C77.8837 153.196 77.8108 153.801 77.6649 154.405C77.5399 155.009 77.4774 155.624 77.4774 156.249L77.4774 156.655C77.4774 156.801 77.4878 156.936 77.5087 157.061C77.5503 157.186 77.6128 157.311 77.6962 157.436C77.7795 157.561 77.8212 157.676 77.8212 157.78C77.8212 157.926 77.7587 158.061 77.6337 158.186C77.7795 158.29 77.9462 158.405 78.1337 158.53C78.3212 158.655 78.4878 158.79 78.6337 158.936C78.8003 159.103 78.9358 159.269 79.0399 159.436C79.1441 159.624 79.1962 159.821 79.1962 160.03C79.1962 160.384 79.0816 160.634 78.8524 160.78C78.6233 160.926 78.342 161.04 78.0087 161.124C77.6962 161.207 77.3628 161.28 77.0087 161.342C76.6753 161.426 76.3941 161.561 76.1649 161.749L76.0712 161.749C75.8212 161.749 75.6337 161.676 75.5087 161.53C75.3837 161.384 75.1962 161.311 74.9462 161.311C74.5503 160.665 74.2795 159.936 74.1337 159.124C73.9878 158.332 73.9149 157.571 73.9149 156.842C73.9149 155.946 73.9983 155.051 74.1649 154.155C74.3108 153.259 74.4983 152.374 74.7274 151.499C74.9358 150.624 75.1649 149.759 75.4149 148.905C75.6858 148.03 75.9358 147.155 76.1649 146.28L76.1962 146.186C76.1962 146.082 76.1649 146.009 76.1024 145.967C76.0608 145.926 76.0399 145.863 76.0399 145.78C76.0399 145.738 76.0503 145.717 76.0712 145.717C76.1337 145.509 76.1962 145.311 76.2587 145.124C76.342 144.936 76.4045 144.728 76.4462 144.499C76.5712 143.915 76.6545 143.321 76.6962 142.717C76.7587 142.092 76.7899 141.478 76.7899 140.874C76.8108 140.269 76.8316 139.665 76.8524 139.061C76.8941 138.436 76.967 137.821 77.0712 137.217C77.2378 137.051 77.3941 136.874 77.5399 136.686C77.6858 136.499 77.8733 136.332 78.1024 136.186C78.5191 136.207 78.9358 136.269 79.3524 136.374C79.7691 136.478 80.1649 136.644 80.5399 136.874C80.7899 137.769 80.9566 138.665 81.0399 139.561C81.1441 140.457 81.3108 141.353 81.5399 142.249L81.5399 142.342C81.5399 142.446 81.592 142.499 81.6962 142.499C81.8212 142.478 81.9149 142.509 81.9774 142.592C81.9358 142.655 81.9045 142.728 81.8837 142.811C81.8837 142.894 81.8837 142.978 81.8837 143.061L81.8837 143.592C81.9253 143.759 81.9774 143.936 82.0399 144.124C82.1024 144.311 82.2378 144.426 82.4462 144.467C82.5503 145.134 82.7066 145.749 82.9149 146.311C83.1233 146.874 83.3628 147.415 83.6337 147.936C83.9045 148.457 84.1962 148.978 84.5087 149.499C84.8212 149.999 85.1441 150.53 85.4774 151.092C85.9983 151.488 86.4462 151.946 86.8212 152.467C87.1962 152.967 87.5712 153.457 87.9462 153.936C88.342 154.394 88.7795 154.801 89.2587 155.155C89.7587 155.509 90.4045 155.728 91.1962 155.811C91.3003 155.728 91.3733 155.613 91.4149 155.467L91.5712 155.03C91.6337 154.884 91.6962 154.759 91.7587 154.655C91.842 154.53 91.9566 154.436 92.1024 154.374C92.1441 153.79 92.1858 153.196 92.2274 152.592C92.2899 151.988 92.4253 151.415 92.6337 150.874C92.5295 150.686 92.4774 150.457 92.4774 150.186C92.4774 149.978 92.4878 149.78 92.5087 149.592C92.5503 149.405 92.5712 149.217 92.5712 149.03C92.5712 148.634 92.4878 148.311 92.3212 148.061C92.3212 147.915 92.3316 147.769 92.3524 147.624C92.3733 147.457 92.4358 147.301 92.5399 147.155C92.3733 146.738 92.2378 146.301 92.1337 145.842C92.0503 145.384 92.0087 144.915 92.0087 144.436C92.0087 144.165 92.0399 143.884 92.1024 143.592C91.9774 143.28 91.8941 142.915 91.8524 142.499L91.7274 141.217C91.6858 140.78 91.6233 140.374 91.5399 139.999C91.4566 139.624 91.3003 139.321 91.0712 139.092C91.1962 138.905 91.2587 138.686 91.2587 138.436C91.2587 138.019 91.1962 137.624 91.0712 137.249C90.9462 136.874 90.8837 136.478 90.8837 136.061C90.8837 135.769 90.9462 135.478 91.0712 135.186C91.5295 135.207 91.9774 135.259 92.4149 135.342C92.8733 135.405 93.3212 135.436 93.7587 135.436C93.8837 135.603 94.0295 135.738 94.1962 135.842C94.3628 135.946 94.5399 136.051 94.7274 136.155C94.9149 136.238 95.092 136.332 95.2587 136.436C95.4462 136.54 95.592 136.686 95.6962 136.874ZM125.102 137.436L124.977 137.436C124.936 137.415 124.894 137.415 124.852 137.436C124.811 137.457 124.79 137.488 124.79 137.53C124.832 137.696 124.852 137.811 124.852 137.874C124.852 138.124 124.769 138.342 124.602 138.53C124.457 138.696 124.384 138.842 124.384 138.967C124.384 139.03 124.415 139.082 124.477 139.124C124.561 139.165 124.623 139.196 124.665 139.217C124.561 139.342 124.467 139.478 124.384 139.624C124.3 139.769 124.207 139.894 124.102 139.999C124.144 140.728 124.227 141.446 124.352 142.155C124.498 142.842 124.571 143.54 124.571 144.249C124.571 144.603 124.53 144.957 124.446 145.311C124.384 145.644 124.311 145.988 124.227 146.342C124.144 146.676 124.061 147.019 123.977 147.374C123.915 147.707 123.884 148.051 123.884 148.405C123.613 148.946 123.321 149.467 123.009 149.967C122.696 150.446 122.467 150.978 122.321 151.561C121.842 151.853 121.425 152.217 121.071 152.655C120.738 153.071 120.405 153.488 120.071 153.905C119.342 154.155 118.675 154.488 118.071 154.905C117.967 154.926 117.873 154.936 117.79 154.936L117.54 154.936C116.748 154.936 116.071 154.79 115.509 154.499C114.946 154.207 114.457 153.832 114.04 153.374C113.644 152.894 113.3 152.353 113.009 151.749C112.717 151.144 112.446 150.519 112.196 149.874C111.717 150.228 111.28 150.634 110.884 151.092C110.509 151.53 110.123 151.967 109.727 152.405C109.602 152.571 109.446 152.769 109.259 152.999C109.092 153.207 108.925 153.363 108.759 153.467C108.675 153.509 108.582 153.551 108.477 153.592C108.394 153.613 108.3 153.644 108.196 153.686C107.613 154.019 107.155 154.467 106.821 155.03C106.405 155.196 105.998 155.384 105.602 155.592C105.227 155.801 104.863 156.019 104.509 156.249C104.113 156.269 103.717 156.301 103.321 156.342C102.946 156.363 102.571 156.374 102.196 156.374C101.613 156.374 101.196 156.342 100.946 156.28C100.717 156.196 100.53 156.103 100.384 155.999C100.259 155.874 100.123 155.728 99.9774 155.561C99.8524 155.394 99.6024 155.217 99.2274 155.03C99.1233 154.759 99.0191 154.488 98.9149 154.217C98.8316 153.946 98.7066 153.696 98.5399 153.467L98.5399 153.03C98.5399 152.842 98.5295 152.665 98.5087 152.499C98.5087 152.332 98.4774 152.186 98.4149 152.061C98.3524 151.915 98.2483 151.821 98.1024 151.78C98.1024 151.009 98.1962 150.249 98.3837 149.499C98.5712 148.749 98.7274 147.988 98.8524 147.217C98.9566 146.78 99.0191 146.332 99.0399 145.874C99.0608 145.769 99.0712 145.655 99.0712 145.53C99.0712 145.405 99.092 145.28 99.1337 145.155C99.1753 145.03 99.2483 144.926 99.3524 144.842C99.4566 144.759 99.5295 144.634 99.5712 144.467C99.6753 144.176 99.7378 143.853 99.7587 143.499C99.7795 143.144 99.8108 142.811 99.8524 142.499C99.9566 141.874 100.071 141.249 100.196 140.624C100.342 139.999 100.509 139.384 100.696 138.78C100.675 138.676 100.665 138.582 100.665 138.499L100.665 138.186C100.665 137.394 100.717 136.624 100.821 135.874C100.946 135.124 101.009 134.353 101.009 133.561C101.009 133.186 100.977 132.79 100.915 132.374C101.019 132.165 101.134 131.978 101.259 131.811C101.405 131.624 101.592 131.478 101.821 131.374C102.259 131.603 102.686 131.853 103.102 132.124C103.54 132.374 103.957 132.655 104.352 132.967L104.352 133.717C104.352 134.321 104.332 134.967 104.29 135.655C104.269 136.321 104.207 136.999 104.102 137.686C104.019 138.374 103.905 139.04 103.759 139.686C103.613 140.332 103.415 140.926 103.165 141.467L103.165 142.467C102.79 143.134 102.54 143.832 102.415 144.561C102.29 145.29 102.144 146.019 101.977 146.749C101.936 146.978 101.852 147.249 101.727 147.561C101.602 147.874 101.54 148.144 101.54 148.374C101.54 148.478 101.55 148.582 101.571 148.686C101.613 148.79 101.644 148.894 101.665 148.999C101.498 149.374 101.405 149.78 101.384 150.217C101.384 150.634 101.332 151.051 101.227 151.467C101.394 151.738 101.54 152.03 101.665 152.342C101.811 152.634 101.967 152.936 102.134 153.249L102.446 153.217C102.634 153.217 102.832 153.238 103.04 153.28C103.248 153.301 103.446 153.311 103.634 153.311C103.738 153.311 103.842 153.311 103.946 153.311C104.05 153.29 104.155 153.269 104.259 153.249C104.384 153.019 104.55 152.842 104.759 152.717C104.967 152.571 105.175 152.446 105.384 152.342C105.613 152.238 105.821 152.124 106.009 151.999C106.217 151.874 106.384 151.696 106.509 151.467L106.946 151.467C106.988 151.405 107.061 151.321 107.165 151.217C107.29 151.113 107.405 151.009 107.509 150.905C107.613 150.801 107.696 150.696 107.759 150.592C107.842 150.488 107.873 150.405 107.852 150.342C108.102 150.238 108.311 150.103 108.477 149.936C108.665 149.749 108.842 149.561 109.009 149.374C109.175 149.165 109.342 148.967 109.509 148.78C109.675 148.592 109.873 148.436 110.102 148.311C110.082 148.269 110.071 148.217 110.071 148.155C110.071 147.967 110.123 147.821 110.227 147.717C110.352 147.613 110.384 147.426 110.321 147.155L110.415 147.186C110.519 147.186 110.592 147.155 110.634 147.092C110.675 147.03 110.707 146.957 110.727 146.874C110.769 146.79 110.811 146.717 110.852 146.655C110.915 146.571 110.998 146.519 111.102 146.499L111.102 146.436C111.102 146.061 111.175 145.707 111.321 145.374C111.488 145.04 111.571 144.686 111.571 144.311C111.571 144.207 111.561 144.113 111.54 144.03C111.519 143.926 111.488 143.821 111.446 143.717C111.634 143.509 111.748 143.269 111.79 142.999C111.852 142.728 111.884 142.446 111.884 142.155C111.905 141.863 111.925 141.571 111.946 141.28C111.967 140.988 112.05 140.707 112.196 140.436C112.196 140.228 112.123 140.082 111.977 139.999L112.352 139.499C112.477 139.332 112.623 139.196 112.79 139.092L112.852 139.092C113.082 139.092 113.28 139.155 113.446 139.28C113.634 139.384 113.8 139.509 113.946 139.655C114.113 139.78 114.28 139.915 114.446 140.061C114.613 140.186 114.8 140.28 115.009 140.342L115.009 141.03C115.217 141.113 115.373 141.259 115.477 141.467C115.457 142.03 115.436 142.592 115.415 143.155C115.415 143.717 115.415 144.269 115.415 144.811C115.415 145.644 115.436 146.478 115.477 147.311C115.519 148.124 115.623 148.936 115.79 149.749C116.019 149.978 116.248 150.207 116.477 150.436C116.727 150.665 116.915 150.926 117.04 151.217L117.415 151.217C118.144 151.217 118.707 150.988 119.102 150.53C119.498 150.051 119.78 149.499 119.946 148.874C120.259 148.728 120.488 148.53 120.634 148.28C120.8 148.009 120.925 147.717 121.009 147.405C121.113 147.092 121.196 146.78 121.259 146.467C121.342 146.134 121.467 145.842 121.634 145.592C121.655 145.342 121.665 145.092 121.665 144.842L121.665 144.061C121.665 142.853 121.602 141.655 121.477 140.467C121.373 139.259 121.311 138.061 121.29 136.874C121.207 136.707 121.144 136.509 121.102 136.28L121.009 135.592C120.988 135.363 120.936 135.155 120.852 134.967C120.79 134.759 120.686 134.613 120.54 134.53C120.602 134.321 120.634 134.071 120.634 133.78C120.634 133.509 120.602 133.238 120.54 132.967C120.498 132.696 120.446 132.426 120.384 132.155C120.55 132.009 120.686 131.863 120.79 131.717C120.894 131.571 121.071 131.499 121.321 131.499C121.467 131.499 121.592 131.54 121.696 131.624C121.821 131.707 121.936 131.801 122.04 131.905C122.144 132.009 122.248 132.103 122.352 132.186C122.477 132.269 122.623 132.311 122.79 132.311C122.832 132.311 122.873 132.311 122.915 132.311C122.977 132.29 123.04 132.28 123.102 132.28C123.311 132.488 123.477 132.749 123.602 133.061C123.748 133.374 123.873 133.707 123.977 134.061C124.102 134.394 124.227 134.728 124.352 135.061C124.498 135.394 124.675 135.696 124.884 135.967C124.884 136.03 124.873 136.092 124.852 136.155C124.852 136.196 124.852 136.249 124.852 136.311C124.852 136.499 124.884 136.686 124.946 136.874C125.009 137.061 125.061 137.249 125.102 137.436ZM133.852 153.124C133.748 153.29 133.623 153.446 133.477 153.592C133.332 153.717 133.196 153.853 133.071 153.999C132.925 154.061 132.759 154.092 132.571 154.092C132.405 154.092 132.238 154.092 132.071 154.092C131.925 154.071 131.78 154.071 131.634 154.092C131.509 154.092 131.405 154.134 131.321 154.217C131.155 154.176 131.03 154.103 130.946 153.999C130.863 153.874 130.717 153.801 130.509 153.78C130.425 153.759 130.342 153.759 130.259 153.78C129.946 153.426 129.655 153.051 129.384 152.655C129.134 152.259 128.894 151.884 128.665 151.53C128.644 150.759 128.582 149.978 128.477 149.186C128.457 148.999 128.425 148.811 128.384 148.624C128.342 148.436 128.311 148.259 128.29 148.092C128.29 147.884 128.3 147.686 128.321 147.499C128.363 147.29 128.394 147.103 128.415 146.936C128.498 146.332 128.592 145.738 128.696 145.155C128.8 144.571 128.894 143.978 128.977 143.374C129.061 142.832 129.102 142.269 129.102 141.686C129.102 141.082 129.009 140.519 128.821 139.999L128.79 139.842C128.832 139.676 128.873 139.54 128.915 139.436C128.977 139.311 129.019 139.176 129.04 139.03C129.082 138.801 129.03 138.634 128.884 138.53C128.946 138.363 129.05 138.259 129.196 138.217C129.342 138.155 129.425 138.03 129.446 137.842C129.467 137.759 129.467 137.676 129.446 137.592C129.613 137.53 129.78 137.478 129.946 137.436C130.134 137.374 130.311 137.363 130.477 137.405C130.748 137.446 130.988 137.54 131.196 137.686C131.405 137.811 131.602 137.957 131.79 138.124C132.123 139.124 132.259 140.186 132.196 141.311C132.134 142.415 132.03 143.53 131.884 144.655C131.738 145.78 131.644 146.884 131.602 147.967C131.561 149.03 131.727 150.019 132.102 150.936L132.165 150.967C132.269 150.988 132.352 150.957 132.415 150.874C132.477 150.769 132.561 150.728 132.665 150.749C132.748 150.79 132.8 150.811 132.821 150.811C132.905 151.228 133.04 151.624 133.227 151.999C133.415 152.374 133.623 152.749 133.852 153.124ZM157.384 136.874C157.342 137.124 157.28 137.342 157.196 137.53C157.134 137.696 157.123 137.926 157.165 138.217C156.957 138.238 156.79 138.311 156.665 138.436C156.561 138.54 156.467 138.665 156.384 138.811C156.321 138.957 156.248 139.113 156.165 139.28C156.102 139.426 156.019 139.561 155.915 139.686C156.082 140.436 156.175 141.196 156.196 141.967C156.217 142.738 156.269 143.499 156.352 144.249C156.457 145.207 156.613 146.155 156.821 147.092C157.05 148.009 157.165 148.946 157.165 149.905C157.165 150.196 157.155 150.467 157.134 150.717C157.134 150.967 157.134 151.228 157.134 151.499C157.134 151.665 157.134 151.842 157.134 152.03C157.155 152.196 157.165 152.363 157.165 152.53C157.165 153.134 157.082 153.738 156.915 154.342C156.769 154.946 156.655 155.551 156.571 156.155C156.321 156.384 156.102 156.634 155.915 156.905C155.748 157.176 155.571 157.426 155.384 157.655C155.196 157.884 154.977 158.082 154.727 158.249C154.477 158.436 154.165 158.561 153.79 158.624C153.727 158.832 153.602 158.988 153.415 159.092C153.248 159.196 153.102 159.342 152.977 159.53L152.915 159.53C152.394 159.53 151.946 159.457 151.571 159.311C151.196 159.165 150.842 158.999 150.509 158.811C150.196 158.624 149.873 158.426 149.54 158.217C149.207 158.009 148.821 157.842 148.384 157.717C147.8 157.238 147.269 156.717 146.79 156.155C146.311 155.571 145.769 155.051 145.165 154.592C145.019 154.176 144.821 153.832 144.571 153.561C144.342 153.29 144.113 152.978 143.884 152.624C143.78 152.478 143.696 152.342 143.634 152.217C143.592 152.092 143.53 151.946 143.446 151.78C143.384 151.613 143.28 151.499 143.134 151.436C143.009 151.374 142.894 151.301 142.79 151.217C142.623 150.571 142.384 149.978 142.071 149.436C141.759 148.894 141.394 148.374 140.977 147.874C140.852 148.103 140.748 148.353 140.665 148.624C140.602 148.874 140.54 149.134 140.477 149.405C140.415 149.655 140.332 149.915 140.227 150.186C140.144 150.436 140.03 150.665 139.884 150.874L139.884 150.967C139.884 151.071 139.925 151.134 140.009 151.155C140.092 151.176 140.134 151.238 140.134 151.342C140.134 151.363 140.123 151.384 140.102 151.405C140.102 151.426 140.102 151.446 140.102 151.467C139.998 151.551 139.915 151.655 139.852 151.78C139.811 151.905 139.707 151.978 139.54 151.999C139.561 152.103 139.571 152.207 139.571 152.311L139.571 152.592C139.571 153.196 139.498 153.801 139.352 154.405C139.227 155.009 139.165 155.624 139.165 156.249L139.165 156.655C139.165 156.801 139.175 156.936 139.196 157.061C139.238 157.186 139.3 157.311 139.384 157.436C139.467 157.561 139.509 157.676 139.509 157.78C139.509 157.926 139.446 158.061 139.321 158.186C139.467 158.29 139.634 158.405 139.821 158.53C140.009 158.655 140.175 158.79 140.321 158.936C140.488 159.103 140.623 159.269 140.727 159.436C140.832 159.624 140.884 159.821 140.884 160.03C140.884 160.384 140.769 160.634 140.54 160.78C140.311 160.926 140.03 161.04 139.696 161.124C139.384 161.207 139.05 161.28 138.696 161.342C138.363 161.426 138.082 161.561 137.852 161.749L137.759 161.749C137.509 161.749 137.321 161.676 137.196 161.53C137.071 161.384 136.884 161.311 136.634 161.311C136.238 160.665 135.967 159.936 135.821 159.124C135.675 158.332 135.602 157.571 135.602 156.842C135.602 155.946 135.686 155.051 135.852 154.155C135.998 153.259 136.186 152.374 136.415 151.499C136.623 150.624 136.852 149.759 137.102 148.905C137.373 148.03 137.623 147.155 137.852 146.28L137.884 146.186C137.884 146.082 137.852 146.009 137.79 145.967C137.748 145.926 137.727 145.863 137.727 145.78C137.727 145.738 137.738 145.717 137.759 145.717C137.821 145.509 137.884 145.311 137.946 145.124C138.03 144.936 138.092 144.728 138.134 144.499C138.259 143.915 138.342 143.321 138.384 142.717C138.446 142.092 138.477 141.478 138.477 140.874C138.498 140.269 138.519 139.665 138.54 139.061C138.582 138.436 138.655 137.821 138.759 137.217C138.925 137.051 139.082 136.874 139.227 136.686C139.373 136.499 139.561 136.332 139.79 136.186C140.207 136.207 140.623 136.269 141.04 136.374C141.457 136.478 141.852 136.644 142.227 136.874C142.477 137.769 142.644 138.665 142.727 139.561C142.832 140.457 142.998 141.353 143.227 142.249L143.227 142.342C143.227 142.446 143.28 142.499 143.384 142.499C143.509 142.478 143.602 142.509 143.665 142.592C143.623 142.655 143.592 142.728 143.571 142.811C143.571 142.894 143.571 142.978 143.571 143.061L143.571 143.592C143.613 143.759 143.665 143.936 143.727 144.124C143.79 144.311 143.925 144.426 144.134 144.467C144.238 145.134 144.394 145.749 144.602 146.311C144.811 146.874 145.05 147.415 145.321 147.936C145.592 148.457 145.884 148.978 146.196 149.499C146.509 149.999 146.832 150.53 147.165 151.092C147.686 151.488 148.134 151.946 148.509 152.467C148.884 152.967 149.259 153.457 149.634 153.936C150.03 154.394 150.467 154.801 150.946 155.155C151.446 155.509 152.092 155.728 152.884 155.811C152.988 155.728 153.061 155.613 153.102 155.467L153.259 155.03C153.321 154.884 153.384 154.759 153.446 154.655C153.53 154.53 153.644 154.436 153.79 154.374C153.832 153.79 153.873 153.196 153.915 152.592C153.977 151.988 154.113 151.415 154.321 150.874C154.217 150.686 154.165 150.457 154.165 150.186C154.165 149.978 154.175 149.78 154.196 149.592C154.238 149.405 154.259 149.217 154.259 149.03C154.259 148.634 154.175 148.311 154.009 148.061C154.009 147.915 154.019 147.769 154.04 147.624C154.061 147.457 154.123 147.301 154.227 147.155C154.061 146.738 153.925 146.301 153.821 145.842C153.738 145.384 153.696 144.915 153.696 144.436C153.696 144.165 153.727 143.884 153.79 143.592C153.665 143.28 153.582 142.915 153.54 142.499L153.415 141.217C153.373 140.78 153.311 140.374 153.227 139.999C153.144 139.624 152.988 139.321 152.759 139.092C152.884 138.905 152.946 138.686 152.946 138.436C152.946 138.019 152.884 137.624 152.759 137.249C152.634 136.874 152.571 136.478 152.571 136.061C152.571 135.769 152.634 135.478 152.759 135.186C153.217 135.207 153.665 135.259 154.102 135.342C154.561 135.405 155.009 135.436 155.446 135.436C155.571 135.603 155.717 135.738 155.884 135.842C156.05 135.946 156.227 136.051 156.415 136.155C156.602 136.238 156.78 136.332 156.946 136.436C157.134 136.54 157.28 136.686 157.384 136.874ZM180.29 137.53L180.29 137.655C180.144 137.696 180.071 137.801 180.071 137.967C179.842 138.071 179.602 138.155 179.352 138.217C179.102 138.259 178.863 138.332 178.634 138.436C178.405 138.415 178.165 138.405 177.915 138.405C177.686 138.384 177.457 138.374 177.227 138.374C176.602 138.374 175.977 138.394 175.352 138.436C174.727 138.478 174.102 138.478 173.477 138.436C173.186 138.603 172.863 138.738 172.509 138.842C172.175 138.926 171.852 138.967 171.54 138.967C171.29 138.967 171.071 138.936 170.884 138.874C170.384 139.124 169.832 139.332 169.227 139.499C168.644 139.665 168.05 139.832 167.446 139.999C166.842 140.144 166.259 140.321 165.696 140.53C165.155 140.717 164.675 140.988 164.259 141.342C164.217 141.634 164.186 141.926 164.165 142.217C164.144 142.488 164.134 142.759 164.134 143.03C164.134 143.321 164.144 143.592 164.165 143.842C164.207 144.092 164.28 144.342 164.384 144.592C164.488 144.634 164.602 144.665 164.727 144.686C164.873 144.707 164.998 144.717 165.102 144.717C165.207 144.717 165.311 144.707 165.415 144.686C165.519 144.644 165.592 144.571 165.634 144.467C165.946 144.426 166.259 144.415 166.571 144.436C166.884 144.436 167.196 144.436 167.509 144.436C167.821 144.436 168.123 144.426 168.415 144.405C168.727 144.384 169.03 144.332 169.321 144.249C169.655 144.165 169.977 144.113 170.29 144.092C170.623 144.071 170.946 144.051 171.259 144.03C171.571 144.009 171.894 143.978 172.227 143.936C172.561 143.874 172.905 143.759 173.259 143.592C173.53 143.696 173.8 143.749 174.071 143.749C174.363 143.749 174.644 143.769 174.915 143.811C175.061 143.915 175.175 144.03 175.259 144.155C175.363 144.28 175.415 144.426 175.415 144.592C175.415 144.884 175.311 145.176 175.102 145.467C174.894 145.759 174.727 146.03 174.602 146.28L174.259 146.28C173.759 146.28 173.269 146.353 172.79 146.499C172.332 146.624 171.863 146.78 171.384 146.967C170.925 147.134 170.457 147.29 169.977 147.436C169.519 147.561 169.04 147.624 168.54 147.624C168.457 147.624 168.405 147.676 168.384 147.78C168.384 147.863 168.363 147.926 168.321 147.967C168.217 147.946 168.061 147.936 167.852 147.936C167.373 147.936 166.915 147.988 166.477 148.092C166.04 148.196 165.592 148.249 165.134 148.249C165.009 148.249 164.884 148.249 164.759 148.249C164.634 148.228 164.509 148.207 164.384 148.186C164.28 148.353 164.144 148.467 163.977 148.53C163.811 148.571 163.655 148.655 163.509 148.78C163.446 148.967 163.405 149.196 163.384 149.467C163.384 149.738 163.373 150.019 163.352 150.311C163.352 150.582 163.332 150.842 163.29 151.092C163.248 151.342 163.165 151.54 163.04 151.686C163.061 151.79 163.144 151.832 163.29 151.811C163.436 151.769 163.509 151.832 163.509 151.999C163.509 152.186 163.488 152.384 163.446 152.592C163.405 152.801 163.384 153.009 163.384 153.217C163.384 153.613 163.425 154.051 163.509 154.53C163.613 154.988 163.759 155.415 163.946 155.811C164.155 156.207 164.425 156.54 164.759 156.811C165.092 157.061 165.509 157.186 166.009 157.186C166.342 157.186 166.655 157.124 166.946 156.999C167.238 156.874 167.477 156.665 167.665 156.374L167.821 156.342C167.905 156.342 167.977 156.353 168.04 156.374C168.123 156.394 168.207 156.405 168.29 156.405C168.415 156.405 168.571 156.332 168.759 156.186C168.967 156.019 169.186 155.832 169.415 155.624C169.665 155.415 169.915 155.217 170.165 155.03C170.415 154.821 170.655 154.676 170.884 154.592C171.03 154.301 171.165 154.009 171.29 153.717C171.436 153.426 171.644 153.196 171.915 153.03L171.915 152.124C172.123 151.894 172.342 151.686 172.571 151.499C172.821 151.311 173.009 151.071 173.134 150.78C173.238 150.821 173.332 150.853 173.415 150.874C173.519 150.894 173.623 150.905 173.727 150.905C173.832 150.905 173.936 150.894 174.04 150.874C174.165 150.853 174.28 150.821 174.384 150.78C174.55 151.009 174.675 151.269 174.759 151.561C174.863 151.832 174.988 152.092 175.134 152.342C174.946 152.717 174.727 153.165 174.477 153.686C174.227 154.207 173.957 154.728 173.665 155.249C173.373 155.769 173.061 156.269 172.727 156.749C172.415 157.207 172.102 157.561 171.79 157.811C171.727 157.874 171.592 157.946 171.384 158.03C171.155 158.196 170.946 158.353 170.759 158.499C170.571 158.665 170.394 158.853 170.227 159.061C169.623 159.249 169.04 159.499 168.477 159.811C167.936 160.124 167.394 160.426 166.852 160.717C166.602 160.655 166.332 160.624 166.04 160.624C165.79 160.624 165.54 160.634 165.29 160.655C165.04 160.696 164.769 160.717 164.477 160.717C164.394 160.613 164.269 160.54 164.102 160.499C163.957 160.478 163.905 160.374 163.946 160.186C163.238 160.144 162.665 159.946 162.227 159.592C161.79 159.259 161.415 158.842 161.102 158.342C160.811 157.842 160.571 157.301 160.384 156.717C160.196 156.134 159.998 155.571 159.79 155.03L159.79 154.936C159.79 154.832 159.832 154.769 159.915 154.749C159.998 154.728 160.04 154.665 160.04 154.561C160.04 154.519 160.03 154.488 160.009 154.467C159.946 154.238 159.894 154.04 159.852 153.874C159.811 153.707 159.79 153.509 159.79 153.28C159.79 152.946 159.811 152.624 159.852 152.311C159.894 151.978 159.915 151.644 159.915 151.311C159.915 150.978 159.873 150.686 159.79 150.436C159.873 150.332 159.946 150.196 160.009 150.03C160.05 149.842 160.082 149.655 160.102 149.467C160.123 149.28 160.134 149.092 160.134 148.905C160.155 148.717 160.186 148.551 160.227 148.405C160.144 148.176 160.071 147.978 160.009 147.811C159.946 147.624 159.915 147.405 159.915 147.155L159.915 146.936C160.123 146.582 160.3 146.217 160.446 145.842C160.592 145.467 160.748 145.082 160.915 144.686L160.915 144.592C160.915 143.988 160.894 143.384 160.852 142.78C160.811 142.176 160.79 141.571 160.79 140.967L160.79 140.374C160.79 140.165 160.8 139.967 160.821 139.78C160.988 139.696 161.113 139.582 161.196 139.436C161.28 139.29 161.405 139.176 161.571 139.092L162.602 139.092L162.79 138.78C162.852 138.676 162.894 138.561 162.915 138.436C163.144 138.374 163.363 138.29 163.571 138.186C163.8 138.061 164.009 137.936 164.196 137.811C164.488 137.644 164.748 137.499 164.977 137.374C165.227 137.228 165.467 137.113 165.696 137.03C165.946 136.926 166.207 136.842 166.477 136.78C166.748 136.717 167.061 136.665 167.415 136.624C167.582 136.624 167.686 136.592 167.727 136.53C167.79 136.467 167.873 136.394 167.977 136.311C168.227 136.353 168.477 136.394 168.727 136.436C168.977 136.457 169.227 136.467 169.477 136.467C169.977 136.467 170.446 136.374 170.884 136.186C171.509 136.186 172.123 136.176 172.727 136.155C173.352 136.134 173.977 136.124 174.602 136.124C175.144 136.124 175.686 136.144 176.227 136.186C176.769 136.228 177.3 136.301 177.821 136.405C178.009 136.342 178.217 136.311 178.446 136.311C178.696 136.311 178.946 136.342 179.196 136.405C179.467 136.446 179.727 136.446 179.977 136.405C179.998 136.634 180.05 136.832 180.134 136.999C180.238 137.144 180.29 137.321 180.29 137.53ZM199.79 141.999C199.79 142.207 199.717 142.342 199.571 142.405C199.425 142.467 199.352 142.592 199.352 142.78C199.352 142.842 199.373 142.894 199.415 142.936C199.457 142.978 199.477 143.04 199.477 143.124L199.477 143.249C199.227 144.457 198.863 145.509 198.384 146.405C197.925 147.301 197.384 148.124 196.759 148.874C196.134 149.624 195.425 150.332 194.634 150.999C193.863 151.665 193.03 152.363 192.134 153.092C191.884 153.301 191.623 153.509 191.352 153.717C191.102 153.926 190.863 154.144 190.634 154.374L189.946 155.03C189.925 155.051 189.811 155.103 189.602 155.186C189.394 155.249 189.269 155.29 189.227 155.311C188.936 155.436 188.623 155.582 188.29 155.749C187.977 155.915 187.707 156.124 187.477 156.374C187.061 156.374 186.707 156.436 186.415 156.561C186.123 156.686 185.8 156.853 185.446 157.061C185.342 157.061 185.248 157.04 185.165 156.999C185.102 156.957 185.03 156.915 184.946 156.874C184.863 156.832 184.769 156.811 184.665 156.811C184.582 156.79 184.467 156.801 184.321 156.842C184.071 156.426 183.8 156.071 183.509 155.78C183.217 155.488 182.821 155.311 182.321 155.249C182.259 154.894 182.113 154.624 181.884 154.436C181.655 154.228 181.425 154.009 181.196 153.78C181.155 153.655 181.123 153.509 181.102 153.342C181.082 153.176 181.04 153.019 180.977 152.874C180.915 152.728 180.832 152.603 180.727 152.499C180.623 152.394 180.477 152.342 180.29 152.342C180.269 152.217 180.321 152.155 180.446 152.155C180.571 152.155 180.634 152.103 180.634 151.999C180.634 151.874 180.613 151.749 180.571 151.624C180.53 151.499 180.509 151.363 180.509 151.217C180.509 151.113 180.519 151.019 180.54 150.936C180.561 150.853 180.592 150.759 180.634 150.655C180.571 150.092 180.54 149.519 180.54 148.936C180.54 147.811 180.613 146.707 180.759 145.624C180.925 144.519 181.009 143.405 181.009 142.28C181.009 141.78 180.977 141.28 180.915 140.78C180.873 140.28 180.78 139.79 180.634 139.311C180.155 139.415 179.675 139.54 179.196 139.686C178.717 139.811 178.269 139.988 177.852 140.217C177.623 140.071 177.384 139.988 177.134 139.967C176.863 139.926 176.602 139.863 176.352 139.78C176.207 139.488 176.134 139.186 176.134 138.874C176.134 138.582 176.186 138.301 176.29 138.03L176.602 137.217C177.102 137.113 177.602 136.957 178.102 136.749C178.582 136.54 179.071 136.353 179.571 136.186C179.738 136.144 179.946 136.092 180.196 136.03C180.467 135.967 180.655 135.915 180.759 135.874C180.905 135.811 180.998 135.696 181.04 135.53C181.102 135.342 181.186 135.186 181.29 135.061L181.821 135.061C181.946 135.061 182.082 135.071 182.227 135.092C182.373 135.092 182.509 135.124 182.634 135.186C183.384 134.999 184.134 134.884 184.884 134.842C185.634 134.78 186.405 134.696 187.196 134.592C187.28 134.592 187.405 134.582 187.571 134.561L188.102 134.467C188.29 134.426 188.457 134.394 188.602 134.374C188.769 134.332 188.884 134.311 188.946 134.311C189.009 134.311 189.04 134.342 189.04 134.405L189.571 134.405C190.467 134.405 191.342 134.519 192.196 134.749L194.759 135.436C195.113 135.728 195.467 136.009 195.821 136.28C196.175 136.551 196.571 136.79 197.009 136.999C197.113 137.332 197.269 137.603 197.477 137.811C197.707 137.999 197.957 138.207 198.227 138.436C198.332 138.707 198.467 138.999 198.634 139.311C198.821 139.603 198.998 139.905 199.165 140.217C199.332 140.53 199.477 140.842 199.602 141.155C199.727 141.446 199.79 141.728 199.79 141.999ZM196.884 142.467C196.655 141.988 196.436 141.488 196.227 140.967C196.019 140.446 195.759 139.978 195.446 139.561C195.071 139.457 194.686 139.332 194.29 139.186C193.915 139.019 193.655 138.738 193.509 138.342C193.467 138.363 193.394 138.374 193.29 138.374C193.102 138.374 192.936 138.301 192.79 138.155C192.644 138.009 192.477 137.915 192.29 137.874C192.123 137.853 191.894 137.821 191.602 137.78C191.332 137.738 191.04 137.707 190.727 137.686C190.415 137.665 190.102 137.644 189.79 137.624C189.498 137.603 189.269 137.592 189.102 137.592C188.936 137.592 188.759 137.603 188.571 137.624C188.405 137.624 188.227 137.634 188.04 137.655C187.873 137.655 187.769 137.686 187.727 137.749C187.686 137.79 187.602 137.832 187.477 137.874C187.373 137.832 187.259 137.811 187.134 137.811L186.759 137.811C186.321 137.811 185.884 137.884 185.446 138.03C185.03 138.155 184.613 138.332 184.196 138.561L184.196 138.686C184.196 138.853 184.269 138.946 184.415 138.967C184.561 138.988 184.644 139.071 184.665 139.217C184.561 139.217 184.477 139.228 184.415 139.249C184.352 139.249 184.321 139.321 184.321 139.467C184.321 139.676 184.342 139.905 184.384 140.155C184.446 140.405 184.477 140.655 184.477 140.905C184.477 141.092 184.457 141.311 184.415 141.561C184.373 141.811 184.269 142.009 184.102 142.155C184.311 142.342 184.415 142.592 184.415 142.905C184.415 143.113 184.373 143.332 184.29 143.561C184.207 143.79 184.102 143.988 183.977 144.155C183.936 145.03 183.852 145.915 183.727 146.811C183.602 147.707 183.54 148.592 183.54 149.467C183.54 149.905 183.561 150.332 183.602 150.749C183.665 151.165 183.759 151.582 183.884 151.999C184.113 152.228 184.352 152.405 184.602 152.53C184.873 152.655 185.155 152.78 185.446 152.905L185.446 152.999C185.446 153.061 185.405 153.124 185.321 153.186C185.238 153.249 185.196 153.332 185.196 153.436C185.196 153.519 185.238 153.561 185.321 153.561C186.196 153.311 187.019 153.009 187.79 152.655C188.561 152.301 189.28 151.821 189.946 151.217C190.009 151.155 190.071 151.124 190.134 151.124C190.175 151.124 190.227 151.134 190.29 151.155C190.373 151.176 190.446 151.196 190.509 151.217L190.477 151.092C190.477 150.967 190.509 150.853 190.571 150.749C190.655 150.644 190.748 150.551 190.852 150.467L191.165 150.186C191.269 150.082 191.352 149.978 191.415 149.874C191.582 149.832 191.696 149.749 191.759 149.624C191.842 149.499 191.977 149.436 192.165 149.436C192.207 149.207 192.321 149.04 192.509 148.936C192.696 148.811 192.811 148.634 192.852 148.405C193.269 148.176 193.634 147.894 193.946 147.561C194.28 147.228 194.582 146.874 194.852 146.499C195.144 146.124 195.415 145.738 195.665 145.342C195.915 144.926 196.175 144.53 196.446 144.155L196.446 144.03C196.446 143.696 196.498 143.426 196.602 143.217C196.727 143.009 196.821 142.759 196.884 142.467Z" fill="white"/>
</g>
</g>
<defs>
<filter id="filter0_d" x="25.9999" y="27.9999" width="190" height="190" filterUnits="userSpaceOnUse" color-interpolation-filters="sRGB">
<feFlood flood-opacity="0" result="BackgroundImageFix"/>
<feColorMatrix in="SourceAlpha" type="matrix" values="0 0 0 0 0 0 0 0 0 0 0 0 0 0 0 0 0 0 127 0" result="hardAlpha"/>
<feOffset dy="2"/>
<feGaussianBlur stdDeviation="2.5"/>
<feColorMatrix type="matrix" values="0 0 0 0 0 0 0 0 0 0 0 0 0 0 0 0 0 0 0.25 0"/>
<feBlend mode="normal" in2="BackgroundImageFix" result="effect1_dropShadow"/>
<feBlend mode="normal" in="SourceGraphic" in2="effect1_dropShadow" result="shape"/>
</filter>
<filter id="filter1_d" x="57.8601" y="63.467" width="127.948" height="62.0631" filterUnits="userSpaceOnUse" color-interpolation-filters="sRGB">
<feFlood flood-opacity="0" result="BackgroundImageFix"/>
<feColorMatrix in="SourceAlpha" type="matrix" values="0 0 0 0 0 0 0 0 0 0 0 0 0 0 0 0 0 0 127 0" result="hardAlpha"/>
<feOffset dy="4"/>
<feGaussianBlur stdDeviation="2"/>
<feColorMatrix type="matrix" values="0 0 0 0 0 0 0 0 0 0 0 0 0 0 0 0 0 0 0.35 0"/>
<feBlend mode="normal" in2="BackgroundImageFix" result="effect1_dropShadow"/>
<feBlend mode="normal" in="SourceGraphic" in2="effect1_dropShadow" result="shape"/>
</filter>
<filter id="filter2_d" x="44.8524" y="121.999" width="158.938" height="48.8125" filterUnits="userSpaceOnUse" color-interpolation-filters="sRGB">
<feFlood flood-opacity="0" result="BackgroundImageFix"/>
<feColorMatrix in="SourceAlpha" type="matrix" values="0 0 0 0 0 0 0 0 0 0 0 0 0 0 0 0 0 0 127 0" result="hardAlpha"/>
<feOffset dy="4"/>
<feGaussianBlur stdDeviation="2"/>
<feColorMatrix type="matrix" values="0 0 0 0 0 0 0 0 0 0 0 0 0 0 0 0 0 0 0.35 0"/>
<feBlend mode="normal" in2="BackgroundImageFix" result="effect1_dropShadow"/>
<feBlend mode="normal" in="SourceGraphic" in2="effect1_dropShadow" result="shape"/>
</filter>
</defs>
</svg>
