<svg width="186" height="159" viewBox="0 0 186 159" fill="none" xmlns="http://www.w3.org/2000/svg">
<g id="Logo" filter="url(#filter0_d)">
<g id="wine">
<path d="M146.946 26.4049C146.892 31.8098 150.946 46.4049 150.946 46.4049L83.4462 58.4049L73.9462 56.4049L66.4462 49.9049L38.9462 54.4049C38.9462 54.4049 36.5 56.4049 35.4462 58.4049C34.3923 60.4049 37.9462 60.3098 33.4462 63.4049C28.9462 66.5 37 79.5 33.4462 82.9049C29.8923 86.3098 35.4462 98.5 33.4462 99.9049L33.4462 102.405L28.9462 106.905L26.9462 108.405L24.9462 106.905L24.9462 99.9049L31.4462 99.9049L33.4462 99.9049C35.4462 98.5 29.8923 86.3098 33.4462 82.9049C37 79.5 28.9462 66.5 33.4462 63.4049C37.9462 60.3098 34.3923 60.4049 35.4462 58.4049C36.5 56.4049 38.9462 54.4049 38.9462 54.4049C38.9462 54.4049 48 49.9049 51.4462 49.9049C54.8923 49.9049 60.4462 51.9049 63.4462 46.4049C66.4462 40.9049 74.9462 45.4049 74.9462 45.4049C74.9462 45.4049 81.3923 45.9049 83.4462 43.4049C85.5 40.9049 90.9462 43.4049 90.9462 43.4049L92.9462 43.4049L93.9462 40.9049L121.446 35.9049L123.946 38.4049L127.946 38.4049C127.946 38.4049 129 33 135 32.5C141 32 141.446 30.9049 141.446 30.9049C141.446 30.9049 147 21 146.946 26.4049Z" fill="black"/>
<path d="M38.9462 54.4049L66.4462 49.9049L73.9462 56.4049L83.4462 58.4049L150.946 46.4049C150.946 46.4049 146.892 31.8098 146.946 26.4049C147 21 141.446 30.9049 141.446 30.9049C141.446 30.9049 141 32 135 32.5C129 33 127.946 38.4049 127.946 38.4049L123.946 38.4049L121.446 35.9049L93.9462 40.9049L92.9462 43.4049L90.9462 43.4049C90.9462 43.4049 85.5 40.9049 83.4462 43.4049C81.3923 45.9049 74.9462 45.4049 74.9462 45.4049C74.9462 45.4049 66.4462 40.9049 63.4462 46.4049C60.4462 51.9049 54.8923 49.9049 51.4462 49.9049C48 49.9049 38.9462 54.4049 38.9462 54.4049ZM38.9462 54.4049C38.9462 54.4049 36.5 56.4049 35.4462 58.4049C34.3923 60.4049 37.9462 60.3098 33.4462 63.4049C28.9462 66.5 37 79.5 33.4462 82.9049C29.8923 86.3098 35.4462 98.5 33.4462 99.9049M33.4462 99.9049L33.4462 102.405L28.9462 106.905L26.9462 108.405L24.9462 106.905L24.9462 99.9049L31.4462 99.9049L33.4462 99.9049Z" stroke="black"/>
</g>
<path id="label" d="M96.2876 49.0996L93.7036 56.0962L124.494 50.667L124.934 44.0485L123.852 37.9094L121.824 35.524L93.5668 40.5064L95.2052 42.9605L96.2876 49.0996Z" stroke="white" stroke-width="3"/>
<path id="bottle" d="M145.317 14.9237L150.245 42.8699L150.874 46.4375L82.6892 58.4603C82.6892 58.4603 77.1325 58.4603 73.5371 56.3955C69.9417 54.3308 66.6592 49.6381 66.6592 49.6381L38.5832 54.5887L36.8009 44.4805L64.8769 39.5299C64.8769 39.5299 66.7673 34.8446 69.1336 31.4223C71.5 28 77.1325 26.9464 77.1325 26.9464L145.317 14.9237Z" stroke="white" stroke-width="3"/>
<path id="Unwined" d="M45.4462 111.124C45.4462 111.374 45.3732 111.582 45.2274 111.749C45.0816 111.936 44.9045 112.082 44.6962 112.186C44.4878 112.311 44.2691 112.415 44.0399 112.499C43.8107 112.603 43.6128 112.707 43.4462 112.811C42.967 112.707 42.467 112.613 41.9462 112.53C41.4253 112.467 40.9566 112.332 40.5399 112.124C39.6857 111.186 39.0816 110.103 38.7274 108.874C38.3941 107.665 38.1753 106.457 38.0712 105.249C38.0295 104.894 38.0087 104.551 38.0087 104.217C38.0087 103.863 37.9878 103.509 37.9462 103.155C37.9045 102.842 37.717 102.655 37.3837 102.592C37.6337 102.551 37.8107 102.426 37.9149 102.217C38.0191 101.988 38.0816 101.738 38.1024 101.467C38.1232 101.176 38.1232 100.894 38.1024 100.624C38.1024 100.332 38.1232 100.092 38.1649 99.9049C37.9982 99.9674 37.8524 100.113 37.7274 100.342C37.6024 100.551 37.4878 100.79 37.3837 101.061C37.2795 101.332 37.1753 101.603 37.0712 101.874C36.9878 102.124 36.9045 102.322 36.8212 102.467C35.9462 103.967 34.9253 105.332 33.7587 106.561C32.6128 107.79 31.4253 109.009 30.1962 110.217C29.842 110.342 29.5087 110.499 29.1962 110.686C28.8837 110.894 28.592 111.113 28.3212 111.342C27.5295 111.572 26.7795 111.686 26.0712 111.686C25.4253 111.686 24.7899 111.592 24.1649 111.405C23.5399 111.238 22.9774 110.947 22.4774 110.53L21.3212 107.905C21.2587 107.738 21.1857 107.572 21.1024 107.405C21.0191 107.217 20.9566 107.04 20.9149 106.874C20.8732 106.686 20.8524 106.488 20.8524 106.28C20.8732 106.051 20.8837 105.853 20.8837 105.686C20.8837 104.957 20.9045 104.228 20.9462 103.499C21.0087 102.749 21.092 102.009 21.1962 101.28C21.2378 100.988 21.3003 100.686 21.3837 100.374C21.467 100.061 21.5295 99.759 21.5712 99.4674L21.5712 99.1236C21.5712 99.0195 21.5607 98.8945 21.5399 98.7486C21.5191 98.582 21.4566 98.4778 21.3524 98.4361C21.8524 97.2278 22.1024 95.9674 22.1024 94.6549C22.1024 94.4465 22.092 94.2486 22.0712 94.0611C22.0712 93.8528 22.0607 93.6445 22.0399 93.4361C22.1857 93.2903 22.2795 93.1236 22.3212 92.9361C22.3628 92.7278 22.3837 92.5195 22.3837 92.3111C22.3837 92.082 22.3837 91.8632 22.3837 91.6549C22.4045 91.4465 22.467 91.2486 22.5712 91.0611C22.5503 90.832 22.5295 90.6132 22.5087 90.4049C22.5087 90.1757 22.5087 89.9465 22.5087 89.7174C22.5087 88.3215 22.6128 86.9465 22.8212 85.5924C23.0503 84.2174 23.1649 82.832 23.1649 81.4361L23.1649 80.1236C23.1649 79.832 23.1649 79.5299 23.1649 79.2174C23.1857 78.9049 23.2274 78.6028 23.2899 78.3111C23.3732 78.0195 23.4878 77.7486 23.6337 77.4986C23.7795 77.2278 23.9878 76.9986 24.2587 76.8111C24.3003 76.8111 24.3316 76.8111 24.3524 76.8111C24.3941 76.7903 24.4357 76.7799 24.4774 76.7799C24.6649 76.7799 24.8107 76.832 24.9149 76.9361C25.0191 77.0195 25.1753 77.0507 25.3837 77.0299C25.7587 77.5715 26.0503 78.1445 26.2587 78.7486C26.4878 79.3528 26.6024 79.9882 26.6024 80.6549C26.6024 81.1549 26.5295 81.6445 26.3837 82.1236C26.2378 82.6028 26.1649 83.1028 26.1649 83.6236C26.1649 83.832 26.1753 84.0403 26.1962 84.2486C26.217 84.457 26.2274 84.6653 26.2274 84.8736C26.2274 85.082 26.1962 85.2903 26.1337 85.4986C26.092 85.6861 25.9982 85.8528 25.8524 85.9986C25.8941 86.4153 25.9253 86.8424 25.9462 87.2799C25.967 87.6965 25.9774 88.1132 25.9774 88.5299C25.9774 89.7174 25.9045 90.9049 25.7587 92.0924C25.6128 93.2799 25.4462 94.4674 25.2587 95.6549C25.0712 96.8424 24.9045 98.0299 24.7587 99.2174C24.6128 100.405 24.5399 101.603 24.5399 102.811L24.5399 103.717C24.5399 104.009 24.5607 104.311 24.6024 104.624C24.4774 104.915 24.4149 105.228 24.4149 105.561C24.4149 106.019 24.5191 106.467 24.7274 106.905C24.9357 107.342 25.1857 107.738 25.4774 108.092C25.5816 108.113 25.6753 108.124 25.7587 108.124C25.8628 108.144 25.967 108.155 26.0712 108.155C26.6128 108.155 27.092 108.04 27.5087 107.811C27.9462 107.582 28.3524 107.301 28.7274 106.967C29.1232 106.634 29.5087 106.29 29.8837 105.936C30.2587 105.582 30.6649 105.29 31.1024 105.061C31.7691 104.207 32.3941 103.353 32.9774 102.499C33.5607 101.624 34.1232 100.717 34.6649 99.7799C34.7066 99.2799 34.8316 98.7799 35.0399 98.2799C35.2691 97.759 35.4982 97.2486 35.7274 96.7486C35.9774 96.2486 36.1962 95.759 36.3837 95.2799C36.592 94.8007 36.6962 94.3424 36.6962 93.9049C36.6962 93.6757 36.6232 93.5195 36.4774 93.4361C36.6857 92.8945 36.842 92.332 36.9462 91.7486C37.0503 91.1653 37.1337 90.582 37.1962 89.9986C37.2795 89.4153 37.3628 88.8424 37.4462 88.2799C37.5295 87.6965 37.6545 87.1236 37.8212 86.5611C37.8212 86.4361 37.8107 86.3111 37.7899 86.1861C37.7899 86.0611 37.7899 85.9361 37.7899 85.8111C37.7899 84.8528 37.8837 83.9153 38.0712 82.9986C38.2587 82.0611 38.3524 81.1132 38.3524 80.1549C38.3524 79.9257 38.3316 79.7174 38.2899 79.5299C38.2691 79.3215 38.2587 79.1236 38.2587 78.9361C38.2587 78.7695 38.3107 78.6653 38.4149 78.6236C38.5399 78.582 38.6024 78.4674 38.6024 78.2799C38.6024 78.1132 38.5816 77.9361 38.5399 77.7486C38.5191 77.5611 38.5087 77.3632 38.5087 77.1549C38.5087 76.509 38.5712 75.8736 38.6962 75.2486C38.8212 74.6236 38.8837 73.9882 38.8837 73.3424L38.8837 72.9674C38.8837 72.8215 38.8628 72.6861 38.8212 72.5611C38.967 72.332 39.1649 72.1861 39.4149 72.1236C39.6649 72.0403 39.9045 71.9986 40.1337 71.9986C40.5087 71.9986 40.8212 72.0403 41.0712 72.1236C41.467 73.1861 41.8003 74.2799 42.0712 75.4049C42.342 76.509 42.5607 77.634 42.7274 78.7799C42.7691 79.0507 42.8212 79.3424 42.8837 79.6549C42.967 79.9465 43.0087 80.2382 43.0087 80.5299C43.0087 80.5924 42.9878 80.6653 42.9462 80.7486C42.9253 80.832 42.9045 80.9153 42.8837 80.9986C42.8628 81.1653 42.842 81.332 42.8212 81.4986C42.8212 81.6653 42.8212 81.832 42.8212 81.9986C42.8212 82.4986 42.8524 82.9986 42.9149 83.4986C42.9774 83.9986 43.0087 84.509 43.0087 85.0299C43.0087 85.6132 42.9253 86.1757 42.7587 86.7174C42.6128 87.2382 42.4982 87.7903 42.4149 88.3736C42.3316 88.9778 42.3003 89.5715 42.3212 90.1549C42.342 90.7382 42.3003 91.332 42.1962 91.9361C42.1545 92.1861 42.092 92.4361 42.0087 92.6861C41.9253 92.9153 41.8837 93.1653 41.8837 93.4361C41.8837 93.6236 41.8941 93.8111 41.9149 93.9986C41.9566 94.1861 41.9774 94.384 41.9774 94.5924C41.9774 94.9049 41.9045 95.1445 41.7587 95.3111C41.8003 95.4778 41.8316 95.634 41.8524 95.7799C41.8732 95.9049 41.9149 96.0507 41.9774 96.2174C41.8732 96.3424 41.8003 96.4778 41.7587 96.6236C41.717 96.7695 41.6962 96.9257 41.6962 97.0924C41.6962 97.3007 41.7066 97.4986 41.7274 97.6861C41.7482 97.8528 41.7587 98.0299 41.7587 98.2174C41.7587 98.6549 41.6857 99.0715 41.5399 99.4674C41.4149 99.8632 41.3316 100.269 41.2899 100.686C41.2691 100.978 41.2587 101.269 41.2587 101.561C41.2795 101.832 41.2899 102.113 41.2899 102.405C41.2899 102.717 41.2691 103.019 41.2274 103.311C41.2066 103.603 41.1232 103.894 40.9774 104.186C41.0191 104.311 41.0712 104.436 41.1337 104.561C41.1962 104.686 41.2899 104.78 41.4149 104.842C41.4149 105.488 41.4982 106.144 41.6649 106.811C41.8524 107.457 42.1024 108.072 42.4149 108.655C42.4774 108.78 42.5712 108.874 42.6962 108.936C42.8212 108.999 42.9357 109.061 43.0399 109.124C43.1441 109.207 43.2274 109.301 43.2899 109.405C43.3524 109.509 43.3628 109.665 43.3212 109.874C43.3628 109.894 43.4253 109.905 43.5087 109.905C43.6753 109.905 43.8107 109.863 43.9149 109.78C44.0399 109.697 44.1857 109.655 44.3524 109.655L44.5712 109.655C44.7587 109.842 44.9462 110.061 45.1337 110.311C45.342 110.561 45.4462 110.832 45.4462 111.124ZM67.6962 86.8736C67.6545 87.1236 67.592 87.3424 67.5087 87.5299C67.4462 87.6965 67.4357 87.9257 67.4774 88.2174C67.2691 88.2382 67.1024 88.3111 66.9774 88.4361C66.8732 88.5403 66.7795 88.6653 66.6962 88.8111C66.6337 88.957 66.5607 89.1132 66.4774 89.2799C66.4149 89.4257 66.3316 89.5611 66.2274 89.6861C66.3941 90.4361 66.4878 91.1965 66.5087 91.9674C66.5295 92.7382 66.5816 93.4986 66.6649 94.2486C66.7691 95.207 66.9253 96.1549 67.1337 97.0924C67.3628 98.009 67.4774 98.9465 67.4774 99.9049C67.4774 100.197 67.467 100.467 67.4462 100.717C67.4462 100.967 67.4462 101.228 67.4462 101.499C67.4462 101.665 67.4462 101.842 67.4462 102.03C67.467 102.197 67.4774 102.363 67.4774 102.53C67.4774 103.134 67.3941 103.738 67.2274 104.342C67.0816 104.947 66.967 105.551 66.8837 106.155C66.6337 106.384 66.4149 106.634 66.2274 106.905C66.0607 107.176 65.8837 107.426 65.6962 107.655C65.5087 107.884 65.2899 108.082 65.0399 108.249C64.7899 108.436 64.4774 108.561 64.1024 108.624C64.0399 108.832 63.9149 108.988 63.7274 109.092C63.5607 109.197 63.4149 109.342 63.2899 109.53L63.2274 109.53C62.7066 109.53 62.2587 109.457 61.8837 109.311C61.5087 109.165 61.1545 108.999 60.8212 108.811C60.5087 108.624 60.1857 108.426 59.8524 108.217C59.5191 108.009 59.1337 107.842 58.6962 107.717C58.1128 107.238 57.5816 106.717 57.1024 106.155C56.6232 105.572 56.0816 105.051 55.4774 104.592C55.3316 104.176 55.1337 103.832 54.8837 103.561C54.6545 103.29 54.4253 102.978 54.1962 102.624C54.092 102.478 54.0087 102.342 53.9462 102.217C53.9045 102.092 53.842 101.947 53.7587 101.78C53.6962 101.613 53.592 101.499 53.4462 101.436C53.3212 101.374 53.2066 101.301 53.1024 101.217C52.9357 100.572 52.6962 99.9778 52.3837 99.4361C52.0712 98.8945 51.7066 98.3736 51.2899 97.8736C51.1649 98.1028 51.0607 98.3528 50.9774 98.6236C50.9149 98.8736 50.8524 99.134 50.7899 99.4049C50.7274 99.6549 50.6441 99.9153 50.5399 100.186C50.4566 100.436 50.342 100.665 50.1962 100.874L50.1962 100.967C50.1962 101.072 50.2378 101.134 50.3212 101.155C50.4045 101.176 50.4462 101.238 50.4462 101.342C50.4462 101.363 50.4357 101.384 50.4149 101.405C50.4149 101.426 50.4149 101.447 50.4149 101.467C50.3107 101.551 50.2274 101.655 50.1649 101.78C50.1232 101.905 50.0191 101.978 49.8524 101.999C49.8732 102.103 49.8837 102.207 49.8837 102.311L49.8837 102.592C49.8837 103.197 49.8107 103.801 49.6649 104.405C49.5399 105.009 49.4774 105.624 49.4774 106.249L49.4774 106.655C49.4774 106.801 49.4878 106.936 49.5087 107.061C49.5503 107.186 49.6128 107.311 49.6962 107.436C49.7795 107.561 49.8212 107.676 49.8212 107.78C49.8212 107.926 49.7587 108.061 49.6337 108.186C49.7795 108.29 49.9462 108.405 50.1337 108.53C50.3212 108.655 50.4878 108.79 50.6337 108.936C50.8003 109.103 50.9357 109.269 51.0399 109.436C51.1441 109.624 51.1962 109.822 51.1962 110.03C51.1962 110.384 51.0816 110.634 50.8524 110.78C50.6232 110.926 50.342 111.04 50.0087 111.124C49.6962 111.207 49.3628 111.28 49.0087 111.342C48.6753 111.426 48.3941 111.561 48.1649 111.749L48.0712 111.749C47.8212 111.749 47.6337 111.676 47.5087 111.53C47.3837 111.384 47.1962 111.311 46.9462 111.311C46.5503 110.665 46.2795 109.936 46.1337 109.124C45.9878 108.332 45.9149 107.572 45.9149 106.842C45.9149 105.947 45.9982 105.051 46.1649 104.155C46.3107 103.259 46.4982 102.374 46.7274 101.499C46.9357 100.624 47.1649 99.759 47.4149 98.9049C47.6857 98.0299 47.9357 97.1549 48.1649 96.2799L48.1962 96.1861C48.1962 96.082 48.1649 96.009 48.1024 95.9674C48.0607 95.9257 48.0399 95.8632 48.0399 95.7799C48.0399 95.7382 48.0503 95.7174 48.0712 95.7174C48.1337 95.509 48.1962 95.3111 48.2587 95.1236C48.342 94.9361 48.4045 94.7278 48.4462 94.4986C48.5712 93.9153 48.6545 93.3215 48.6962 92.7174C48.7587 92.0924 48.7899 91.4778 48.7899 90.8736C48.8107 90.2695 48.8316 89.6653 48.8524 89.0611C48.8941 88.4361 48.967 87.8215 49.0712 87.2174C49.2378 87.0507 49.3941 86.8736 49.5399 86.6861C49.6857 86.4986 49.8732 86.332 50.1024 86.1861C50.5191 86.207 50.9357 86.2695 51.3524 86.3736C51.7691 86.4778 52.1649 86.6445 52.5399 86.8736C52.7899 87.7695 52.9566 88.6653 53.0399 89.5611C53.1441 90.457 53.3107 91.3528 53.5399 92.2486L53.5399 92.3424C53.5399 92.4465 53.592 92.4986 53.6962 92.4986C53.8212 92.4778 53.9149 92.509 53.9774 92.5924C53.9357 92.6549 53.9045 92.7278 53.8837 92.8111C53.8837 92.8945 53.8837 92.9778 53.8837 93.0611L53.8837 93.5924C53.9253 93.759 53.9774 93.9361 54.0399 94.1236C54.1024 94.3111 54.2378 94.4257 54.4462 94.4674C54.5503 95.134 54.7066 95.7486 54.9149 96.3111C55.1232 96.8736 55.3628 97.4153 55.6337 97.9361C55.9045 98.457 56.1962 98.9778 56.5087 99.4986C56.8212 99.9986 57.1441 100.53 57.4774 101.092C57.9982 101.488 58.4462 101.947 58.8212 102.467C59.1962 102.967 59.5712 103.457 59.9462 103.936C60.342 104.394 60.7795 104.801 61.2587 105.155C61.7587 105.509 62.4045 105.728 63.1962 105.811C63.3003 105.728 63.3732 105.613 63.4149 105.467L63.5712 105.03C63.6337 104.884 63.6962 104.759 63.7587 104.655C63.842 104.53 63.9566 104.436 64.1024 104.374C64.1441 103.79 64.1857 103.197 64.2274 102.592C64.2899 101.988 64.4253 101.415 64.6337 100.874C64.5295 100.686 64.4774 100.457 64.4774 100.186C64.4774 99.9778 64.4878 99.7799 64.5087 99.5924C64.5503 99.4049 64.5712 99.2174 64.5712 99.0299C64.5712 98.634 64.4878 98.3111 64.3212 98.0611C64.3212 97.9153 64.3316 97.7695 64.3524 97.6236C64.3732 97.457 64.4357 97.3007 64.5399 97.1549C64.3732 96.7382 64.2378 96.3007 64.1337 95.8424C64.0503 95.384 64.0087 94.9153 64.0087 94.4361C64.0087 94.1653 64.0399 93.884 64.1024 93.5924C63.9774 93.2799 63.8941 92.9153 63.8524 92.4986L63.7274 91.2174C63.6857 90.7799 63.6232 90.3736 63.5399 89.9986C63.4566 89.6236 63.3003 89.3215 63.0712 89.0924C63.1962 88.9049 63.2587 88.6861 63.2587 88.4361C63.2587 88.0195 63.1962 87.6236 63.0712 87.2486C62.9462 86.8736 62.8837 86.4778 62.8837 86.0611C62.8837 85.7695 62.9462 85.4778 63.0712 85.1861C63.5295 85.207 63.9774 85.259 64.4149 85.3424C64.8732 85.4049 65.3212 85.4361 65.7587 85.4361C65.8837 85.6028 66.0295 85.7382 66.1962 85.8424C66.3628 85.9465 66.5399 86.0507 66.7274 86.1549C66.9149 86.2382 67.092 86.332 67.2587 86.4361C67.4462 86.5403 67.592 86.6861 67.6962 86.8736ZM97.1024 87.4361L96.9774 87.4361C96.9357 87.4153 96.8941 87.4153 96.8524 87.4361C96.8107 87.457 96.7899 87.4882 96.7899 87.5299C96.8316 87.6965 96.8524 87.8111 96.8524 87.8736C96.8524 88.1236 96.7691 88.3424 96.6024 88.5299C96.4566 88.6965 96.3837 88.8424 96.3837 88.9674C96.3837 89.0299 96.4149 89.082 96.4774 89.1236C96.5607 89.1653 96.6232 89.1965 96.6649 89.2174C96.5607 89.3424 96.467 89.4778 96.3837 89.6236C96.3003 89.7695 96.2066 89.8945 96.1024 89.9986C96.1441 90.7278 96.2274 91.4465 96.3524 92.1549C96.4982 92.8424 96.5712 93.5403 96.5712 94.2486C96.5712 94.6028 96.5295 94.957 96.4462 95.3111C96.3837 95.6445 96.3107 95.9882 96.2274 96.3424C96.1441 96.6757 96.0607 97.0195 95.9774 97.3736C95.9149 97.707 95.8837 98.0507 95.8837 98.4049C95.6128 98.9465 95.3212 99.4674 95.0087 99.9674C94.6962 100.447 94.467 100.978 94.3212 101.561C93.842 101.853 93.4253 102.217 93.0712 102.655C92.7378 103.072 92.4045 103.488 92.0712 103.905C91.342 104.155 90.6753 104.488 90.0712 104.905C89.967 104.926 89.8732 104.936 89.7899 104.936L89.5399 104.936C88.7482 104.936 88.0712 104.79 87.5087 104.499C86.9462 104.207 86.4566 103.832 86.0399 103.374C85.6441 102.894 85.3003 102.353 85.0087 101.749C84.717 101.144 84.4462 100.519 84.1962 99.8736C83.717 100.228 83.2795 100.634 82.8837 101.092C82.5087 101.53 82.1232 101.967 81.7274 102.405C81.6024 102.572 81.4462 102.769 81.2587 102.999C81.092 103.207 80.9253 103.363 80.7587 103.467C80.6753 103.509 80.5816 103.551 80.4774 103.592C80.3941 103.613 80.3003 103.644 80.1962 103.686C79.6128 104.019 79.1545 104.467 78.8212 105.03C78.4045 105.197 77.9982 105.384 77.6024 105.592C77.2274 105.801 76.8628 106.019 76.5087 106.249C76.1128 106.269 75.717 106.301 75.3212 106.342C74.9462 106.363 74.5712 106.374 74.1962 106.374C73.6128 106.374 73.1962 106.342 72.9462 106.28C72.717 106.197 72.5295 106.103 72.3837 105.999C72.2587 105.874 72.1232 105.728 71.9774 105.561C71.8524 105.394 71.6024 105.217 71.2274 105.03C71.1232 104.759 71.0191 104.488 70.9149 104.217C70.8316 103.947 70.7066 103.697 70.5399 103.467L70.5399 103.03C70.5399 102.842 70.5295 102.665 70.5087 102.499C70.5087 102.332 70.4774 102.186 70.4149 102.061C70.3524 101.915 70.2482 101.822 70.1024 101.78C70.1024 101.009 70.1962 100.249 70.3837 99.4986C70.5712 98.7486 70.7274 97.9882 70.8524 97.2174C70.9566 96.7799 71.0191 96.332 71.0399 95.8736C71.0607 95.7695 71.0712 95.6549 71.0712 95.5299C71.0712 95.4049 71.092 95.2799 71.1337 95.1549C71.1753 95.0299 71.2482 94.9257 71.3524 94.8424C71.4566 94.759 71.5295 94.634 71.5712 94.4674C71.6753 94.1757 71.7378 93.8528 71.7587 93.4986C71.7795 93.1445 71.8107 92.8111 71.8524 92.4986C71.9566 91.8736 72.0712 91.2486 72.1962 90.6236C72.342 89.9986 72.5087 89.384 72.6962 88.7799C72.6753 88.6757 72.6649 88.582 72.6649 88.4986L72.6649 88.1861C72.6649 87.3945 72.717 86.6236 72.8212 85.8736C72.9462 85.1236 73.0087 84.3528 73.0087 83.5611C73.0087 83.1861 72.9774 82.7903 72.9149 82.3736C73.0191 82.1653 73.1337 81.9778 73.2587 81.8111C73.4045 81.6236 73.592 81.4778 73.8212 81.3736C74.2587 81.6028 74.6857 81.8528 75.1024 82.1236C75.5399 82.3736 75.9566 82.6549 76.3524 82.9674L76.3524 83.7174C76.3524 84.3215 76.3316 84.9674 76.2899 85.6549C76.2691 86.3215 76.2066 86.9986 76.1024 87.6861C76.0191 88.3736 75.9045 89.0403 75.7587 89.6861C75.6128 90.332 75.4149 90.9257 75.1649 91.4674L75.1649 92.4674C74.7899 93.134 74.5399 93.832 74.4149 94.5611C74.2899 95.2903 74.1441 96.0195 73.9774 96.7486C73.9357 96.9778 73.8524 97.2486 73.7274 97.5611C73.6024 97.8736 73.5399 98.1445 73.5399 98.3736C73.5399 98.4778 73.5503 98.582 73.5712 98.6861C73.6128 98.7903 73.6441 98.8945 73.6649 98.9986C73.4982 99.3736 73.4045 99.7799 73.3837 100.217C73.3837 100.634 73.3316 101.051 73.2274 101.467C73.3941 101.738 73.5399 102.03 73.6649 102.342C73.8107 102.634 73.967 102.936 74.1337 103.249L74.4462 103.217C74.6337 103.217 74.8316 103.238 75.0399 103.28C75.2482 103.301 75.4462 103.311 75.6337 103.311C75.7378 103.311 75.842 103.311 75.9462 103.311C76.0503 103.29 76.1545 103.269 76.2587 103.249C76.3837 103.019 76.5503 102.842 76.7587 102.717C76.967 102.572 77.1753 102.447 77.3837 102.342C77.6128 102.238 77.8212 102.124 78.0087 101.999C78.217 101.874 78.3837 101.697 78.5087 101.467L78.9462 101.467C78.9878 101.405 79.0607 101.322 79.1649 101.217C79.2899 101.113 79.4045 101.009 79.5087 100.905C79.6128 100.801 79.6962 100.697 79.7587 100.592C79.842 100.488 79.8732 100.405 79.8524 100.342C80.1024 100.238 80.3107 100.103 80.4774 99.9361C80.6649 99.7486 80.842 99.5611 81.0087 99.3736C81.1753 99.1653 81.342 98.9674 81.5087 98.7799C81.6753 98.5924 81.8732 98.4361 82.1024 98.3111C82.0816 98.2695 82.0712 98.2174 82.0712 98.1549C82.0712 97.9674 82.1232 97.8215 82.2274 97.7174C82.3524 97.6132 82.3837 97.4257 82.3212 97.1549L82.4149 97.1861C82.5191 97.1861 82.592 97.1549 82.6337 97.0924C82.6753 97.0299 82.7066 96.957 82.7274 96.8736C82.7691 96.7903 82.8107 96.7174 82.8524 96.6549C82.9149 96.5715 82.9982 96.5195 83.1024 96.4986L83.1024 96.4361C83.1024 96.0611 83.1753 95.707 83.3212 95.3736C83.4878 95.0403 83.5712 94.6861 83.5712 94.3111C83.5712 94.207 83.5607 94.1132 83.5399 94.0299C83.5191 93.9257 83.4878 93.8215 83.4462 93.7174C83.6337 93.509 83.7482 93.2695 83.7899 92.9986C83.8524 92.7278 83.8837 92.4465 83.8837 92.1549C83.9045 91.8632 83.9253 91.5715 83.9462 91.2799C83.967 90.9882 84.0503 90.707 84.1962 90.4361C84.1962 90.2278 84.1232 90.082 83.9774 89.9986L84.3524 89.4986C84.4774 89.332 84.6232 89.1965 84.7899 89.0924L84.8524 89.0924C85.0816 89.0924 85.2795 89.1549 85.4462 89.2799C85.6337 89.384 85.8003 89.509 85.9462 89.6549C86.1128 89.7799 86.2795 89.9153 86.4462 90.0611C86.6128 90.1861 86.8003 90.2799 87.0087 90.3424L87.0087 91.0299C87.217 91.1132 87.3732 91.259 87.4774 91.4674C87.4566 92.0299 87.4357 92.5924 87.4149 93.1549C87.4149 93.7174 87.4149 94.2695 87.4149 94.8111C87.4149 95.6445 87.4357 96.4778 87.4774 97.3111C87.5191 98.1236 87.6232 98.9361 87.7899 99.7486C88.0191 99.9778 88.2482 100.207 88.4774 100.436C88.7274 100.665 88.9149 100.926 89.0399 101.217L89.4149 101.217C90.1441 101.217 90.7066 100.988 91.1024 100.53C91.4982 100.051 91.7795 99.4986 91.9462 98.8736C92.2587 98.7278 92.4878 98.5299 92.6337 98.2799C92.8003 98.009 92.9253 97.7174 93.0087 97.4049C93.1128 97.0924 93.1962 96.7799 93.2587 96.4674C93.342 96.134 93.467 95.8424 93.6337 95.5924C93.6545 95.3424 93.6649 95.0924 93.6649 94.8424L93.6649 94.0611C93.6649 92.8528 93.6024 91.6549 93.4774 90.4674C93.3732 89.259 93.3107 88.0611 93.2899 86.8736C93.2066 86.707 93.1441 86.509 93.1024 86.2799L93.0087 85.5924C92.9878 85.3632 92.9357 85.1549 92.8524 84.9674C92.7899 84.759 92.6857 84.6132 92.5399 84.5299C92.6024 84.3215 92.6337 84.0715 92.6337 83.7799C92.6337 83.509 92.6024 83.2382 92.5399 82.9674C92.4982 82.6965 92.4462 82.4257 92.3837 82.1549C92.5503 82.009 92.6857 81.8632 92.7899 81.7174C92.8941 81.5715 93.0712 81.4986 93.3212 81.4986C93.467 81.4986 93.592 81.5403 93.6962 81.6236C93.8212 81.707 93.9357 81.8007 94.0399 81.9049C94.1441 82.009 94.2482 82.1028 94.3524 82.1861C94.4774 82.2695 94.6232 82.3111 94.7899 82.3111C94.8316 82.3111 94.8732 82.3111 94.9149 82.3111C94.9774 82.2903 95.0399 82.2799 95.1024 82.2799C95.3107 82.4882 95.4774 82.7486 95.6024 83.0611C95.7482 83.3736 95.8732 83.707 95.9774 84.0611C96.1024 84.3945 96.2274 84.7278 96.3524 85.0611C96.4982 85.3945 96.6753 85.6965 96.8837 85.9674C96.8837 86.0299 96.8732 86.0924 96.8524 86.1549C96.8524 86.1965 96.8524 86.2486 96.8524 86.3111C96.8524 86.4986 96.8837 86.6861 96.9462 86.8736C97.0087 87.0611 97.0607 87.2486 97.1024 87.4361ZM105.852 103.124C105.748 103.29 105.623 103.447 105.477 103.592C105.332 103.717 105.196 103.853 105.071 103.999C104.925 104.061 104.759 104.092 104.571 104.092C104.404 104.092 104.238 104.092 104.071 104.092C103.925 104.072 103.779 104.072 103.634 104.092C103.509 104.092 103.404 104.134 103.321 104.217C103.154 104.176 103.029 104.103 102.946 103.999C102.863 103.874 102.717 103.801 102.509 103.78C102.425 103.759 102.342 103.759 102.259 103.78C101.946 103.426 101.654 103.051 101.384 102.655C101.134 102.259 100.894 101.884 100.665 101.53C100.644 100.759 100.582 99.9778 100.477 99.1861C100.457 98.9986 100.425 98.8111 100.384 98.6236C100.342 98.4361 100.311 98.259 100.29 98.0924C100.29 97.884 100.3 97.6861 100.321 97.4986C100.363 97.2903 100.394 97.1028 100.415 96.9361C100.498 96.332 100.592 95.7382 100.696 95.1549C100.8 94.5715 100.894 93.9778 100.977 93.3736C101.061 92.832 101.102 92.2695 101.102 91.6861C101.102 91.082 101.009 90.5195 100.821 89.9986L100.79 89.8424C100.832 89.6757 100.873 89.5403 100.915 89.4361C100.977 89.3111 101.019 89.1757 101.04 89.0299C101.082 88.8007 101.029 88.634 100.884 88.5299C100.946 88.3632 101.05 88.259 101.196 88.2174C101.342 88.1549 101.425 88.0299 101.446 87.8424C101.467 87.759 101.467 87.6757 101.446 87.5924C101.613 87.5299 101.779 87.4778 101.946 87.4361C102.134 87.3736 102.311 87.3632 102.477 87.4049C102.748 87.4465 102.988 87.5403 103.196 87.6861C103.404 87.8111 103.602 87.957 103.79 88.1236C104.123 89.1236 104.259 90.1861 104.196 91.3111C104.134 92.4153 104.029 93.5299 103.884 94.6549C103.738 95.7799 103.644 96.884 103.602 97.9674C103.561 99.0299 103.727 100.019 104.102 100.936L104.165 100.967C104.269 100.988 104.352 100.957 104.415 100.874C104.477 100.769 104.561 100.728 104.665 100.749C104.748 100.79 104.8 100.811 104.821 100.811C104.904 101.228 105.04 101.624 105.227 101.999C105.415 102.374 105.623 102.749 105.852 103.124ZM129.384 86.8736C129.342 87.1236 129.279 87.3424 129.196 87.5299C129.134 87.6965 129.123 87.9257 129.165 88.2174C128.957 88.2382 128.79 88.3111 128.665 88.4361C128.561 88.5403 128.467 88.6653 128.384 88.8111C128.321 88.957 128.248 89.1132 128.165 89.2799C128.102 89.4257 128.019 89.5611 127.915 89.6861C128.082 90.4361 128.175 91.1965 128.196 91.9674C128.217 92.7382 128.269 93.4986 128.352 94.2486C128.457 95.207 128.613 96.1549 128.821 97.0924C129.05 98.009 129.165 98.9465 129.165 99.9049C129.165 100.197 129.154 100.467 129.134 100.717C129.134 100.967 129.134 101.228 129.134 101.499C129.134 101.665 129.134 101.842 129.134 102.03C129.154 102.197 129.165 102.363 129.165 102.53C129.165 103.134 129.082 103.738 128.915 104.342C128.769 104.947 128.654 105.551 128.571 106.155C128.321 106.384 128.102 106.634 127.915 106.905C127.748 107.176 127.571 107.426 127.384 107.655C127.196 107.884 126.977 108.082 126.727 108.249C126.477 108.436 126.165 108.561 125.79 108.624C125.727 108.832 125.602 108.988 125.415 109.092C125.248 109.197 125.102 109.342 124.977 109.53L124.915 109.53C124.394 109.53 123.946 109.457 123.571 109.311C123.196 109.165 122.842 108.999 122.509 108.811C122.196 108.624 121.873 108.426 121.54 108.217C121.207 108.009 120.821 107.842 120.384 107.717C119.8 107.238 119.269 106.717 118.79 106.155C118.311 105.572 117.769 105.051 117.165 104.592C117.019 104.176 116.821 103.832 116.571 103.561C116.342 103.29 116.113 102.978 115.884 102.624C115.779 102.478 115.696 102.342 115.634 102.217C115.592 102.092 115.529 101.947 115.446 101.78C115.384 101.613 115.279 101.499 115.134 101.436C115.009 101.374 114.894 101.301 114.79 101.217C114.623 100.572 114.384 99.9778 114.071 99.4361C113.759 98.8945 113.394 98.3736 112.977 97.8736C112.852 98.1028 112.748 98.3528 112.665 98.6236C112.602 98.8736 112.54 99.134 112.477 99.4049C112.415 99.6549 112.332 99.9153 112.227 100.186C112.144 100.436 112.029 100.665 111.884 100.874L111.884 100.967C111.884 101.072 111.925 101.134 112.009 101.155C112.092 101.176 112.134 101.238 112.134 101.342C112.134 101.363 112.123 101.384 112.102 101.405C112.102 101.426 112.102 101.447 112.102 101.467C111.998 101.551 111.915 101.655 111.852 101.78C111.811 101.905 111.707 101.978 111.54 101.999C111.561 102.103 111.571 102.207 111.571 102.311L111.571 102.592C111.571 103.197 111.498 103.801 111.352 104.405C111.227 105.009 111.165 105.624 111.165 106.249L111.165 106.655C111.165 106.801 111.175 106.936 111.196 107.061C111.238 107.186 111.3 107.311 111.384 107.436C111.467 107.561 111.509 107.676 111.509 107.78C111.509 107.926 111.446 108.061 111.321 108.186C111.467 108.29 111.634 108.405 111.821 108.53C112.009 108.655 112.175 108.79 112.321 108.936C112.488 109.103 112.623 109.269 112.727 109.436C112.832 109.624 112.884 109.822 112.884 110.03C112.884 110.384 112.769 110.634 112.54 110.78C112.311 110.926 112.029 111.04 111.696 111.124C111.384 111.207 111.05 111.28 110.696 111.342C110.363 111.426 110.082 111.561 109.852 111.749L109.759 111.749C109.509 111.749 109.321 111.676 109.196 111.53C109.071 111.384 108.884 111.311 108.634 111.311C108.238 110.665 107.967 109.936 107.821 109.124C107.675 108.332 107.602 107.572 107.602 106.842C107.602 105.947 107.686 105.051 107.852 104.155C107.998 103.259 108.186 102.374 108.415 101.499C108.623 100.624 108.852 99.759 109.102 98.9049C109.373 98.0299 109.623 97.1549 109.852 96.2799L109.884 96.1861C109.884 96.082 109.852 96.009 109.79 95.9674C109.748 95.9257 109.727 95.8632 109.727 95.7799C109.727 95.7382 109.738 95.7174 109.759 95.7174C109.821 95.509 109.884 95.3111 109.946 95.1236C110.029 94.9361 110.092 94.7278 110.134 94.4986C110.259 93.9153 110.342 93.3215 110.384 92.7174C110.446 92.0924 110.477 91.4778 110.477 90.8736C110.498 90.2695 110.519 89.6653 110.54 89.0611C110.582 88.4361 110.654 87.8215 110.759 87.2174C110.925 87.0507 111.082 86.8736 111.227 86.6861C111.373 86.4986 111.561 86.332 111.79 86.1861C112.207 86.207 112.623 86.2695 113.04 86.3736C113.457 86.4778 113.852 86.6445 114.227 86.8736C114.477 87.7695 114.644 88.6653 114.727 89.5611C114.832 90.457 114.998 91.3528 115.227 92.2486L115.227 92.3424C115.227 92.4465 115.279 92.4986 115.384 92.4986C115.509 92.4778 115.602 92.509 115.665 92.5924C115.623 92.6549 115.592 92.7278 115.571 92.8111C115.571 92.8945 115.571 92.9778 115.571 93.0611L115.571 93.5924C115.613 93.759 115.665 93.9361 115.727 94.1236C115.79 94.3111 115.925 94.4257 116.134 94.4674C116.238 95.134 116.394 95.7486 116.602 96.3111C116.811 96.8736 117.05 97.4153 117.321 97.9361C117.592 98.457 117.884 98.9778 118.196 99.4986C118.509 99.9986 118.832 100.53 119.165 101.092C119.686 101.488 120.134 101.947 120.509 102.467C120.884 102.967 121.259 103.457 121.634 103.936C122.029 104.394 122.467 104.801 122.946 105.155C123.446 105.509 124.092 105.728 124.884 105.811C124.988 105.728 125.061 105.613 125.102 105.467L125.259 105.03C125.321 104.884 125.384 104.759 125.446 104.655C125.529 104.53 125.644 104.436 125.79 104.374C125.832 103.79 125.873 103.197 125.915 102.592C125.977 101.988 126.113 101.415 126.321 100.874C126.217 100.686 126.165 100.457 126.165 100.186C126.165 99.9778 126.175 99.7799 126.196 99.5924C126.238 99.4049 126.259 99.2174 126.259 99.0299C126.259 98.634 126.175 98.3111 126.009 98.0611C126.009 97.9153 126.019 97.7695 126.04 97.6236C126.061 97.457 126.123 97.3007 126.227 97.1549C126.061 96.7382 125.925 96.3007 125.821 95.8424C125.738 95.384 125.696 94.9153 125.696 94.4361C125.696 94.1653 125.727 93.884 125.79 93.5924C125.665 93.2799 125.582 92.9153 125.54 92.4986L125.415 91.2174C125.373 90.7799 125.311 90.3736 125.227 89.9986C125.144 89.6236 124.988 89.3215 124.759 89.0924C124.884 88.9049 124.946 88.6861 124.946 88.4361C124.946 88.0195 124.884 87.6236 124.759 87.2486C124.634 86.8736 124.571 86.4778 124.571 86.0611C124.571 85.7695 124.634 85.4778 124.759 85.1861C125.217 85.207 125.665 85.259 126.102 85.3424C126.561 85.4049 127.009 85.4361 127.446 85.4361C127.571 85.6028 127.717 85.7382 127.884 85.8424C128.05 85.9465 128.227 86.0507 128.415 86.1549C128.602 86.2382 128.779 86.332 128.946 86.4361C129.134 86.5403 129.279 86.6861 129.384 86.8736ZM152.29 87.5299L152.29 87.6549C152.144 87.6965 152.071 87.8007 152.071 87.9674C151.842 88.0715 151.602 88.1549 151.352 88.2174C151.102 88.259 150.863 88.332 150.634 88.4361C150.404 88.4153 150.165 88.4049 149.915 88.4049C149.686 88.384 149.457 88.3736 149.227 88.3736C148.602 88.3736 147.977 88.3945 147.352 88.4361C146.727 88.4778 146.102 88.4778 145.477 88.4361C145.186 88.6028 144.863 88.7382 144.509 88.8424C144.175 88.9257 143.852 88.9674 143.54 88.9674C143.29 88.9674 143.071 88.9361 142.884 88.8736C142.384 89.1236 141.832 89.332 141.227 89.4986C140.644 89.6653 140.05 89.832 139.446 89.9986C138.842 90.1445 138.259 90.3215 137.696 90.5299C137.154 90.7174 136.675 90.9882 136.259 91.3424C136.217 91.634 136.186 91.9257 136.165 92.2174C136.144 92.4882 136.134 92.759 136.134 93.0299C136.134 93.3215 136.144 93.5924 136.165 93.8424C136.207 94.0924 136.279 94.3424 136.384 94.5924C136.488 94.634 136.602 94.6653 136.727 94.6861C136.873 94.707 136.998 94.7174 137.102 94.7174C137.207 94.7174 137.311 94.707 137.415 94.6861C137.519 94.6445 137.592 94.5715 137.634 94.4674C137.946 94.4257 138.259 94.4153 138.571 94.4361C138.884 94.4361 139.196 94.4361 139.509 94.4361C139.821 94.4361 140.123 94.4257 140.415 94.4049C140.727 94.384 141.029 94.332 141.321 94.2486C141.654 94.1653 141.977 94.1132 142.29 94.0924C142.623 94.0715 142.946 94.0507 143.259 94.0299C143.571 94.009 143.894 93.9778 144.227 93.9361C144.561 93.8736 144.904 93.759 145.259 93.5924C145.529 93.6965 145.8 93.7486 146.071 93.7486C146.363 93.7486 146.644 93.7695 146.915 93.8111C147.061 93.9153 147.175 94.0299 147.259 94.1549C147.363 94.2799 147.415 94.4257 147.415 94.5924C147.415 94.884 147.311 95.1757 147.102 95.4674C146.894 95.759 146.727 96.0299 146.602 96.2799L146.259 96.2799C145.759 96.2799 145.269 96.3528 144.79 96.4986C144.332 96.6236 143.863 96.7799 143.384 96.9674C142.925 97.134 142.457 97.2903 141.977 97.4361C141.519 97.5611 141.04 97.6236 140.54 97.6236C140.457 97.6236 140.404 97.6757 140.384 97.7799C140.384 97.8632 140.363 97.9257 140.321 97.9674C140.217 97.9465 140.061 97.9361 139.852 97.9361C139.373 97.9361 138.915 97.9882 138.477 98.0924C138.04 98.1965 137.592 98.2486 137.134 98.2486C137.009 98.2486 136.884 98.2486 136.759 98.2486C136.634 98.2278 136.509 98.207 136.384 98.1861C136.279 98.3528 136.144 98.4674 135.977 98.5299C135.811 98.5715 135.654 98.6549 135.509 98.7799C135.446 98.9674 135.404 99.1965 135.384 99.4674C135.384 99.7382 135.373 100.019 135.352 100.311C135.352 100.582 135.332 100.842 135.29 101.092C135.248 101.342 135.165 101.54 135.04 101.686C135.061 101.79 135.144 101.832 135.29 101.811C135.436 101.769 135.509 101.832 135.509 101.999C135.509 102.186 135.488 102.384 135.446 102.592C135.404 102.801 135.384 103.009 135.384 103.217C135.384 103.613 135.425 104.051 135.509 104.53C135.613 104.988 135.759 105.415 135.946 105.811C136.154 106.207 136.425 106.54 136.759 106.811C137.092 107.061 137.509 107.186 138.009 107.186C138.342 107.186 138.654 107.124 138.946 106.999C139.238 106.874 139.477 106.665 139.665 106.374L139.821 106.342C139.904 106.342 139.977 106.353 140.04 106.374C140.123 106.394 140.207 106.405 140.29 106.405C140.415 106.405 140.571 106.332 140.759 106.186C140.967 106.019 141.186 105.832 141.415 105.624C141.665 105.415 141.915 105.217 142.165 105.03C142.415 104.822 142.654 104.676 142.884 104.592C143.029 104.301 143.165 104.009 143.29 103.717C143.436 103.426 143.644 103.197 143.915 103.03L143.915 102.124C144.123 101.894 144.342 101.686 144.571 101.499C144.821 101.311 145.009 101.072 145.134 100.78C145.238 100.822 145.332 100.853 145.415 100.874C145.519 100.894 145.623 100.905 145.727 100.905C145.832 100.905 145.936 100.894 146.04 100.874C146.165 100.853 146.279 100.822 146.384 100.78C146.55 101.009 146.675 101.269 146.759 101.561C146.863 101.832 146.988 102.092 147.134 102.342C146.946 102.717 146.727 103.165 146.477 103.686C146.227 104.207 145.957 104.728 145.665 105.249C145.373 105.769 145.061 106.269 144.727 106.749C144.415 107.207 144.102 107.561 143.79 107.811C143.727 107.874 143.592 107.947 143.384 108.03C143.154 108.197 142.946 108.353 142.759 108.499C142.571 108.665 142.394 108.853 142.227 109.061C141.623 109.249 141.04 109.499 140.477 109.811C139.936 110.124 139.394 110.426 138.852 110.717C138.602 110.655 138.332 110.624 138.04 110.624C137.79 110.624 137.54 110.634 137.29 110.655C137.04 110.697 136.769 110.717 136.477 110.717C136.394 110.613 136.269 110.54 136.102 110.499C135.957 110.478 135.904 110.374 135.946 110.186C135.238 110.144 134.665 109.947 134.227 109.592C133.79 109.259 133.415 108.842 133.102 108.342C132.811 107.842 132.571 107.301 132.384 106.717C132.196 106.134 131.998 105.572 131.79 105.03L131.79 104.936C131.79 104.832 131.832 104.769 131.915 104.749C131.998 104.728 132.04 104.665 132.04 104.561C132.04 104.519 132.029 104.488 132.009 104.467C131.946 104.238 131.894 104.04 131.852 103.874C131.811 103.707 131.79 103.509 131.79 103.28C131.79 102.947 131.811 102.624 131.852 102.311C131.894 101.978 131.915 101.644 131.915 101.311C131.915 100.978 131.873 100.686 131.79 100.436C131.873 100.332 131.946 100.197 132.009 100.03C132.05 99.8424 132.082 99.6549 132.102 99.4674C132.123 99.2799 132.134 99.0924 132.134 98.9049C132.154 98.7174 132.186 98.5507 132.227 98.4049C132.144 98.1757 132.071 97.9778 132.009 97.8111C131.946 97.6236 131.915 97.4049 131.915 97.1549L131.915 96.9361C132.123 96.582 132.3 96.2174 132.446 95.8424C132.592 95.4674 132.748 95.082 132.915 94.6861L132.915 94.5924C132.915 93.9882 132.894 93.384 132.852 92.7799C132.811 92.1757 132.79 91.5715 132.79 90.9674L132.79 90.3736C132.79 90.1653 132.8 89.9674 132.821 89.7799C132.988 89.6965 133.113 89.582 133.196 89.4361C133.279 89.2903 133.404 89.1757 133.571 89.0924L134.602 89.0924L134.79 88.7799C134.852 88.6757 134.894 88.5611 134.915 88.4361C135.144 88.3736 135.363 88.2903 135.571 88.1861C135.8 88.0611 136.009 87.9361 136.196 87.8111C136.488 87.6445 136.748 87.4986 136.977 87.3736C137.227 87.2278 137.467 87.1132 137.696 87.0299C137.946 86.9257 138.207 86.8424 138.477 86.7799C138.748 86.7174 139.061 86.6653 139.415 86.6236C139.582 86.6236 139.686 86.5924 139.727 86.5299C139.79 86.4674 139.873 86.3945 139.977 86.3111C140.227 86.3528 140.477 86.3945 140.727 86.4361C140.977 86.457 141.227 86.4674 141.477 86.4674C141.977 86.4674 142.446 86.3736 142.884 86.1861C143.509 86.1861 144.123 86.1757 144.727 86.1549C145.352 86.134 145.977 86.1236 146.602 86.1236C147.144 86.1236 147.686 86.1445 148.227 86.1861C148.769 86.2278 149.3 86.3007 149.821 86.4049C150.009 86.3424 150.217 86.3111 150.446 86.3111C150.696 86.3111 150.946 86.3424 151.196 86.4049C151.467 86.4465 151.727 86.4465 151.977 86.4049C151.998 86.634 152.05 86.832 152.134 86.9986C152.238 87.1445 152.29 87.3215 152.29 87.5299ZM171.79 91.9986C171.79 92.207 171.717 92.3424 171.571 92.4049C171.425 92.4674 171.352 92.5924 171.352 92.7799C171.352 92.8424 171.373 92.8945 171.415 92.9361C171.457 92.9778 171.477 93.0403 171.477 93.1236L171.477 93.2486C171.227 94.457 170.863 95.509 170.384 96.4049C169.925 97.3007 169.384 98.1236 168.759 98.8736C168.134 99.6236 167.425 100.332 166.634 100.999C165.863 101.665 165.029 102.363 164.134 103.092C163.884 103.301 163.623 103.509 163.352 103.717C163.102 103.926 162.863 104.144 162.634 104.374L161.946 105.03C161.925 105.051 161.811 105.103 161.602 105.186C161.394 105.249 161.269 105.29 161.227 105.311C160.936 105.436 160.623 105.582 160.29 105.749C159.977 105.915 159.707 106.124 159.477 106.374C159.061 106.374 158.707 106.436 158.415 106.561C158.123 106.686 157.8 106.853 157.446 107.061C157.342 107.061 157.248 107.04 157.165 106.999C157.102 106.957 157.029 106.915 156.946 106.874C156.863 106.832 156.769 106.811 156.665 106.811C156.582 106.79 156.467 106.801 156.321 106.842C156.071 106.426 155.8 106.072 155.509 105.78C155.217 105.488 154.821 105.311 154.321 105.249C154.259 104.894 154.113 104.624 153.884 104.436C153.654 104.228 153.425 104.009 153.196 103.78C153.154 103.655 153.123 103.509 153.102 103.342C153.082 103.176 153.04 103.019 152.977 102.874C152.915 102.728 152.832 102.603 152.727 102.499C152.623 102.394 152.477 102.342 152.29 102.342C152.269 102.217 152.321 102.155 152.446 102.155C152.571 102.155 152.634 102.103 152.634 101.999C152.634 101.874 152.613 101.749 152.571 101.624C152.529 101.499 152.509 101.363 152.509 101.217C152.509 101.113 152.519 101.019 152.54 100.936C152.561 100.853 152.592 100.759 152.634 100.655C152.571 100.092 152.54 99.5195 152.54 98.9361C152.54 97.8111 152.613 96.707 152.759 95.6236C152.925 94.5195 153.009 93.4049 153.009 92.2799C153.009 91.7799 152.977 91.2799 152.915 90.7799C152.873 90.2799 152.779 89.7903 152.634 89.3111C152.154 89.4153 151.675 89.5403 151.196 89.6861C150.717 89.8111 150.269 89.9882 149.852 90.2174C149.623 90.0715 149.384 89.9882 149.134 89.9674C148.863 89.9257 148.602 89.8632 148.352 89.7799C148.207 89.4882 148.134 89.1861 148.134 88.8736C148.134 88.582 148.186 88.3007 148.29 88.0299L148.602 87.2174C149.102 87.1132 149.602 86.957 150.102 86.7486C150.582 86.5403 151.071 86.3528 151.571 86.1861C151.738 86.1445 151.946 86.0924 152.196 86.0299C152.467 85.9674 152.654 85.9153 152.759 85.8736C152.904 85.8111 152.998 85.6965 153.04 85.5299C153.102 85.3424 153.186 85.1861 153.29 85.0611L153.821 85.0611C153.946 85.0611 154.082 85.0715 154.227 85.0924C154.373 85.0924 154.509 85.1236 154.634 85.1861C155.384 84.9986 156.134 84.884 156.884 84.8424C157.634 84.7799 158.404 84.6965 159.196 84.5924C159.279 84.5924 159.404 84.582 159.571 84.5611L160.102 84.4674C160.29 84.4257 160.457 84.3945 160.602 84.3736C160.769 84.332 160.884 84.3111 160.946 84.3111C161.009 84.3111 161.04 84.3424 161.04 84.4049L161.571 84.4049C162.467 84.4049 163.342 84.5195 164.196 84.7486L166.759 85.4361C167.113 85.7278 167.467 86.009 167.821 86.2799C168.175 86.5507 168.571 86.7903 169.009 86.9986C169.113 87.332 169.269 87.6028 169.477 87.8111C169.707 87.9986 169.957 88.207 170.227 88.4361C170.332 88.707 170.467 88.9986 170.634 89.3111C170.821 89.6028 170.998 89.9049 171.165 90.2174C171.332 90.5299 171.477 90.8424 171.602 91.1549C171.727 91.4465 171.79 91.7278 171.79 91.9986ZM168.884 92.4674C168.654 91.9882 168.436 91.4882 168.227 90.9674C168.019 90.4465 167.759 89.9778 167.446 89.5611C167.071 89.457 166.686 89.332 166.29 89.1861C165.915 89.0195 165.654 88.7382 165.509 88.3424C165.467 88.3632 165.394 88.3736 165.29 88.3736C165.102 88.3736 164.936 88.3007 164.79 88.1549C164.644 88.009 164.477 87.9153 164.29 87.8736C164.123 87.8528 163.894 87.8215 163.602 87.7799C163.332 87.7382 163.04 87.707 162.727 87.6861C162.415 87.6653 162.102 87.6445 161.79 87.6236C161.498 87.6028 161.269 87.5924 161.102 87.5924C160.936 87.5924 160.759 87.6028 160.571 87.6236C160.404 87.6236 160.227 87.634 160.04 87.6549C159.873 87.6549 159.769 87.6861 159.727 87.7486C159.686 87.7903 159.602 87.832 159.477 87.8736C159.373 87.832 159.259 87.8111 159.134 87.8111L158.759 87.8111C158.321 87.8111 157.884 87.884 157.446 88.0299C157.029 88.1549 156.613 88.332 156.196 88.5611L156.196 88.6861C156.196 88.8528 156.269 88.9465 156.415 88.9674C156.561 88.9882 156.644 89.0715 156.665 89.2174C156.561 89.2174 156.477 89.2278 156.415 89.2486C156.352 89.2486 156.321 89.3215 156.321 89.4674C156.321 89.6757 156.342 89.9049 156.384 90.1549C156.446 90.4049 156.477 90.6549 156.477 90.9049C156.477 91.0924 156.457 91.3111 156.415 91.5611C156.373 91.8111 156.269 92.009 156.102 92.1549C156.311 92.3424 156.415 92.5924 156.415 92.9049C156.415 93.1132 156.373 93.332 156.29 93.5611C156.207 93.7903 156.102 93.9882 155.977 94.1549C155.936 95.0299 155.852 95.9153 155.727 96.8111C155.602 97.707 155.54 98.5924 155.54 99.4674C155.54 99.9049 155.561 100.332 155.602 100.749C155.665 101.165 155.759 101.582 155.884 101.999C156.113 102.228 156.352 102.405 156.602 102.53C156.873 102.655 157.154 102.78 157.446 102.905L157.446 102.999C157.446 103.061 157.404 103.124 157.321 103.186C157.238 103.249 157.196 103.332 157.196 103.436C157.196 103.519 157.238 103.561 157.321 103.561C158.196 103.311 159.019 103.009 159.79 102.655C160.561 102.301 161.279 101.822 161.946 101.217C162.009 101.155 162.071 101.124 162.134 101.124C162.175 101.124 162.227 101.134 162.29 101.155C162.373 101.176 162.446 101.197 162.509 101.217L162.477 101.092C162.477 100.967 162.509 100.853 162.571 100.749C162.654 100.644 162.748 100.551 162.852 100.467L163.165 100.186C163.269 100.082 163.352 99.9778 163.415 99.8736C163.582 99.832 163.696 99.7486 163.759 99.6236C163.842 99.4986 163.977 99.4361 164.165 99.4361C164.207 99.207 164.321 99.0403 164.509 98.9361C164.696 98.8111 164.811 98.634 164.852 98.4049C165.269 98.1757 165.634 97.8945 165.946 97.5611C166.279 97.2278 166.582 96.8736 166.852 96.4986C167.144 96.1236 167.415 95.7382 167.665 95.3424C167.915 94.9257 168.175 94.5299 168.446 94.1549L168.446 94.0299C168.446 93.6965 168.498 93.4257 168.602 93.2174C168.727 93.009 168.821 92.759 168.884 92.4674Z" fill="white"/>
</g>
<defs>
<filter id="filter0_d" x="15.8524" y="10.186" width="160.938" height="109.625" filterUnits="userSpaceOnUse" color-interpolation-filters="sRGB">
<feFlood flood-opacity="0" result="BackgroundImageFix"/>
<feColorMatrix in="SourceAlpha" type="matrix" values="0 0 0 0 0 0 0 0 0 0 0 0 0 0 0 0 0 0 127 0"/>
<feOffset dy="2"/>
<feGaussianBlur stdDeviation="2.5"/>
<feColorMatrix type="matrix" values="0 0 0 0 0 0 0 0 0 0 0 0 0 0 0 0 0 0 0.25 0"/>
<feBlend mode="normal" in2="BackgroundImageFix" result="effect1_dropShadow"/>
<feBlend mode="normal" in="SourceGraphic" in2="effect1_dropShadow" result="shape"/>
</filter>
</defs>
</svg>
