<svg width="256" height="256" viewBox="0 0 256 256" fill="none" xmlns="http://www.w3.org/2000/svg">
<g id="Logo" filter="url(#filter0_d)">
<circle id="border" cx="128" cy="128" r="95" fill="#64485C"/>
<circle id="background" cx="128" cy="128" r="90" fill="#83677B"/>
<g id="wine">
<path d="M181.946 83.4048C181.892 88.8097 185.946 103.405 185.946 103.405L118.446 115.405L108.946 113.405L101.446 106.905L73.9463 111.405C73.9463 111.405 71.5001 113.405 70.4463 115.405C69.3924 117.405 72.9463 117.31 68.4463 120.405C63.9463 123.5 70.5538 139.595 67 143C65.0376 144.88 66.903 147.914 68.6305 150.491C69.8435 150.772 70.8849 151.242 71.5 152C73.9358 155 70.4463 155 70.4463 155L68.4463 159.405L63.9463 163.905L61.9463 165.405L59.9463 163.905L59.9463 150.5C59.9463 150.5 65.0404 149.662 68.6305 150.491C66.903 147.914 65.0376 144.88 67 143C70.5538 139.595 63.9463 123.5 68.4463 120.405C72.9463 117.31 69.3924 117.405 70.4463 115.405C71.5001 113.405 73.9463 111.405 73.9463 111.405C73.9463 111.405 83.0001 106.905 86.4463 106.905C89.8924 106.905 95.4463 108.905 98.4463 103.405C101.446 97.9048 109.946 102.405 109.946 102.405C109.946 102.405 116.392 102.905 118.446 100.405C120.5 97.9048 125.946 100.405 125.946 100.405L127.946 100.405L128.946 97.9048L156.446 92.9048L158.946 95.4048L162.946 95.4048C162.946 95.4048 164 89.9999 170 89.4999C176 88.9999 176.446 87.9048 176.446 87.9048C176.446 87.9048 182 77.9999 181.946 83.4048Z" fill="black"/>
<path d="M73.9463 111.405L101.446 106.905L108.946 113.405L118.446 115.405L185.946 103.405C185.946 103.405 181.892 88.8097 181.946 83.4048C182 77.9999 176.446 87.9048 176.446 87.9048C176.446 87.9048 176 88.9999 170 89.4999C164 89.9999 162.946 95.4048 162.946 95.4048L158.946 95.4048L156.446 92.9048L128.946 97.9048L127.946 100.405L125.946 100.405C125.946 100.405 120.5 97.9048 118.446 100.405C116.392 102.905 109.946 102.405 109.946 102.405C109.946 102.405 101.446 97.9048 98.4463 103.405C95.4463 108.905 89.8924 106.905 86.4463 106.905C83.0001 106.905 73.9463 111.405 73.9463 111.405ZM73.9463 111.405C73.9463 111.405 71.5001 113.405 70.4463 115.405C69.3924 117.405 72.9463 117.31 68.4463 120.405C63.9463 123.5 70.5538 139.595 67 143C63.4462 146.405 72.4463 153.595 70.4463 155M70.4463 155L68.4463 159.405L63.9463 163.905L61.9463 165.405L59.9463 163.905L59.9463 150.5C59.9463 150.5 69.0642 149 71.5 152C73.9358 155 70.4463 155 70.4463 155Z" stroke="black"/>
</g>
<path id="label" d="M131.288 106.1L128.704 113.096L159.494 107.667L159.934 101.048L158.852 94.9093L156.824 92.5239L128.567 97.5063L130.205 99.9604L131.288 106.1Z" stroke="white" stroke-width="3"/>
<g id="bottle" filter="url(#filter1_d)">
<path d="M180.317 71.9236L185.245 99.8698L185.874 103.437L117.689 115.46C117.689 115.46 112.133 115.46 108.537 113.395C104.942 111.331 101.659 106.638 101.659 106.638L73.5833 111.589L71.801 101.48L99.8769 96.5298C99.8769 96.5298 101.767 91.8445 104.134 88.4222C106.5 84.9999 112.133 83.9463 112.133 83.9463L180.317 71.9236Z" stroke="white" stroke-width="3"/>
</g>
<g id="Unwined" filter="url(#filter2_d)">
<path d="M80.4462 168.124C80.4462 168.374 80.3733 168.582 80.2275 168.749C80.0816 168.936 79.9045 169.082 79.6962 169.186C79.4879 169.311 79.2691 169.415 79.04 169.499C78.8108 169.603 78.6129 169.707 78.4462 169.811C77.967 169.707 77.467 169.613 76.9462 169.53C76.4254 169.467 75.9566 169.332 75.54 169.124C74.6858 168.186 74.0816 167.103 73.7275 165.874C73.3941 164.665 73.1754 163.457 73.0712 162.249C73.0295 161.894 73.0087 161.551 73.0087 161.217C73.0087 160.863 72.9879 160.509 72.9462 160.155C72.9045 159.842 72.717 159.655 72.3837 159.592C72.6337 159.551 72.8108 159.426 72.915 159.217C73.0191 158.988 73.0816 158.738 73.1025 158.467C73.1233 158.176 73.1233 157.894 73.1025 157.624C73.1025 157.332 73.1233 157.092 73.165 156.905C72.9983 156.967 72.8525 157.113 72.7275 157.342C72.6025 157.551 72.4879 157.79 72.3837 158.061C72.2795 158.332 72.1754 158.603 72.0712 158.874C71.9879 159.124 71.9045 159.321 71.8212 159.467C70.9462 160.967 69.9254 162.332 68.7587 163.561C67.6129 164.79 66.4254 166.009 65.1962 167.217C64.842 167.342 64.5087 167.499 64.1962 167.686C63.8837 167.894 63.592 168.113 63.3212 168.342C62.5295 168.571 61.7795 168.686 61.0712 168.686C60.4254 168.686 59.79 168.592 59.165 168.405C58.54 168.238 57.9775 167.946 57.4775 167.53L56.3212 164.905C56.2587 164.738 56.1858 164.571 56.1025 164.405C56.0191 164.217 55.9566 164.04 55.915 163.874C55.8733 163.686 55.8525 163.488 55.8525 163.28C55.8733 163.051 55.8837 162.853 55.8837 162.686C55.8837 161.957 55.9045 161.228 55.9462 160.499C56.0087 159.749 56.092 159.009 56.1962 158.28C56.2379 157.988 56.3004 157.686 56.3837 157.374C56.467 157.061 56.5295 156.759 56.5712 156.467L56.5712 156.124C56.5712 156.019 56.5608 155.894 56.54 155.749C56.5191 155.582 56.4566 155.478 56.3525 155.436C56.8525 154.228 57.1025 152.967 57.1025 151.655C57.1025 151.446 57.092 151.249 57.0712 151.061C57.0712 150.853 57.0608 150.644 57.04 150.436C57.1858 150.29 57.2795 150.124 57.3212 149.936C57.3629 149.728 57.3837 149.519 57.3837 149.311C57.3837 149.082 57.3837 148.863 57.3837 148.655C57.4045 148.446 57.467 148.249 57.5712 148.061C57.5504 147.832 57.5295 147.613 57.5087 147.405C57.5087 147.176 57.5087 146.946 57.5087 146.717C57.5087 145.321 57.6129 143.946 57.8212 142.592C58.0504 141.217 58.165 139.832 58.165 138.436L58.165 137.124C58.165 136.832 58.165 136.53 58.165 136.217C58.1858 135.905 58.2275 135.603 58.29 135.311C58.3733 135.019 58.4879 134.749 58.6337 134.499C58.7795 134.228 58.9879 133.999 59.2587 133.811C59.3004 133.811 59.3316 133.811 59.3525 133.811C59.3941 133.79 59.4358 133.78 59.4775 133.78C59.665 133.78 59.8108 133.832 59.915 133.936C60.0191 134.019 60.1754 134.051 60.3837 134.03C60.7587 134.571 61.0504 135.144 61.2587 135.749C61.4879 136.353 61.6025 136.988 61.6025 137.655C61.6025 138.155 61.5295 138.644 61.3837 139.124C61.2379 139.603 61.165 140.103 61.165 140.624C61.165 140.832 61.1754 141.04 61.1962 141.249C61.217 141.457 61.2275 141.665 61.2275 141.874C61.2275 142.082 61.1962 142.29 61.1337 142.499C61.092 142.686 60.9983 142.853 60.8525 142.999C60.8941 143.415 60.9254 143.842 60.9462 144.28C60.967 144.696 60.9775 145.113 60.9775 145.53C60.9775 146.717 60.9045 147.905 60.7587 149.092C60.6129 150.28 60.4462 151.467 60.2587 152.655C60.0712 153.842 59.9045 155.03 59.7587 156.217C59.6129 157.405 59.54 158.603 59.54 159.811L59.54 160.717C59.54 161.009 59.5608 161.311 59.6025 161.624C59.4775 161.915 59.415 162.228 59.415 162.561C59.415 163.019 59.5191 163.467 59.7275 163.905C59.9358 164.342 60.1858 164.738 60.4775 165.092C60.5816 165.113 60.6754 165.124 60.7587 165.124C60.8629 165.144 60.967 165.155 61.0712 165.155C61.6129 165.155 62.092 165.04 62.5087 164.811C62.9462 164.582 63.3525 164.301 63.7275 163.967C64.1233 163.634 64.5087 163.29 64.8837 162.936C65.2587 162.582 65.665 162.29 66.1025 162.061C66.7691 161.207 67.3941 160.353 67.9775 159.499C68.5608 158.624 69.1233 157.717 69.665 156.78C69.7066 156.28 69.8316 155.78 70.04 155.28C70.2691 154.759 70.4983 154.249 70.7275 153.749C70.9775 153.249 71.1962 152.759 71.3837 152.28C71.592 151.801 71.6962 151.342 71.6962 150.905C71.6962 150.676 71.6233 150.519 71.4775 150.436C71.6858 149.894 71.842 149.332 71.9462 148.749C72.0504 148.165 72.1337 147.582 72.1962 146.999C72.2795 146.415 72.3629 145.842 72.4462 145.28C72.5295 144.696 72.6545 144.124 72.8212 143.561C72.8212 143.436 72.8108 143.311 72.79 143.186C72.79 143.061 72.79 142.936 72.79 142.811C72.79 141.853 72.8837 140.915 73.0712 139.999C73.2587 139.061 73.3525 138.113 73.3525 137.155C73.3525 136.926 73.3316 136.717 73.29 136.53C73.2691 136.321 73.2587 136.124 73.2587 135.936C73.2587 135.769 73.3108 135.665 73.415 135.624C73.54 135.582 73.6025 135.467 73.6025 135.28C73.6025 135.113 73.5816 134.936 73.54 134.749C73.5191 134.561 73.5087 134.363 73.5087 134.155C73.5087 133.509 73.5712 132.874 73.6962 132.249C73.8212 131.624 73.8837 130.988 73.8837 130.342L73.8837 129.967C73.8837 129.821 73.8629 129.686 73.8212 129.561C73.967 129.332 74.165 129.186 74.415 129.124C74.665 129.04 74.9045 128.999 75.1337 128.999C75.5087 128.999 75.8212 129.04 76.0712 129.124C76.467 130.186 76.8004 131.28 77.0712 132.405C77.342 133.509 77.5608 134.634 77.7275 135.78C77.7691 136.051 77.8212 136.342 77.8837 136.655C77.967 136.946 78.0087 137.238 78.0087 137.53C78.0087 137.592 77.9879 137.665 77.9462 137.749C77.9254 137.832 77.9045 137.915 77.8837 137.999C77.8629 138.165 77.842 138.332 77.8212 138.499C77.8212 138.665 77.8212 138.832 77.8212 138.999C77.8212 139.499 77.8525 139.999 77.915 140.499C77.9775 140.999 78.0087 141.509 78.0087 142.03C78.0087 142.613 77.9254 143.176 77.7587 143.717C77.6129 144.238 77.4983 144.79 77.415 145.374C77.3316 145.978 77.3004 146.571 77.3212 147.155C77.342 147.738 77.3004 148.332 77.1962 148.936C77.1545 149.186 77.092 149.436 77.0087 149.686C76.9254 149.915 76.8837 150.165 76.8837 150.436C76.8837 150.624 76.8941 150.811 76.915 150.999C76.9566 151.186 76.9775 151.384 76.9775 151.592C76.9775 151.905 76.9045 152.144 76.7587 152.311C76.8004 152.478 76.8316 152.634 76.8525 152.78C76.8733 152.905 76.915 153.051 76.9775 153.217C76.8733 153.342 76.8004 153.478 76.7587 153.624C76.717 153.769 76.6962 153.926 76.6962 154.092C76.6962 154.301 76.7066 154.499 76.7275 154.686C76.7483 154.853 76.7587 155.03 76.7587 155.217C76.7587 155.655 76.6858 156.071 76.54 156.467C76.415 156.863 76.3316 157.269 76.29 157.686C76.2691 157.978 76.2587 158.269 76.2587 158.561C76.2795 158.832 76.29 159.113 76.29 159.405C76.29 159.717 76.2691 160.019 76.2275 160.311C76.2066 160.603 76.1233 160.894 75.9775 161.186C76.0191 161.311 76.0712 161.436 76.1337 161.561C76.1962 161.686 76.29 161.78 76.415 161.842C76.415 162.488 76.4983 163.144 76.665 163.811C76.8525 164.457 77.1025 165.071 77.415 165.655C77.4775 165.78 77.5712 165.874 77.6962 165.936C77.8212 165.999 77.9358 166.061 78.04 166.124C78.1441 166.207 78.2275 166.301 78.29 166.405C78.3525 166.509 78.3629 166.665 78.3212 166.874C78.3629 166.894 78.4254 166.905 78.5087 166.905C78.6754 166.905 78.8108 166.863 78.915 166.78C79.04 166.696 79.1858 166.655 79.3525 166.655L79.5712 166.655C79.7587 166.842 79.9462 167.061 80.1337 167.311C80.342 167.561 80.4462 167.832 80.4462 168.124ZM102.696 143.874C102.655 144.124 102.592 144.342 102.509 144.53C102.446 144.696 102.436 144.926 102.477 145.217C102.269 145.238 102.102 145.311 101.977 145.436C101.873 145.54 101.78 145.665 101.696 145.811C101.634 145.957 101.561 146.113 101.477 146.28C101.415 146.426 101.332 146.561 101.227 146.686C101.394 147.436 101.488 148.196 101.509 148.967C101.53 149.738 101.582 150.499 101.665 151.249C101.769 152.207 101.925 153.155 102.134 154.092C102.363 155.009 102.477 155.946 102.477 156.905C102.477 157.196 102.467 157.467 102.446 157.717C102.446 157.967 102.446 158.228 102.446 158.499C102.446 158.665 102.446 158.842 102.446 159.03C102.467 159.196 102.477 159.363 102.477 159.53C102.477 160.134 102.394 160.738 102.227 161.342C102.082 161.946 101.967 162.551 101.884 163.155C101.634 163.384 101.415 163.634 101.227 163.905C101.061 164.176 100.884 164.426 100.696 164.655C100.509 164.884 100.29 165.082 100.04 165.249C99.79 165.436 99.4775 165.561 99.1025 165.624C99.04 165.832 98.915 165.988 98.7275 166.092C98.5608 166.196 98.415 166.342 98.29 166.53L98.2275 166.53C97.7066 166.53 97.2587 166.457 96.8837 166.311C96.5087 166.165 96.1545 165.999 95.8212 165.811C95.5087 165.624 95.1858 165.426 94.8525 165.217C94.5191 165.009 94.1337 164.842 93.6962 164.717C93.1129 164.238 92.5816 163.717 92.1025 163.155C91.6233 162.571 91.0816 162.051 90.4775 161.592C90.3316 161.176 90.1337 160.832 89.8837 160.561C89.6545 160.29 89.4254 159.978 89.1962 159.624C89.092 159.478 89.0087 159.342 88.9462 159.217C88.9045 159.092 88.842 158.946 88.7587 158.78C88.6962 158.613 88.592 158.499 88.4462 158.436C88.3212 158.374 88.2066 158.301 88.1025 158.217C87.9358 157.571 87.6962 156.978 87.3837 156.436C87.0712 155.894 86.7066 155.374 86.29 154.874C86.165 155.103 86.0608 155.353 85.9775 155.624C85.915 155.874 85.8525 156.134 85.79 156.405C85.7275 156.655 85.6441 156.915 85.54 157.186C85.4566 157.436 85.342 157.665 85.1962 157.874L85.1962 157.967C85.1962 158.071 85.2379 158.134 85.3212 158.155C85.4045 158.176 85.4462 158.238 85.4462 158.342C85.4462 158.363 85.4358 158.384 85.415 158.405C85.415 158.426 85.415 158.446 85.415 158.467C85.3108 158.551 85.2275 158.655 85.165 158.78C85.1233 158.905 85.0191 158.978 84.8525 158.999C84.8733 159.103 84.8837 159.207 84.8837 159.311L84.8837 159.592C84.8837 160.196 84.8108 160.801 84.665 161.405C84.54 162.009 84.4775 162.624 84.4775 163.249L84.4775 163.655C84.4775 163.801 84.4879 163.936 84.5087 164.061C84.5504 164.186 84.6129 164.311 84.6962 164.436C84.7795 164.561 84.8212 164.676 84.8212 164.78C84.8212 164.926 84.7587 165.061 84.6337 165.186C84.7795 165.29 84.9462 165.405 85.1337 165.53C85.3212 165.655 85.4879 165.79 85.6337 165.936C85.8004 166.103 85.9358 166.269 86.04 166.436C86.1441 166.624 86.1962 166.821 86.1962 167.03C86.1962 167.384 86.0816 167.634 85.8525 167.78C85.6233 167.926 85.342 168.04 85.0087 168.124C84.6962 168.207 84.3629 168.28 84.0087 168.342C83.6754 168.426 83.3941 168.561 83.165 168.749L83.0712 168.749C82.8212 168.749 82.6337 168.676 82.5087 168.53C82.3837 168.384 82.1962 168.311 81.9462 168.311C81.5504 167.665 81.2795 166.936 81.1337 166.124C80.9879 165.332 80.915 164.571 80.915 163.842C80.915 162.946 80.9983 162.051 81.165 161.155C81.3108 160.259 81.4983 159.374 81.7275 158.499C81.9358 157.624 82.165 156.759 82.415 155.905C82.6858 155.03 82.9358 154.155 83.165 153.28L83.1962 153.186C83.1962 153.082 83.165 153.009 83.1025 152.967C83.0608 152.926 83.04 152.863 83.04 152.78C83.04 152.738 83.0504 152.717 83.0712 152.717C83.1337 152.509 83.1962 152.311 83.2587 152.124C83.342 151.936 83.4045 151.728 83.4462 151.499C83.5712 150.915 83.6545 150.321 83.6962 149.717C83.7587 149.092 83.79 148.478 83.79 147.874C83.8108 147.269 83.8316 146.665 83.8525 146.061C83.8941 145.436 83.967 144.821 84.0712 144.217C84.2379 144.051 84.3941 143.874 84.54 143.686C84.6858 143.499 84.8733 143.332 85.1025 143.186C85.5191 143.207 85.9358 143.269 86.3525 143.374C86.7691 143.478 87.165 143.644 87.54 143.874C87.79 144.769 87.9566 145.665 88.04 146.561C88.1441 147.457 88.3108 148.353 88.54 149.249L88.54 149.342C88.54 149.446 88.592 149.499 88.6962 149.499C88.8212 149.478 88.915 149.509 88.9775 149.592C88.9358 149.655 88.9045 149.728 88.8837 149.811C88.8837 149.894 88.8837 149.978 88.8837 150.061L88.8837 150.592C88.9254 150.759 88.9775 150.936 89.04 151.124C89.1025 151.311 89.2379 151.426 89.4462 151.467C89.5504 152.134 89.7066 152.749 89.915 153.311C90.1233 153.874 90.3629 154.415 90.6337 154.936C90.9045 155.457 91.1962 155.978 91.5087 156.499C91.8212 156.999 92.1441 157.53 92.4775 158.092C92.9983 158.488 93.4462 158.946 93.8212 159.467C94.1962 159.967 94.5712 160.457 94.9462 160.936C95.342 161.394 95.7795 161.801 96.2587 162.155C96.7587 162.509 97.4045 162.728 98.1962 162.811C98.3004 162.728 98.3733 162.613 98.415 162.467L98.5712 162.03C98.6337 161.884 98.6962 161.759 98.7587 161.655C98.842 161.53 98.9566 161.436 99.1025 161.374C99.1441 160.79 99.1858 160.196 99.2275 159.592C99.29 158.988 99.4254 158.415 99.6337 157.874C99.5295 157.686 99.4775 157.457 99.4775 157.186C99.4775 156.978 99.4879 156.78 99.5087 156.592C99.5504 156.405 99.5712 156.217 99.5712 156.03C99.5712 155.634 99.4879 155.311 99.3212 155.061C99.3212 154.915 99.3316 154.769 99.3525 154.624C99.3733 154.457 99.4358 154.301 99.54 154.155C99.3733 153.738 99.2379 153.301 99.1337 152.842C99.0504 152.384 99.0087 151.915 99.0087 151.436C99.0087 151.165 99.04 150.884 99.1025 150.592C98.9775 150.28 98.8941 149.915 98.8525 149.499L98.7275 148.217C98.6858 147.78 98.6233 147.374 98.54 146.999C98.4566 146.624 98.3004 146.321 98.0712 146.092C98.1962 145.905 98.2587 145.686 98.2587 145.436C98.2587 145.019 98.1962 144.624 98.0712 144.249C97.9462 143.874 97.8837 143.478 97.8837 143.061C97.8837 142.769 97.9462 142.478 98.0712 142.186C98.5295 142.207 98.9775 142.259 99.415 142.342C99.8733 142.405 100.321 142.436 100.759 142.436C100.884 142.603 101.03 142.738 101.196 142.842C101.363 142.946 101.54 143.051 101.727 143.155C101.915 143.238 102.092 143.332 102.259 143.436C102.446 143.54 102.592 143.686 102.696 143.874ZM132.102 144.436L131.977 144.436C131.936 144.415 131.894 144.415 131.852 144.436C131.811 144.457 131.79 144.488 131.79 144.53C131.832 144.696 131.852 144.811 131.852 144.874C131.852 145.124 131.769 145.342 131.602 145.53C131.457 145.696 131.384 145.842 131.384 145.967C131.384 146.03 131.415 146.082 131.477 146.124C131.561 146.165 131.623 146.196 131.665 146.217C131.561 146.342 131.467 146.478 131.384 146.624C131.3 146.769 131.207 146.894 131.102 146.999C131.144 147.728 131.227 148.446 131.352 149.155C131.498 149.842 131.571 150.54 131.571 151.249C131.571 151.603 131.53 151.957 131.446 152.311C131.384 152.644 131.311 152.988 131.227 153.342C131.144 153.676 131.061 154.019 130.977 154.374C130.915 154.707 130.884 155.051 130.884 155.405C130.613 155.946 130.321 156.467 130.009 156.967C129.696 157.446 129.467 157.978 129.321 158.561C128.842 158.853 128.425 159.217 128.071 159.655C127.738 160.071 127.405 160.488 127.071 160.905C126.342 161.155 125.675 161.488 125.071 161.905C124.967 161.926 124.873 161.936 124.79 161.936L124.54 161.936C123.748 161.936 123.071 161.79 122.509 161.499C121.946 161.207 121.457 160.832 121.04 160.374C120.644 159.894 120.3 159.353 120.009 158.749C119.717 158.144 119.446 157.519 119.196 156.874C118.717 157.228 118.28 157.634 117.884 158.092C117.509 158.53 117.123 158.967 116.727 159.405C116.602 159.571 116.446 159.769 116.259 159.999C116.092 160.207 115.925 160.363 115.759 160.467C115.675 160.509 115.582 160.551 115.477 160.592C115.394 160.613 115.3 160.644 115.196 160.686C114.613 161.019 114.155 161.467 113.821 162.03C113.405 162.196 112.998 162.384 112.602 162.592C112.227 162.801 111.863 163.019 111.509 163.249C111.113 163.269 110.717 163.301 110.321 163.342C109.946 163.363 109.571 163.374 109.196 163.374C108.613 163.374 108.196 163.342 107.946 163.28C107.717 163.196 107.53 163.103 107.384 162.999C107.259 162.874 107.123 162.728 106.977 162.561C106.852 162.394 106.602 162.217 106.227 162.03C106.123 161.759 106.019 161.488 105.915 161.217C105.832 160.946 105.707 160.696 105.54 160.467L105.54 160.03C105.54 159.842 105.53 159.665 105.509 159.499C105.509 159.332 105.477 159.186 105.415 159.061C105.352 158.915 105.248 158.821 105.102 158.78C105.102 158.009 105.196 157.249 105.384 156.499C105.571 155.749 105.727 154.988 105.852 154.217C105.957 153.78 106.019 153.332 106.04 152.874C106.061 152.769 106.071 152.655 106.071 152.53C106.071 152.405 106.092 152.28 106.134 152.155C106.175 152.03 106.248 151.926 106.352 151.842C106.457 151.759 106.53 151.634 106.571 151.467C106.675 151.176 106.738 150.853 106.759 150.499C106.78 150.144 106.811 149.811 106.852 149.499C106.957 148.874 107.071 148.249 107.196 147.624C107.342 146.999 107.509 146.384 107.696 145.78C107.675 145.676 107.665 145.582 107.665 145.499L107.665 145.186C107.665 144.394 107.717 143.624 107.821 142.874C107.946 142.124 108.009 141.353 108.009 140.561C108.009 140.186 107.977 139.79 107.915 139.374C108.019 139.165 108.134 138.978 108.259 138.811C108.405 138.624 108.592 138.478 108.821 138.374C109.259 138.603 109.686 138.853 110.102 139.124C110.54 139.374 110.957 139.655 111.352 139.967L111.352 140.717C111.352 141.321 111.332 141.967 111.29 142.655C111.269 143.321 111.207 143.999 111.102 144.686C111.019 145.374 110.905 146.04 110.759 146.686C110.613 147.332 110.415 147.926 110.165 148.467L110.165 149.467C109.79 150.134 109.54 150.832 109.415 151.561C109.29 152.29 109.144 153.019 108.977 153.749C108.936 153.978 108.852 154.249 108.727 154.561C108.602 154.874 108.54 155.144 108.54 155.374C108.54 155.478 108.55 155.582 108.571 155.686C108.613 155.79 108.644 155.894 108.665 155.999C108.498 156.374 108.405 156.78 108.384 157.217C108.384 157.634 108.332 158.051 108.227 158.467C108.394 158.738 108.54 159.03 108.665 159.342C108.811 159.634 108.967 159.936 109.134 160.249L109.446 160.217C109.634 160.217 109.832 160.238 110.04 160.28C110.248 160.301 110.446 160.311 110.634 160.311C110.738 160.311 110.842 160.311 110.946 160.311C111.05 160.29 111.155 160.269 111.259 160.249C111.384 160.019 111.55 159.842 111.759 159.717C111.967 159.571 112.175 159.446 112.384 159.342C112.613 159.238 112.821 159.124 113.009 158.999C113.217 158.874 113.384 158.696 113.509 158.467L113.946 158.467C113.988 158.405 114.061 158.321 114.165 158.217C114.29 158.113 114.405 158.009 114.509 157.905C114.613 157.801 114.696 157.696 114.759 157.592C114.842 157.488 114.873 157.405 114.852 157.342C115.102 157.238 115.311 157.103 115.477 156.936C115.665 156.749 115.842 156.561 116.009 156.374C116.175 156.165 116.342 155.967 116.509 155.78C116.675 155.592 116.873 155.436 117.102 155.311C117.082 155.269 117.071 155.217 117.071 155.155C117.071 154.967 117.123 154.821 117.227 154.717C117.352 154.613 117.384 154.426 117.321 154.155L117.415 154.186C117.519 154.186 117.592 154.155 117.634 154.092C117.675 154.03 117.707 153.957 117.727 153.874C117.769 153.79 117.811 153.717 117.852 153.655C117.915 153.571 117.998 153.519 118.102 153.499L118.102 153.436C118.102 153.061 118.175 152.707 118.321 152.374C118.488 152.04 118.571 151.686 118.571 151.311C118.571 151.207 118.561 151.113 118.54 151.03C118.519 150.926 118.488 150.821 118.446 150.717C118.634 150.509 118.748 150.269 118.79 149.999C118.852 149.728 118.884 149.446 118.884 149.155C118.905 148.863 118.925 148.571 118.946 148.28C118.967 147.988 119.05 147.707 119.196 147.436C119.196 147.228 119.123 147.082 118.977 146.999L119.352 146.499C119.477 146.332 119.623 146.196 119.79 146.092L119.852 146.092C120.082 146.092 120.28 146.155 120.446 146.28C120.634 146.384 120.8 146.509 120.946 146.655C121.113 146.78 121.28 146.915 121.446 147.061C121.613 147.186 121.8 147.28 122.009 147.342L122.009 148.03C122.217 148.113 122.373 148.259 122.477 148.467C122.457 149.03 122.436 149.592 122.415 150.155C122.415 150.717 122.415 151.269 122.415 151.811C122.415 152.644 122.436 153.478 122.477 154.311C122.519 155.124 122.623 155.936 122.79 156.749C123.019 156.978 123.248 157.207 123.477 157.436C123.727 157.665 123.915 157.926 124.04 158.217L124.415 158.217C125.144 158.217 125.707 157.988 126.102 157.53C126.498 157.051 126.78 156.499 126.946 155.874C127.259 155.728 127.488 155.53 127.634 155.28C127.8 155.009 127.925 154.717 128.009 154.405C128.113 154.092 128.196 153.78 128.259 153.467C128.342 153.134 128.467 152.842 128.634 152.592C128.655 152.342 128.665 152.092 128.665 151.842L128.665 151.061C128.665 149.853 128.602 148.655 128.477 147.467C128.373 146.259 128.311 145.061 128.29 143.874C128.207 143.707 128.144 143.509 128.102 143.28L128.009 142.592C127.988 142.363 127.936 142.155 127.852 141.967C127.79 141.759 127.686 141.613 127.54 141.53C127.602 141.321 127.634 141.071 127.634 140.78C127.634 140.509 127.602 140.238 127.54 139.967C127.498 139.696 127.446 139.426 127.384 139.155C127.55 139.009 127.686 138.863 127.79 138.717C127.894 138.571 128.071 138.499 128.321 138.499C128.467 138.499 128.592 138.54 128.696 138.624C128.821 138.707 128.936 138.801 129.04 138.905C129.144 139.009 129.248 139.103 129.352 139.186C129.477 139.269 129.623 139.311 129.79 139.311C129.832 139.311 129.873 139.311 129.915 139.311C129.977 139.29 130.04 139.28 130.102 139.28C130.311 139.488 130.477 139.749 130.602 140.061C130.748 140.374 130.873 140.707 130.977 141.061C131.102 141.394 131.227 141.728 131.352 142.061C131.498 142.394 131.675 142.696 131.884 142.967C131.884 143.03 131.873 143.092 131.852 143.155C131.852 143.196 131.852 143.249 131.852 143.311C131.852 143.499 131.884 143.686 131.946 143.874C132.009 144.061 132.061 144.249 132.102 144.436ZM140.852 160.124C140.748 160.29 140.623 160.446 140.477 160.592C140.332 160.717 140.196 160.853 140.071 160.999C139.925 161.061 139.759 161.092 139.571 161.092C139.405 161.092 139.238 161.092 139.071 161.092C138.925 161.071 138.78 161.071 138.634 161.092C138.509 161.092 138.405 161.134 138.321 161.217C138.155 161.176 138.03 161.103 137.946 160.999C137.863 160.874 137.717 160.801 137.509 160.78C137.425 160.759 137.342 160.759 137.259 160.78C136.946 160.426 136.655 160.051 136.384 159.655C136.134 159.259 135.894 158.884 135.665 158.53C135.644 157.759 135.582 156.978 135.477 156.186C135.457 155.999 135.425 155.811 135.384 155.624C135.342 155.436 135.311 155.259 135.29 155.092C135.29 154.884 135.3 154.686 135.321 154.499C135.363 154.29 135.394 154.103 135.415 153.936C135.498 153.332 135.592 152.738 135.696 152.155C135.8 151.571 135.894 150.978 135.977 150.374C136.061 149.832 136.102 149.269 136.102 148.686C136.102 148.082 136.009 147.519 135.821 146.999L135.79 146.842C135.832 146.676 135.873 146.54 135.915 146.436C135.977 146.311 136.019 146.176 136.04 146.03C136.082 145.801 136.03 145.634 135.884 145.53C135.946 145.363 136.05 145.259 136.196 145.217C136.342 145.155 136.425 145.03 136.446 144.842C136.467 144.759 136.467 144.676 136.446 144.592C136.613 144.53 136.78 144.478 136.946 144.436C137.134 144.374 137.311 144.363 137.477 144.405C137.748 144.446 137.988 144.54 138.196 144.686C138.405 144.811 138.602 144.957 138.79 145.124C139.123 146.124 139.259 147.186 139.196 148.311C139.134 149.415 139.03 150.53 138.884 151.655C138.738 152.78 138.644 153.884 138.602 154.967C138.561 156.03 138.727 157.019 139.102 157.936L139.165 157.967C139.269 157.988 139.352 157.957 139.415 157.874C139.477 157.769 139.561 157.728 139.665 157.749C139.748 157.79 139.8 157.811 139.821 157.811C139.905 158.228 140.04 158.624 140.227 158.999C140.415 159.374 140.623 159.749 140.852 160.124ZM164.384 143.874C164.342 144.124 164.28 144.342 164.196 144.53C164.134 144.696 164.123 144.926 164.165 145.217C163.957 145.238 163.79 145.311 163.665 145.436C163.561 145.54 163.467 145.665 163.384 145.811C163.321 145.957 163.248 146.113 163.165 146.28C163.102 146.426 163.019 146.561 162.915 146.686C163.082 147.436 163.175 148.196 163.196 148.967C163.217 149.738 163.269 150.499 163.352 151.249C163.457 152.207 163.613 153.155 163.821 154.092C164.05 155.009 164.165 155.946 164.165 156.905C164.165 157.196 164.155 157.467 164.134 157.717C164.134 157.967 164.134 158.228 164.134 158.499C164.134 158.665 164.134 158.842 164.134 159.03C164.155 159.196 164.165 159.363 164.165 159.53C164.165 160.134 164.082 160.738 163.915 161.342C163.769 161.946 163.655 162.551 163.571 163.155C163.321 163.384 163.102 163.634 162.915 163.905C162.748 164.176 162.571 164.426 162.384 164.655C162.196 164.884 161.977 165.082 161.727 165.249C161.477 165.436 161.165 165.561 160.79 165.624C160.727 165.832 160.602 165.988 160.415 166.092C160.248 166.196 160.102 166.342 159.977 166.53L159.915 166.53C159.394 166.53 158.946 166.457 158.571 166.311C158.196 166.165 157.842 165.999 157.509 165.811C157.196 165.624 156.873 165.426 156.54 165.217C156.207 165.009 155.821 164.842 155.384 164.717C154.8 164.238 154.269 163.717 153.79 163.155C153.311 162.571 152.769 162.051 152.165 161.592C152.019 161.176 151.821 160.832 151.571 160.561C151.342 160.29 151.113 159.978 150.884 159.624C150.78 159.478 150.696 159.342 150.634 159.217C150.592 159.092 150.53 158.946 150.446 158.78C150.384 158.613 150.28 158.499 150.134 158.436C150.009 158.374 149.894 158.301 149.79 158.217C149.623 157.571 149.384 156.978 149.071 156.436C148.759 155.894 148.394 155.374 147.977 154.874C147.852 155.103 147.748 155.353 147.665 155.624C147.602 155.874 147.54 156.134 147.477 156.405C147.415 156.655 147.332 156.915 147.227 157.186C147.144 157.436 147.03 157.665 146.884 157.874L146.884 157.967C146.884 158.071 146.925 158.134 147.009 158.155C147.092 158.176 147.134 158.238 147.134 158.342C147.134 158.363 147.123 158.384 147.102 158.405C147.102 158.426 147.102 158.446 147.102 158.467C146.998 158.551 146.915 158.655 146.852 158.78C146.811 158.905 146.707 158.978 146.54 158.999C146.561 159.103 146.571 159.207 146.571 159.311L146.571 159.592C146.571 160.196 146.498 160.801 146.352 161.405C146.227 162.009 146.165 162.624 146.165 163.249L146.165 163.655C146.165 163.801 146.175 163.936 146.196 164.061C146.238 164.186 146.3 164.311 146.384 164.436C146.467 164.561 146.509 164.676 146.509 164.78C146.509 164.926 146.446 165.061 146.321 165.186C146.467 165.29 146.634 165.405 146.821 165.53C147.009 165.655 147.175 165.79 147.321 165.936C147.488 166.103 147.623 166.269 147.727 166.436C147.832 166.624 147.884 166.821 147.884 167.03C147.884 167.384 147.769 167.634 147.54 167.78C147.311 167.926 147.03 168.04 146.696 168.124C146.384 168.207 146.05 168.28 145.696 168.342C145.363 168.426 145.082 168.561 144.852 168.749L144.759 168.749C144.509 168.749 144.321 168.676 144.196 168.53C144.071 168.384 143.884 168.311 143.634 168.311C143.238 167.665 142.967 166.936 142.821 166.124C142.675 165.332 142.602 164.571 142.602 163.842C142.602 162.946 142.686 162.051 142.852 161.155C142.998 160.259 143.186 159.374 143.415 158.499C143.623 157.624 143.852 156.759 144.102 155.905C144.373 155.03 144.623 154.155 144.852 153.28L144.884 153.186C144.884 153.082 144.852 153.009 144.79 152.967C144.748 152.926 144.727 152.863 144.727 152.78C144.727 152.738 144.738 152.717 144.759 152.717C144.821 152.509 144.884 152.311 144.946 152.124C145.03 151.936 145.092 151.728 145.134 151.499C145.259 150.915 145.342 150.321 145.384 149.717C145.446 149.092 145.477 148.478 145.477 147.874C145.498 147.269 145.519 146.665 145.54 146.061C145.582 145.436 145.655 144.821 145.759 144.217C145.925 144.051 146.082 143.874 146.227 143.686C146.373 143.499 146.561 143.332 146.79 143.186C147.207 143.207 147.623 143.269 148.04 143.374C148.457 143.478 148.852 143.644 149.227 143.874C149.477 144.769 149.644 145.665 149.727 146.561C149.832 147.457 149.998 148.353 150.227 149.249L150.227 149.342C150.227 149.446 150.28 149.499 150.384 149.499C150.509 149.478 150.602 149.509 150.665 149.592C150.623 149.655 150.592 149.728 150.571 149.811C150.571 149.894 150.571 149.978 150.571 150.061L150.571 150.592C150.613 150.759 150.665 150.936 150.727 151.124C150.79 151.311 150.925 151.426 151.134 151.467C151.238 152.134 151.394 152.749 151.602 153.311C151.811 153.874 152.05 154.415 152.321 154.936C152.592 155.457 152.884 155.978 153.196 156.499C153.509 156.999 153.832 157.53 154.165 158.092C154.686 158.488 155.134 158.946 155.509 159.467C155.884 159.967 156.259 160.457 156.634 160.936C157.03 161.394 157.467 161.801 157.946 162.155C158.446 162.509 159.092 162.728 159.884 162.811C159.988 162.728 160.061 162.613 160.102 162.467L160.259 162.03C160.321 161.884 160.384 161.759 160.446 161.655C160.53 161.53 160.644 161.436 160.79 161.374C160.832 160.79 160.873 160.196 160.915 159.592C160.977 158.988 161.113 158.415 161.321 157.874C161.217 157.686 161.165 157.457 161.165 157.186C161.165 156.978 161.175 156.78 161.196 156.592C161.238 156.405 161.259 156.217 161.259 156.03C161.259 155.634 161.175 155.311 161.009 155.061C161.009 154.915 161.019 154.769 161.04 154.624C161.061 154.457 161.123 154.301 161.227 154.155C161.061 153.738 160.925 153.301 160.821 152.842C160.738 152.384 160.696 151.915 160.696 151.436C160.696 151.165 160.727 150.884 160.79 150.592C160.665 150.28 160.582 149.915 160.54 149.499L160.415 148.217C160.373 147.78 160.311 147.374 160.227 146.999C160.144 146.624 159.988 146.321 159.759 146.092C159.884 145.905 159.946 145.686 159.946 145.436C159.946 145.019 159.884 144.624 159.759 144.249C159.634 143.874 159.571 143.478 159.571 143.061C159.571 142.769 159.634 142.478 159.759 142.186C160.217 142.207 160.665 142.259 161.102 142.342C161.561 142.405 162.009 142.436 162.446 142.436C162.571 142.603 162.717 142.738 162.884 142.842C163.05 142.946 163.227 143.051 163.415 143.155C163.602 143.238 163.78 143.332 163.946 143.436C164.134 143.54 164.28 143.686 164.384 143.874ZM187.29 144.53L187.29 144.655C187.144 144.696 187.071 144.801 187.071 144.967C186.842 145.071 186.602 145.155 186.352 145.217C186.102 145.259 185.863 145.332 185.634 145.436C185.405 145.415 185.165 145.405 184.915 145.405C184.686 145.384 184.457 145.374 184.227 145.374C183.602 145.374 182.977 145.394 182.352 145.436C181.727 145.478 181.102 145.478 180.477 145.436C180.186 145.603 179.863 145.738 179.509 145.842C179.175 145.926 178.852 145.967 178.54 145.967C178.29 145.967 178.071 145.936 177.884 145.874C177.384 146.124 176.832 146.332 176.227 146.499C175.644 146.665 175.05 146.832 174.446 146.999C173.842 147.144 173.259 147.321 172.696 147.53C172.155 147.717 171.675 147.988 171.259 148.342C171.217 148.634 171.186 148.926 171.165 149.217C171.144 149.488 171.134 149.759 171.134 150.03C171.134 150.321 171.144 150.592 171.165 150.842C171.207 151.092 171.28 151.342 171.384 151.592C171.488 151.634 171.602 151.665 171.727 151.686C171.873 151.707 171.998 151.717 172.102 151.717C172.207 151.717 172.311 151.707 172.415 151.686C172.519 151.644 172.592 151.571 172.634 151.467C172.946 151.426 173.259 151.415 173.571 151.436C173.884 151.436 174.196 151.436 174.509 151.436C174.821 151.436 175.123 151.426 175.415 151.405C175.727 151.384 176.03 151.332 176.321 151.249C176.655 151.165 176.977 151.113 177.29 151.092C177.623 151.071 177.946 151.051 178.259 151.03C178.571 151.009 178.894 150.978 179.227 150.936C179.561 150.874 179.905 150.759 180.259 150.592C180.53 150.696 180.8 150.749 181.071 150.749C181.363 150.749 181.644 150.769 181.915 150.811C182.061 150.915 182.175 151.03 182.259 151.155C182.363 151.28 182.415 151.426 182.415 151.592C182.415 151.884 182.311 152.176 182.102 152.467C181.894 152.759 181.727 153.03 181.602 153.28L181.259 153.28C180.759 153.28 180.269 153.353 179.79 153.499C179.332 153.624 178.863 153.78 178.384 153.967C177.925 154.134 177.457 154.29 176.977 154.436C176.519 154.561 176.04 154.624 175.54 154.624C175.457 154.624 175.405 154.676 175.384 154.78C175.384 154.863 175.363 154.926 175.321 154.967C175.217 154.946 175.061 154.936 174.852 154.936C174.373 154.936 173.915 154.988 173.477 155.092C173.04 155.196 172.592 155.249 172.134 155.249C172.009 155.249 171.884 155.249 171.759 155.249C171.634 155.228 171.509 155.207 171.384 155.186C171.28 155.353 171.144 155.467 170.977 155.53C170.811 155.571 170.655 155.655 170.509 155.78C170.446 155.967 170.405 156.196 170.384 156.467C170.384 156.738 170.373 157.019 170.352 157.311C170.352 157.582 170.332 157.842 170.29 158.092C170.248 158.342 170.165 158.54 170.04 158.686C170.061 158.79 170.144 158.832 170.29 158.811C170.436 158.769 170.509 158.832 170.509 158.999C170.509 159.186 170.488 159.384 170.446 159.592C170.405 159.801 170.384 160.009 170.384 160.217C170.384 160.613 170.425 161.051 170.509 161.53C170.613 161.988 170.759 162.415 170.946 162.811C171.155 163.207 171.425 163.54 171.759 163.811C172.092 164.061 172.509 164.186 173.009 164.186C173.342 164.186 173.655 164.124 173.946 163.999C174.238 163.874 174.477 163.665 174.665 163.374L174.821 163.342C174.905 163.342 174.977 163.353 175.04 163.374C175.123 163.394 175.207 163.405 175.29 163.405C175.415 163.405 175.571 163.332 175.759 163.186C175.967 163.019 176.186 162.832 176.415 162.624C176.665 162.415 176.915 162.217 177.165 162.03C177.415 161.821 177.655 161.676 177.884 161.592C178.03 161.301 178.165 161.009 178.29 160.717C178.436 160.426 178.644 160.196 178.915 160.03L178.915 159.124C179.123 158.894 179.342 158.686 179.571 158.499C179.821 158.311 180.009 158.071 180.134 157.78C180.238 157.821 180.332 157.853 180.415 157.874C180.519 157.894 180.623 157.905 180.727 157.905C180.832 157.905 180.936 157.894 181.04 157.874C181.165 157.853 181.28 157.821 181.384 157.78C181.55 158.009 181.675 158.269 181.759 158.561C181.863 158.832 181.988 159.092 182.134 159.342C181.946 159.717 181.727 160.165 181.477 160.686C181.227 161.207 180.957 161.728 180.665 162.249C180.373 162.769 180.061 163.269 179.727 163.749C179.415 164.207 179.102 164.561 178.79 164.811C178.727 164.874 178.592 164.946 178.384 165.03C178.155 165.196 177.946 165.353 177.759 165.499C177.571 165.665 177.394 165.853 177.227 166.061C176.623 166.249 176.04 166.499 175.477 166.811C174.936 167.124 174.394 167.426 173.852 167.717C173.602 167.655 173.332 167.624 173.04 167.624C172.79 167.624 172.54 167.634 172.29 167.655C172.04 167.696 171.769 167.717 171.477 167.717C171.394 167.613 171.269 167.54 171.102 167.499C170.957 167.478 170.905 167.374 170.946 167.186C170.238 167.144 169.665 166.946 169.227 166.592C168.79 166.259 168.415 165.842 168.102 165.342C167.811 164.842 167.571 164.301 167.384 163.717C167.196 163.134 166.998 162.571 166.79 162.03L166.79 161.936C166.79 161.832 166.832 161.769 166.915 161.749C166.998 161.728 167.04 161.665 167.04 161.561C167.04 161.519 167.03 161.488 167.009 161.467C166.946 161.238 166.894 161.04 166.852 160.874C166.811 160.707 166.79 160.509 166.79 160.28C166.79 159.946 166.811 159.624 166.852 159.311C166.894 158.978 166.915 158.644 166.915 158.311C166.915 157.978 166.873 157.686 166.79 157.436C166.873 157.332 166.946 157.196 167.009 157.03C167.05 156.842 167.082 156.655 167.102 156.467C167.123 156.28 167.134 156.092 167.134 155.905C167.155 155.717 167.186 155.551 167.227 155.405C167.144 155.176 167.071 154.978 167.009 154.811C166.946 154.624 166.915 154.405 166.915 154.155L166.915 153.936C167.123 153.582 167.3 153.217 167.446 152.842C167.592 152.467 167.748 152.082 167.915 151.686L167.915 151.592C167.915 150.988 167.894 150.384 167.852 149.78C167.811 149.176 167.79 148.571 167.79 147.967L167.79 147.374C167.79 147.165 167.8 146.967 167.821 146.78C167.988 146.696 168.113 146.582 168.196 146.436C168.28 146.29 168.405 146.176 168.571 146.092L169.602 146.092L169.79 145.78C169.852 145.676 169.894 145.561 169.915 145.436C170.144 145.374 170.363 145.29 170.571 145.186C170.8 145.061 171.009 144.936 171.196 144.811C171.488 144.644 171.748 144.499 171.977 144.374C172.227 144.228 172.467 144.113 172.696 144.03C172.946 143.926 173.207 143.842 173.477 143.78C173.748 143.717 174.061 143.665 174.415 143.624C174.582 143.624 174.686 143.592 174.727 143.53C174.79 143.467 174.873 143.394 174.977 143.311C175.227 143.353 175.477 143.394 175.727 143.436C175.977 143.457 176.227 143.467 176.477 143.467C176.977 143.467 177.446 143.374 177.884 143.186C178.509 143.186 179.123 143.176 179.727 143.155C180.352 143.134 180.977 143.124 181.602 143.124C182.144 143.124 182.686 143.144 183.227 143.186C183.769 143.228 184.3 143.301 184.821 143.405C185.009 143.342 185.217 143.311 185.446 143.311C185.696 143.311 185.946 143.342 186.196 143.405C186.467 143.446 186.727 143.446 186.977 143.405C186.998 143.634 187.05 143.832 187.134 143.999C187.238 144.144 187.29 144.321 187.29 144.53ZM206.79 148.999C206.79 149.207 206.717 149.342 206.571 149.405C206.425 149.467 206.352 149.592 206.352 149.78C206.352 149.842 206.373 149.894 206.415 149.936C206.457 149.978 206.477 150.04 206.477 150.124L206.477 150.249C206.227 151.457 205.863 152.509 205.384 153.405C204.925 154.301 204.384 155.124 203.759 155.874C203.134 156.624 202.425 157.332 201.634 157.999C200.863 158.665 200.03 159.363 199.134 160.092C198.884 160.301 198.623 160.509 198.352 160.717C198.102 160.926 197.863 161.144 197.634 161.374L196.946 162.03C196.925 162.051 196.811 162.103 196.602 162.186C196.394 162.249 196.269 162.29 196.227 162.311C195.936 162.436 195.623 162.582 195.29 162.749C194.977 162.915 194.707 163.124 194.477 163.374C194.061 163.374 193.707 163.436 193.415 163.561C193.123 163.686 192.8 163.853 192.446 164.061C192.342 164.061 192.248 164.04 192.165 163.999C192.102 163.957 192.03 163.915 191.946 163.874C191.863 163.832 191.769 163.811 191.665 163.811C191.582 163.79 191.467 163.801 191.321 163.842C191.071 163.426 190.8 163.071 190.509 162.78C190.217 162.488 189.821 162.311 189.321 162.249C189.259 161.894 189.113 161.624 188.884 161.436C188.655 161.228 188.425 161.009 188.196 160.78C188.155 160.655 188.123 160.509 188.102 160.342C188.082 160.176 188.04 160.019 187.977 159.874C187.915 159.728 187.832 159.603 187.727 159.499C187.623 159.394 187.477 159.342 187.29 159.342C187.269 159.217 187.321 159.155 187.446 159.155C187.571 159.155 187.634 159.103 187.634 158.999C187.634 158.874 187.613 158.749 187.571 158.624C187.53 158.499 187.509 158.363 187.509 158.217C187.509 158.113 187.519 158.019 187.54 157.936C187.561 157.853 187.592 157.759 187.634 157.655C187.571 157.092 187.54 156.519 187.54 155.936C187.54 154.811 187.613 153.707 187.759 152.624C187.925 151.519 188.009 150.405 188.009 149.28C188.009 148.78 187.977 148.28 187.915 147.78C187.873 147.28 187.78 146.79 187.634 146.311C187.155 146.415 186.675 146.54 186.196 146.686C185.717 146.811 185.269 146.988 184.852 147.217C184.623 147.071 184.384 146.988 184.134 146.967C183.863 146.926 183.602 146.863 183.352 146.78C183.207 146.488 183.134 146.186 183.134 145.874C183.134 145.582 183.186 145.301 183.29 145.03L183.602 144.217C184.102 144.113 184.602 143.957 185.102 143.749C185.582 143.54 186.071 143.353 186.571 143.186C186.738 143.144 186.946 143.092 187.196 143.03C187.467 142.967 187.655 142.915 187.759 142.874C187.905 142.811 187.998 142.696 188.04 142.53C188.102 142.342 188.186 142.186 188.29 142.061L188.821 142.061C188.946 142.061 189.082 142.071 189.227 142.092C189.373 142.092 189.509 142.124 189.634 142.186C190.384 141.999 191.134 141.884 191.884 141.842C192.634 141.78 193.405 141.696 194.196 141.592C194.28 141.592 194.405 141.582 194.571 141.561L195.102 141.467C195.29 141.426 195.457 141.394 195.602 141.374C195.769 141.332 195.884 141.311 195.946 141.311C196.009 141.311 196.04 141.342 196.04 141.405L196.571 141.405C197.467 141.405 198.342 141.519 199.196 141.749L201.759 142.436C202.113 142.728 202.467 143.009 202.821 143.28C203.175 143.551 203.571 143.79 204.009 143.999C204.113 144.332 204.269 144.603 204.477 144.811C204.707 144.999 204.957 145.207 205.227 145.436C205.332 145.707 205.467 145.999 205.634 146.311C205.821 146.603 205.998 146.905 206.165 147.217C206.332 147.53 206.477 147.842 206.602 148.155C206.727 148.446 206.79 148.728 206.79 148.999ZM203.884 149.467C203.655 148.988 203.436 148.488 203.227 147.967C203.019 147.446 202.759 146.978 202.446 146.561C202.071 146.457 201.686 146.332 201.29 146.186C200.915 146.019 200.655 145.738 200.509 145.342C200.467 145.363 200.394 145.374 200.29 145.374C200.102 145.374 199.936 145.301 199.79 145.155C199.644 145.009 199.477 144.915 199.29 144.874C199.123 144.853 198.894 144.821 198.602 144.78C198.332 144.738 198.04 144.707 197.727 144.686C197.415 144.665 197.102 144.644 196.79 144.624C196.498 144.603 196.269 144.592 196.102 144.592C195.936 144.592 195.759 144.603 195.571 144.624C195.405 144.624 195.227 144.634 195.04 144.655C194.873 144.655 194.769 144.686 194.727 144.749C194.686 144.79 194.602 144.832 194.477 144.874C194.373 144.832 194.259 144.811 194.134 144.811L193.759 144.811C193.321 144.811 192.884 144.884 192.446 145.03C192.03 145.155 191.613 145.332 191.196 145.561L191.196 145.686C191.196 145.853 191.269 145.946 191.415 145.967C191.561 145.988 191.644 146.071 191.665 146.217C191.561 146.217 191.477 146.228 191.415 146.249C191.352 146.249 191.321 146.321 191.321 146.467C191.321 146.676 191.342 146.905 191.384 147.155C191.446 147.405 191.477 147.655 191.477 147.905C191.477 148.092 191.457 148.311 191.415 148.561C191.373 148.811 191.269 149.009 191.102 149.155C191.311 149.342 191.415 149.592 191.415 149.905C191.415 150.113 191.373 150.332 191.29 150.561C191.207 150.79 191.102 150.988 190.977 151.155C190.936 152.03 190.852 152.915 190.727 153.811C190.602 154.707 190.54 155.592 190.54 156.467C190.54 156.905 190.561 157.332 190.602 157.749C190.665 158.165 190.759 158.582 190.884 158.999C191.113 159.228 191.352 159.405 191.602 159.53C191.873 159.655 192.155 159.78 192.446 159.905L192.446 159.999C192.446 160.061 192.405 160.124 192.321 160.186C192.238 160.249 192.196 160.332 192.196 160.436C192.196 160.519 192.238 160.561 192.321 160.561C193.196 160.311 194.019 160.009 194.79 159.655C195.561 159.301 196.28 158.821 196.946 158.217C197.009 158.155 197.071 158.124 197.134 158.124C197.175 158.124 197.227 158.134 197.29 158.155C197.373 158.176 197.446 158.196 197.509 158.217L197.477 158.092C197.477 157.967 197.509 157.853 197.571 157.749C197.655 157.644 197.748 157.551 197.852 157.467L198.165 157.186C198.269 157.082 198.352 156.978 198.415 156.874C198.582 156.832 198.696 156.749 198.759 156.624C198.842 156.499 198.977 156.436 199.165 156.436C199.207 156.207 199.321 156.04 199.509 155.936C199.696 155.811 199.811 155.634 199.852 155.405C200.269 155.176 200.634 154.894 200.946 154.561C201.28 154.228 201.582 153.874 201.852 153.499C202.144 153.124 202.415 152.738 202.665 152.342C202.915 151.926 203.175 151.53 203.446 151.155L203.446 151.03C203.446 150.696 203.498 150.426 203.602 150.217C203.727 150.009 203.821 149.759 203.884 149.467Z" fill="white"/>
</g>
</g>
<defs>
<filter id="filter0_d" x="28" y="30" width="200" height="200" filterUnits="userSpaceOnUse" color-interpolation-filters="sRGB">
<feFlood flood-opacity="0" result="BackgroundImageFix"/>
<feColorMatrix in="SourceAlpha" type="matrix" values="0 0 0 0 0 0 0 0 0 0 0 0 0 0 0 0 0 0 127 0"/>
<feOffset dy="2"/>
<feGaussianBlur stdDeviation="2.5"/>
<feColorMatrix type="matrix" values="0 0 0 0 0 0 0 0 0 0 0 0 0 0 0 0 0 0 0.25 0"/>
<feBlend mode="normal" in2="BackgroundImageFix" result="effect1_dropShadow"/>
<feBlend mode="normal" in="SourceGraphic" in2="effect1_dropShadow" result="shape"/>
</filter>
<filter id="filter1_d" x="64.2809" y="70.1859" width="127.331" height="62.4378" filterUnits="userSpaceOnUse" color-interpolation-filters="sRGB">
<feFlood flood-opacity="0" result="BackgroundImageFix"/>
<feColorMatrix in="SourceAlpha" type="matrix" values="0 0 0 0 0 0 0 0 0 0 0 0 0 0 0 0 0 0 127 0"/>
<feOffset dy="4"/>
<feGaussianBlur stdDeviation="2"/>
<feColorMatrix type="matrix" values="0 0 0 0 0 0 0 0 0 0 0 0 0 0 0 0 0 0 0.35 0"/>
<feBlend mode="normal" in2="BackgroundImageFix" result="effect1_dropShadow"/>
<feBlend mode="normal" in="SourceGraphic" in2="effect1_dropShadow" result="shape"/>
</filter>
<filter id="filter2_d" x="51.8525" y="128.999" width="158.938" height="48.8125" filterUnits="userSpaceOnUse" color-interpolation-filters="sRGB">
<feFlood flood-opacity="0" result="BackgroundImageFix"/>
<feColorMatrix in="SourceAlpha" type="matrix" values="0 0 0 0 0 0 0 0 0 0 0 0 0 0 0 0 0 0 127 0"/>
<feOffset dy="4"/>
<feGaussianBlur stdDeviation="2"/>
<feColorMatrix type="matrix" values="0 0 0 0 0 0 0 0 0 0 0 0 0 0 0 0 0 0 0.35 0"/>
<feBlend mode="normal" in2="BackgroundImageFix" result="effect1_dropShadow"/>
<feBlend mode="normal" in="SourceGraphic" in2="effect1_dropShadow" result="shape"/>
</filter>
</defs>
</svg>
