<svg width="183" height="57" viewBox="0 0 183 57" fill="none" xmlns="http://www.w3.org/2000/svg">
<g id="logo_nav" filter="url(#filter0_d)">
<path id="wine" d="M177 26.433C177 30.4768 167.558 30.0275 165.095 26.433C162.632 22.8385 165.095 48 165.095 48H177V26.433Z" fill="black" stroke="black"/>
<g id="bottle" filter="url(#filter1_d)">
<path d="M177 47H165.472H164V19.1818C164 19.1818 164.392 16.9831 165.472 15.7045C166.551 14.426 168.66 13.4545 168.66 13.4545V2L172.83 2V13.4545C172.83 13.4545 174.571 14.5295 175.774 15.7045C176.976 16.8796 177 19.1818 177 19.1818V47Z" stroke="white" stroke-width="3"/>
</g>
<g id="text" filter="url(#filter2_d)">
<path d="M28.5937 45.125C28.5937 45.375 28.5208 45.5833 28.375 45.75C28.2291 45.9375 28.052 46.0833 27.8437 46.1875C27.6354 46.3125 27.4166 46.4166 27.1875 46.5C26.9583 46.6041 26.7604 46.7083 26.5937 46.8125C26.1145 46.7083 25.6145 46.6146 25.0937 46.5312C24.5729 46.4688 24.1041 46.3333 23.6875 46.125C22.8333 45.1875 22.2291 44.1041 21.875 42.875C21.5416 41.6666 21.3229 40.4583 21.2187 39.25C21.177 38.8958 21.1562 38.552 21.1562 38.2188C21.1562 37.8645 21.1354 37.5105 21.0937 37.1562C21.052 36.8438 20.8645 36.6562 20.5312 36.5938C20.7812 36.552 20.9583 36.427 21.0625 36.2188C21.1666 35.9895 21.2291 35.7395 21.25 35.4688C21.2708 35.177 21.2708 34.8958 21.25 34.625C21.25 34.3333 21.2708 34.0938 21.3125 33.9062C21.1458 33.9688 21 34.1145 20.875 34.3438C20.75 34.552 20.6354 34.7916 20.5312 35.0625C20.427 35.3333 20.3229 35.6041 20.2187 35.875C20.1354 36.125 20.052 36.323 19.9687 36.4688C19.0937 37.9688 18.0729 39.3333 16.9062 40.5625C15.7604 41.7916 14.5729 43.0105 13.3437 44.2188C12.9895 44.3438 12.6562 44.5 12.3437 44.6875C12.0312 44.8958 11.7395 45.1145 11.4687 45.3438C10.677 45.573 9.92704 45.6875 9.21874 45.6875C8.57292 45.6875 7.9375 45.5938 7.3125 45.4062C6.6875 45.2395 6.125 44.948 5.625 44.5312L4.46875 41.9062C4.40625 41.7395 4.33334 41.573 4.25 41.4062C4.16667 41.2188 4.10417 41.0416 4.0625 40.875C4.02084 40.6875 4 40.4895 4 40.2812C4.02084 40.052 4.03125 39.8541 4.03125 39.6875C4.03125 38.9583 4.05209 38.2291 4.09375 37.5C4.15625 36.75 4.23959 36.0105 4.34375 35.2812C4.38542 34.9895 4.44792 34.6875 4.53125 34.375C4.61459 34.0625 4.67709 33.7605 4.71875 33.4688V33.125C4.71875 33.0208 4.70834 32.8958 4.6875 32.75C4.66667 32.5833 4.60417 32.4791 4.5 32.4375C5 31.2291 5.25 29.9688 5.25 28.6562C5.25 28.448 5.23959 28.25 5.21875 28.0625C5.21875 27.8541 5.20834 27.6458 5.1875 27.4375C5.33334 27.2916 5.42709 27.125 5.46875 26.9375C5.51042 26.7291 5.53125 26.5208 5.53125 26.3125C5.53125 26.0833 5.53125 25.8645 5.53125 25.6562C5.55209 25.448 5.61459 25.25 5.71875 25.0625C5.69792 24.8333 5.67709 24.6145 5.65625 24.4062C5.65625 24.177 5.65625 23.948 5.65625 23.7188C5.65625 22.323 5.76042 20.9479 5.96875 19.5937C6.19792 18.2187 6.3125 16.8333 6.3125 15.4375V14.125C6.3125 13.8333 6.3125 13.5312 6.3125 13.2187C6.33334 12.9062 6.375 12.6042 6.4375 12.3125C6.52084 12.0208 6.63542 11.75 6.78125 11.5C6.92709 11.2292 7.13542 11 7.40625 10.8125C7.44792 10.8125 7.47917 10.8125 7.5 10.8125C7.54167 10.7917 7.58334 10.7812 7.625 10.7812C7.8125 10.7812 7.95834 10.8333 8.0625 10.9375C8.16667 11.0208 8.32292 11.0521 8.53125 11.0312C8.90625 11.5729 9.19794 12.1458 9.40624 12.75C9.63544 13.3542 9.75004 13.9896 9.75004 14.6562C9.75004 15.1562 9.67704 15.6458 9.53124 16.125C9.38544 16.6041 9.31254 17.1041 9.31254 17.625C9.31254 17.8333 9.32294 18.0416 9.34374 18.25C9.36454 18.4583 9.37504 18.6666 9.37504 18.875C9.37504 19.0833 9.34374 19.2916 9.28124 19.5C9.23954 19.6875 9.14584 19.8541 9 20C9.04167 20.4166 9.07292 20.8437 9.09375 21.2812C9.11459 21.6979 9.125 22.1145 9.125 22.5312C9.125 23.7188 9.05209 24.9062 8.90625 26.0938C8.76042 27.2812 8.59375 28.4688 8.40625 29.6562C8.21875 30.8438 8.05209 32.0312 7.90625 33.2188C7.76042 34.4062 7.6875 35.6041 7.6875 36.8125V37.7188C7.6875 38.0105 7.70834 38.3125 7.75 38.625C7.625 38.9166 7.5625 39.2291 7.5625 39.5625C7.5625 40.0208 7.66667 40.4688 7.875 40.9062C8.08334 41.3438 8.33334 41.7395 8.625 42.0938C8.72917 42.1146 8.82292 42.125 8.90625 42.125C9.01042 42.1458 9.11459 42.1562 9.21874 42.1562C9.76044 42.1562 10.2395 42.0416 10.6562 41.8125C11.0937 41.5833 11.5 41.302 11.875 40.9688C12.2708 40.6355 12.6562 40.2916 13.0312 39.9375C13.4062 39.5833 13.8125 39.2916 14.25 39.0625C14.9166 38.2083 15.5416 37.3541 16.125 36.5C16.7083 35.625 17.2708 34.7188 17.8125 33.7812C17.8541 33.2812 17.9791 32.7812 18.1875 32.2812C18.4166 31.7605 18.6458 31.25 18.875 30.75C19.125 30.25 19.3437 29.7605 19.5312 29.2812C19.7395 28.802 19.8437 28.3438 19.8437 27.9062C19.8437 27.677 19.7708 27.5208 19.625 27.4375C19.8333 26.8958 19.9895 26.3333 20.0937 25.75C20.1979 25.1666 20.2812 24.5833 20.3437 24C20.427 23.4166 20.5104 22.8438 20.5937 22.2812C20.677 21.698 20.802 21.125 20.9687 20.5625C20.9687 20.4375 20.9583 20.3125 20.9375 20.1875C20.9375 20.0625 20.9375 19.9375 20.9375 19.8125C20.9375 18.8541 21.0312 17.9166 21.2187 17C21.4062 16.0625 21.5 15.1145 21.5 14.1562C21.5 13.9271 21.4791 13.7187 21.4375 13.5312C21.4166 13.3229 21.4062 13.125 21.4062 12.9375C21.4062 12.7708 21.4583 12.6667 21.5625 12.625C21.6875 12.5833 21.75 12.4687 21.75 12.2812C21.75 12.1146 21.7291 11.9375 21.6875 11.75C21.6666 11.5625 21.6562 11.3646 21.6562 11.1562C21.6562 10.5104 21.7187 9.875 21.8437 9.25C21.9687 8.625 22.0312 7.98958 22.0312 7.34375V6.96875C22.0312 6.82292 22.0104 6.6875 21.9687 6.5625C22.1145 6.33333 22.3125 6.1875 22.5625 6.125C22.8125 6.04167 23.052 6 23.2812 6C23.6562 6 23.9687 6.04167 24.2187 6.125C24.6145 7.1875 24.9479 8.28125 25.2187 9.40625C25.4895 10.5104 25.7083 11.6354 25.875 12.7812C25.9166 13.0521 25.9687 13.3437 26.0312 13.6562C26.1145 13.9479 26.1562 14.2396 26.1562 14.5312C26.1562 14.5937 26.1354 14.6667 26.0937 14.75C26.0729 14.8333 26.052 14.9167 26.0312 15C26.0104 15.1666 25.9895 15.3333 25.9687 15.5C25.9687 15.6666 25.9687 15.8333 25.9687 16C25.9687 16.5 26 17 26.0625 17.5C26.125 18 26.1562 18.5104 26.1562 19.0312C26.1562 19.6145 26.0729 20.177 25.9062 20.7187C25.7604 21.2395 25.6458 21.7916 25.5625 22.375C25.4791 22.9791 25.4479 23.573 25.4687 24.1562C25.4895 24.7395 25.4479 25.3333 25.3437 25.9375C25.302 26.1875 25.2395 26.4375 25.1562 26.6875C25.0729 26.9166 25.0312 27.1666 25.0312 27.4375C25.0312 27.625 25.0416 27.8125 25.0625 28C25.1041 28.1875 25.125 28.3855 25.125 28.5938C25.125 28.9062 25.052 29.1458 24.9062 29.3125C24.9479 29.4791 24.9791 29.6355 25 29.7812C25.0208 29.9062 25.0625 30.052 25.125 30.2188C25.0208 30.3438 24.9479 30.4791 24.9062 30.625C24.8645 30.7708 24.8437 30.927 24.8437 31.0938C24.8437 31.302 24.8541 31.5 24.875 31.6875C24.8958 31.8541 24.9062 32.0312 24.9062 32.2188C24.9062 32.6562 24.8333 33.073 24.6875 33.4688C24.5625 33.8645 24.4791 34.2708 24.4375 34.6875C24.4166 34.9791 24.4062 35.2708 24.4062 35.5625C24.427 35.8333 24.4375 36.1145 24.4375 36.4062C24.4375 36.7188 24.4166 37.0208 24.375 37.3125C24.3541 37.6041 24.2708 37.8958 24.125 38.1875C24.1666 38.3125 24.2187 38.4375 24.2812 38.5625C24.3437 38.6875 24.4375 38.7812 24.5625 38.8438C24.5625 39.4895 24.6458 40.1458 24.8125 40.8125C25 41.4583 25.25 42.073 25.5625 42.6562C25.625 42.7812 25.7187 42.875 25.8437 42.9375C25.9687 43 26.0833 43.0625 26.1875 43.125C26.2916 43.2083 26.375 43.3021 26.4375 43.4062C26.5 43.5104 26.5104 43.6666 26.4687 43.875C26.5104 43.8958 26.5729 43.9062 26.6562 43.9062C26.8229 43.9062 26.9583 43.8646 27.0625 43.7812C27.1875 43.6979 27.3333 43.6562 27.5 43.6562H27.7187C27.9062 43.8438 28.0937 44.0625 28.2812 44.3125C28.4895 44.5625 28.5937 44.8333 28.5937 45.125ZM50.8437 20.875C50.802 21.125 50.7395 21.3437 50.6562 21.5312C50.5937 21.6979 50.5833 21.927 50.625 22.2188C50.4166 22.2396 50.25 22.3125 50.125 22.4375C50.0208 22.5416 49.927 22.6666 49.8437 22.8125C49.7812 22.9583 49.7083 23.1145 49.625 23.2812C49.5625 23.427 49.4791 23.5625 49.375 23.6875C49.5416 24.4375 49.6354 25.198 49.6562 25.9688C49.677 26.7395 49.7291 27.5 49.8125 28.25C49.9166 29.2083 50.0729 30.1562 50.2812 31.0938C50.5104 32.0105 50.625 32.948 50.625 33.9062C50.625 34.198 50.6145 34.4688 50.5937 34.7188C50.5937 34.9688 50.5937 35.2291 50.5937 35.5C50.5937 35.6666 50.5937 35.8438 50.5937 36.0312C50.6145 36.198 50.625 36.3645 50.625 36.5312C50.625 37.1355 50.5416 37.7395 50.375 38.3438C50.2291 38.948 50.1145 39.552 50.0312 40.1562C49.7812 40.3855 49.5625 40.6355 49.375 40.9062C49.2083 41.177 49.0312 41.427 48.8437 41.6562C48.6562 41.8855 48.4375 42.0833 48.1875 42.25C47.9375 42.4375 47.625 42.5625 47.25 42.625C47.1875 42.8333 47.0625 42.9896 46.875 43.0938C46.7083 43.1979 46.5625 43.3438 46.4375 43.5312H46.375C45.8541 43.5312 45.4062 43.4583 45.0312 43.3125C44.6562 43.1666 44.302 43 43.9687 42.8125C43.6562 42.625 43.3333 42.427 43 42.2188C42.6666 42.0105 42.2812 41.8438 41.8437 41.7188C41.2604 41.2395 40.7291 40.7188 40.25 40.1562C39.7708 39.573 39.2291 39.052 38.625 38.5938C38.4791 38.177 38.2812 37.8333 38.0312 37.5625C37.802 37.2916 37.5729 36.9791 37.3437 36.625C37.2395 36.4791 37.1562 36.3438 37.0937 36.2188C37.052 36.0938 36.9895 35.948 36.9062 35.7812C36.8437 35.6145 36.7395 35.5 36.5937 35.4375C36.4687 35.375 36.3541 35.3021 36.25 35.2188C36.0833 34.573 35.8437 33.9791 35.5312 33.4375C35.2187 32.8958 34.8541 32.375 34.4375 31.875C34.3125 32.1041 34.2083 32.3541 34.125 32.625C34.0625 32.875 34 33.1355 33.9375 33.4062C33.875 33.6562 33.7916 33.9166 33.6875 34.1875C33.6041 34.4375 33.4895 34.6666 33.3437 34.875V34.9688C33.3437 35.0729 33.3854 35.1354 33.4687 35.1562C33.552 35.1771 33.5937 35.2396 33.5937 35.3438C33.5937 35.3646 33.5833 35.3854 33.5625 35.4062C33.5625 35.4271 33.5625 35.4479 33.5625 35.4688C33.4583 35.5521 33.375 35.6562 33.3125 35.7812C33.2708 35.9062 33.1666 35.9791 33 36C33.0208 36.1041 33.0312 36.2083 33.0312 36.3125V36.5938C33.0312 37.198 32.9583 37.802 32.8125 38.4062C32.6875 39.0105 32.625 39.625 32.625 40.25V40.6562C32.625 40.802 32.6354 40.9375 32.6562 41.0625C32.6979 41.1875 32.7604 41.3125 32.8437 41.4375C32.927 41.5625 32.9687 41.6771 32.9687 41.7812C32.9687 41.927 32.9062 42.0625 32.7812 42.1875C32.927 42.2916 33.0937 42.4062 33.2812 42.5312C33.4687 42.6562 33.6354 42.7916 33.7812 42.9375C33.9479 43.1041 34.0833 43.2708 34.1875 43.4375C34.2916 43.625 34.3437 43.823 34.3437 44.0312C34.3437 44.3855 34.2291 44.6355 34 44.7812C33.7708 44.927 33.4895 45.0416 33.1562 45.125C32.8437 45.2083 32.5104 45.2812 32.1562 45.3438C31.8229 45.4271 31.5416 45.5625 31.3125 45.75H31.2187C30.9687 45.75 30.7812 45.677 30.6562 45.5312C30.5312 45.3855 30.3437 45.3125 30.0937 45.3125C29.6979 44.6666 29.427 43.9375 29.2812 43.125C29.1354 42.3333 29.0625 41.573 29.0625 40.8438C29.0625 39.948 29.1458 39.052 29.3125 38.1562C29.4583 37.2605 29.6458 36.375 29.875 35.5C30.0833 34.625 30.3125 33.7605 30.5625 32.9062C30.8333 32.0312 31.0833 31.1562 31.3125 30.2812L31.3437 30.1875C31.3437 30.0833 31.3125 30.0105 31.25 29.9688C31.2083 29.927 31.1875 29.8646 31.1875 29.7812C31.1875 29.7395 31.1979 29.7188 31.2187 29.7188C31.2812 29.5105 31.3437 29.3125 31.4062 29.125C31.4895 28.9375 31.552 28.7291 31.5937 28.5C31.7187 27.9166 31.802 27.323 31.8437 26.7188C31.9062 26.0938 31.9375 25.4791 31.9375 24.875C31.9583 24.2708 31.9791 23.6666 32 23.0625C32.0416 22.4375 32.1145 21.8229 32.2187 21.2187C32.3854 21.052 32.5416 20.875 32.6875 20.6875C32.8333 20.5 33.0208 20.3333 33.25 20.1875C33.6666 20.2083 34.0833 20.2708 34.5 20.375C34.9166 20.4791 35.3125 20.6458 35.6875 20.875C35.9375 21.7708 36.1041 22.6666 36.1875 23.5625C36.2916 24.4583 36.4583 25.3541 36.6875 26.25V26.3438C36.6875 26.4479 36.7395 26.5 36.8437 26.5C36.9687 26.4791 37.0625 26.5104 37.125 26.5938C37.0833 26.6562 37.052 26.7291 37.0312 26.8125C37.0312 26.8958 37.0312 26.9791 37.0312 27.0625V27.5938C37.0729 27.7605 37.125 27.9375 37.1875 28.125C37.25 28.3125 37.3854 28.427 37.5937 28.4688C37.6979 29.1355 37.8541 29.75 38.0625 30.3125C38.2708 30.875 38.5104 31.4166 38.7812 31.9375C39.052 32.4583 39.3437 32.9791 39.6562 33.5C39.9687 34 40.2916 34.5312 40.625 35.0938C41.1458 35.4895 41.5937 35.948 41.9687 36.4688C42.3437 36.9688 42.7187 37.4583 43.0937 37.9375C43.4895 38.3958 43.927 38.802 44.4062 39.1562C44.9062 39.5105 45.552 39.7291 46.3437 39.8125C46.4479 39.7291 46.5208 39.6145 46.5625 39.4688L46.7187 39.0312C46.7812 38.8855 46.8437 38.7604 46.9062 38.6562C46.9895 38.5312 47.1041 38.4375 47.25 38.375C47.2916 37.7916 47.3333 37.198 47.375 36.5938C47.4375 35.9895 47.5729 35.4166 47.7812 34.875C47.677 34.6875 47.625 34.4583 47.625 34.1875C47.625 33.9791 47.6354 33.7812 47.6562 33.5938C47.6979 33.4062 47.7187 33.2188 47.7187 33.0312C47.7187 32.6355 47.6354 32.3125 47.4687 32.0625C47.4687 31.9166 47.4791 31.7708 47.5 31.625C47.5208 31.4583 47.5833 31.302 47.6875 31.1562C47.5208 30.7395 47.3854 30.302 47.2812 29.8438C47.1979 29.3855 47.1562 28.9166 47.1562 28.4375C47.1562 28.1666 47.1875 27.8855 47.25 27.5938C47.125 27.2812 47.0416 26.9166 47 26.5L46.875 25.2188C46.8333 24.7812 46.7708 24.375 46.6875 24C46.6041 23.625 46.4479 23.323 46.2187 23.0938C46.3437 22.9062 46.4062 22.6875 46.4062 22.4375C46.4062 22.0208 46.3437 21.625 46.2187 21.25C46.0937 20.875 46.0312 20.4791 46.0312 20.0625C46.0312 19.7708 46.0937 19.4791 46.2187 19.1875C46.677 19.2083 47.125 19.2604 47.5625 19.3437C48.0208 19.4062 48.4687 19.4375 48.9062 19.4375C49.0312 19.6041 49.177 19.7395 49.3437 19.8437C49.5104 19.9479 49.6875 20.052 49.875 20.1562C50.0625 20.2395 50.2395 20.3333 50.4062 20.4375C50.5937 20.5416 50.7395 20.6875 50.8437 20.875ZM80.25 21.4375H80.125C80.0833 21.4166 80.0416 21.4166 80 21.4375C79.9583 21.4583 79.9375 21.4895 79.9375 21.5312C79.9791 21.6979 80 21.8125 80 21.875C80 22.125 79.9166 22.3438 79.75 22.5312C79.6041 22.698 79.5312 22.8438 79.5312 22.9688C79.5312 23.0312 79.5625 23.0833 79.625 23.125C79.7083 23.1666 79.7708 23.1979 79.8125 23.2188C79.7083 23.3438 79.6145 23.4791 79.5312 23.625C79.4479 23.7708 79.3541 23.8958 79.25 24C79.2916 24.7291 79.375 25.448 79.5 26.1562C79.6458 26.8438 79.7187 27.5416 79.7187 28.25C79.7187 28.6041 79.677 28.9583 79.5937 29.3125C79.5312 29.6458 79.4583 29.9895 79.375 30.3438C79.2916 30.677 79.2083 31.0208 79.125 31.375C79.0625 31.7083 79.0312 32.052 79.0312 32.4062C78.7604 32.948 78.4687 33.4688 78.1562 33.9688C77.8437 34.448 77.6145 34.9791 77.4687 35.5625C76.9895 35.8541 76.5729 36.2188 76.2187 36.6562C75.8854 37.073 75.552 37.4895 75.2187 37.9062C74.4895 38.1562 73.8229 38.4895 73.2187 38.9062C73.1145 38.9271 73.0208 38.9375 72.9375 38.9375H72.6875C71.8958 38.9375 71.2187 38.7916 70.6562 38.5C70.0937 38.2083 69.6041 37.8333 69.1875 37.375C68.7916 36.8958 68.4479 36.3541 68.1562 35.75C67.8645 35.1458 67.5937 34.5208 67.3437 33.875C66.8645 34.2291 66.427 34.6355 66.0312 35.0938C65.6562 35.5312 65.2708 35.9688 64.875 36.4062C64.75 36.573 64.5937 36.7708 64.4062 37C64.2395 37.2083 64.0729 37.3646 63.9062 37.4688C63.8229 37.5105 63.7291 37.552 63.625 37.5938C63.5416 37.6146 63.4479 37.6458 63.3437 37.6875C62.7604 38.0208 62.302 38.4688 61.9687 39.0312C61.552 39.198 61.1458 39.3855 60.75 39.5938C60.375 39.802 60.0104 40.0208 59.6562 40.25C59.2604 40.2708 58.8645 40.302 58.4687 40.3438C58.0937 40.3646 57.7187 40.375 57.3437 40.375C56.7604 40.375 56.3437 40.3438 56.0937 40.2812C55.8645 40.1979 55.677 40.1041 55.5312 40C55.4062 39.875 55.2708 39.7291 55.125 39.5625C55 39.3958 54.75 39.2188 54.375 39.0312C54.2708 38.7605 54.1666 38.4895 54.0625 38.2188C53.9791 37.948 53.8541 37.698 53.6875 37.4688V37.0312C53.6875 36.8438 53.677 36.6666 53.6562 36.5C53.6562 36.3333 53.625 36.1875 53.5625 36.0625C53.5 35.9166 53.3958 35.823 53.25 35.7812C53.25 35.0105 53.3437 34.25 53.5312 33.5C53.7187 32.75 53.875 31.9895 54 31.2188C54.1041 30.7812 54.1666 30.3333 54.1875 29.875C54.2083 29.7708 54.2187 29.6562 54.2187 29.5312C54.2187 29.4062 54.2395 29.2812 54.2812 29.1562C54.3229 29.0312 54.3958 28.9271 54.5 28.8438C54.6041 28.7604 54.677 28.6355 54.7187 28.4688C54.8229 28.177 54.8854 27.8541 54.9062 27.5C54.927 27.1458 54.9583 26.8125 55 26.5C55.1041 25.875 55.2187 25.25 55.3437 24.625C55.4895 24 55.6562 23.3855 55.8437 22.7812C55.8229 22.6771 55.8125 22.5833 55.8125 22.5V22.1875C55.8125 21.3958 55.8645 20.625 55.9687 19.875C56.0937 19.125 56.1562 18.3541 56.1562 17.5625C56.1562 17.1875 56.125 16.7916 56.0625 16.375C56.1666 16.1666 56.2812 15.9791 56.4062 15.8125C56.552 15.625 56.7395 15.4791 56.9687 15.375C57.4062 15.6041 57.8333 15.8541 58.25 16.125C58.6875 16.375 59.1041 16.6562 59.5 16.9687V17.7187C59.5 18.3229 59.4791 18.9687 59.4375 19.6562C59.4166 20.3229 59.3541 21 59.25 21.6875C59.1666 22.375 59.052 23.0416 58.9062 23.6875C58.7604 24.3333 58.5625 24.927 58.3125 25.4688V26.4688C57.9375 27.1355 57.6875 27.8333 57.5625 28.5625C57.4375 29.2916 57.2916 30.0208 57.125 30.75C57.0833 30.9791 57 31.25 56.875 31.5625C56.75 31.875 56.6875 32.1458 56.6875 32.375C56.6875 32.4791 56.6979 32.5833 56.7187 32.6875C56.7604 32.7916 56.7916 32.8958 56.8125 33C56.6458 33.375 56.552 33.7812 56.5312 34.2188C56.5312 34.6355 56.4791 35.052 56.375 35.4688C56.5416 35.7395 56.6875 36.0312 56.8125 36.3438C56.9583 36.6355 57.1145 36.9375 57.2812 37.25L57.5937 37.2188C57.7812 37.2188 57.9791 37.2395 58.1875 37.2812C58.3958 37.3021 58.5937 37.3125 58.7812 37.3125C58.8854 37.3125 58.9895 37.3125 59.0937 37.3125C59.1979 37.2916 59.302 37.2708 59.4062 37.25C59.5312 37.0208 59.6979 36.8438 59.9062 36.7188C60.1145 36.573 60.3229 36.4479 60.5312 36.3438C60.7604 36.2396 60.9687 36.125 61.1562 36C61.3645 35.875 61.5312 35.698 61.6562 35.4688H62.0937C62.1354 35.4062 62.2083 35.3229 62.3125 35.2188C62.4375 35.1146 62.552 35.0104 62.6562 34.9062C62.7604 34.8021 62.8437 34.6979 62.9062 34.5938C62.9895 34.4896 63.0208 34.4062 63 34.3438C63.25 34.2396 63.4583 34.1041 63.625 33.9375C63.8125 33.75 63.9895 33.5625 64.1562 33.375C64.3229 33.1666 64.4895 32.9688 64.6562 32.7812C64.8229 32.5938 65.0208 32.4375 65.25 32.3125C65.2291 32.2708 65.2187 32.2188 65.2187 32.1562C65.2187 31.9688 65.2708 31.8229 65.375 31.7188C65.5 31.6146 65.5312 31.427 65.4687 31.1562L65.5625 31.1875C65.6666 31.1875 65.7395 31.1562 65.7812 31.0938C65.8229 31.0312 65.8541 30.9583 65.875 30.875C65.9166 30.7916 65.9583 30.7188 66 30.6562C66.0625 30.5729 66.1458 30.5208 66.25 30.5V30.4375C66.25 30.0625 66.3229 29.7083 66.4687 29.375C66.6354 29.0416 66.7187 28.6875 66.7187 28.3125C66.7187 28.2083 66.7083 28.1146 66.6875 28.0312C66.6666 27.9271 66.6354 27.8229 66.5937 27.7188C66.7812 27.5105 66.8958 27.2708 66.9375 27C67 26.7291 67.0312 26.448 67.0312 26.1562C67.052 25.8645 67.0729 25.573 67.0937 25.2812C67.1145 24.9895 67.1979 24.7083 67.3437 24.4375C67.3437 24.2291 67.2708 24.0833 67.125 24L67.5 23.5C67.625 23.3333 67.7708 23.1979 67.9375 23.0938H68C68.2291 23.0938 68.427 23.1562 68.5937 23.2812C68.7812 23.3854 68.9479 23.5105 69.0937 23.6562C69.2604 23.7812 69.427 23.9166 69.5937 24.0625C69.7604 24.1875 69.9479 24.2812 70.1562 24.3438V25.0312C70.3645 25.1146 70.5208 25.2605 70.625 25.4688C70.6041 26.0312 70.5833 26.5938 70.5625 27.1562C70.5625 27.7188 70.5625 28.2708 70.5625 28.8125C70.5625 29.6458 70.5833 30.4791 70.625 31.3125C70.6666 32.125 70.7708 32.9375 70.9375 33.75C71.1666 33.9791 71.3958 34.2083 71.625 34.4375C71.875 34.6666 72.0625 34.927 72.1875 35.2188H72.5625C73.2916 35.2188 73.8541 34.9895 74.25 34.5312C74.6458 34.052 74.927 33.5 75.0937 32.875C75.4062 32.7291 75.6354 32.5312 75.7812 32.2812C75.9479 32.0105 76.0729 31.7188 76.1562 31.4062C76.2604 31.0938 76.3437 30.7812 76.4062 30.4688C76.4895 30.1355 76.6145 29.8438 76.7812 29.5938C76.802 29.3438 76.8125 29.0938 76.8125 28.8438V28.0625C76.8125 26.8541 76.75 25.6562 76.625 24.4688C76.5208 23.2605 76.4583 22.0625 76.4375 20.875C76.3541 20.7083 76.2916 20.5104 76.25 20.2812L76.1562 19.5937C76.1354 19.3645 76.0833 19.1562 76 18.9687C75.9375 18.7604 75.8333 18.6145 75.6875 18.5312C75.75 18.3229 75.7812 18.0729 75.7812 17.7812C75.7812 17.5104 75.75 17.2395 75.6875 16.9687C75.6458 16.6979 75.5937 16.427 75.5312 16.1562C75.6979 16.0104 75.8333 15.8645 75.9375 15.7187C76.0416 15.5729 76.2187 15.5 76.4687 15.5C76.6145 15.5 76.7395 15.5416 76.8437 15.625C76.9687 15.7083 77.0833 15.802 77.1875 15.9062C77.2916 16.0104 77.3958 16.1041 77.5 16.1875C77.625 16.2708 77.7708 16.3125 77.9375 16.3125C77.9791 16.3125 78.0208 16.3125 78.0625 16.3125C78.125 16.2916 78.1875 16.2812 78.25 16.2812C78.4583 16.4895 78.625 16.75 78.75 17.0625C78.8958 17.375 79.0208 17.7083 79.125 18.0625C79.25 18.3958 79.375 18.7291 79.5 19.0625C79.6458 19.3958 79.8229 19.6979 80.0312 19.9687C80.0312 20.0312 80.0208 20.0937 80 20.1562C80 20.1979 80 20.25 80 20.3125C80 20.5 80.0312 20.6875 80.0937 20.875C80.1562 21.0625 80.2083 21.25 80.25 21.4375ZM89 37.125C88.8958 37.2916 88.7708 37.448 88.625 37.5938C88.4791 37.7188 88.3437 37.8541 88.2187 38C88.0729 38.0625 87.9062 38.0938 87.7187 38.0938C87.552 38.0938 87.3854 38.0938 87.2187 38.0938C87.0729 38.0729 86.927 38.0729 86.7812 38.0938C86.6562 38.0938 86.552 38.1354 86.4687 38.2188C86.302 38.177 86.177 38.1041 86.0937 38C86.0104 37.875 85.8645 37.8021 85.6562 37.7812C85.5729 37.7604 85.4895 37.7604 85.4062 37.7812C85.0937 37.427 84.802 37.052 84.5312 36.6562C84.2812 36.2605 84.0416 35.8855 83.8125 35.5312C83.7916 34.7605 83.7291 33.9791 83.625 33.1875C83.6041 33 83.5729 32.8125 83.5312 32.625C83.4895 32.4375 83.4583 32.2605 83.4375 32.0938C83.4375 31.8855 83.4479 31.6875 83.4687 31.5C83.5104 31.2916 83.5416 31.1041 83.5625 30.9375C83.6458 30.3333 83.7395 29.7395 83.8437 29.1562C83.9479 28.573 84.0416 27.9791 84.125 27.375C84.2083 26.8333 84.25 26.2708 84.25 25.6875C84.25 25.0833 84.1562 24.5208 83.9687 24L83.9375 23.8438C83.9791 23.677 84.0208 23.5416 84.0625 23.4375C84.125 23.3125 84.1666 23.177 84.1875 23.0312C84.2291 22.802 84.177 22.6354 84.0312 22.5312C84.0937 22.3645 84.1979 22.2605 84.3437 22.2188C84.4895 22.1562 84.5729 22.0312 84.5937 21.8437C84.6145 21.7604 84.6145 21.677 84.5937 21.5937C84.7604 21.5312 84.927 21.4791 85.0937 21.4375C85.2812 21.375 85.4583 21.3645 85.625 21.4062C85.8958 21.4479 86.1354 21.5416 86.3437 21.6875C86.552 21.8125 86.75 21.9583 86.9375 22.125C87.2708 23.125 87.4062 24.1875 87.3437 25.3125C87.2812 26.4166 87.177 27.5312 87.0312 28.6562C86.8854 29.7812 86.7916 30.8855 86.75 31.9688C86.7083 33.0312 86.875 34.0208 87.25 34.9375L87.3125 34.9688C87.4166 34.9896 87.5 34.9583 87.5625 34.875C87.625 34.7708 87.7083 34.7291 87.8125 34.75C87.8958 34.7916 87.9479 34.8125 87.9687 34.8125C88.052 35.2291 88.1875 35.625 88.375 36C88.5625 36.375 88.7708 36.75 89 37.125ZM112.532 20.875C112.49 21.125 112.428 21.3437 112.344 21.5312C112.282 21.6979 112.271 21.927 112.313 22.2188C112.105 22.2396 111.938 22.3125 111.813 22.4375C111.709 22.5416 111.615 22.6666 111.532 22.8125C111.469 22.9583 111.396 23.1145 111.313 23.2812C111.25 23.427 111.167 23.5625 111.063 23.6875C111.23 24.4375 111.323 25.198 111.344 25.9688C111.365 26.7395 111.417 27.5 111.5 28.25C111.605 29.2083 111.761 30.1562 111.969 31.0938C112.198 32.0105 112.313 32.948 112.313 33.9062C112.313 34.198 112.303 34.4688 112.282 34.7188C112.282 34.9688 112.282 35.2291 112.282 35.5C112.282 35.6666 112.282 35.8438 112.282 36.0312C112.303 36.198 112.313 36.3645 112.313 36.5312C112.313 37.1355 112.23 37.7395 112.063 38.3438C111.917 38.948 111.803 39.552 111.719 40.1562C111.469 40.3855 111.25 40.6355 111.063 40.9062C110.896 41.177 110.719 41.427 110.532 41.6562C110.344 41.8855 110.125 42.0833 109.875 42.25C109.625 42.4375 109.313 42.5625 108.938 42.625C108.875 42.8333 108.75 42.9896 108.563 43.0938C108.396 43.1979 108.25 43.3438 108.125 43.5312H108.063C107.542 43.5312 107.094 43.4583 106.719 43.3125C106.344 43.1666 105.99 43 105.657 42.8125C105.344 42.625 105.021 42.427 104.688 42.2188C104.355 42.0105 103.969 41.8438 103.532 41.7188C102.948 41.2395 102.417 40.7188 101.938 40.1562C101.459 39.573 100.917 39.052 100.313 38.5938C100.167 38.177 99.9685 37.8333 99.7185 37.5625C99.4895 37.2916 99.2605 36.9791 99.0312 36.625C98.927 36.4791 98.8437 36.3438 98.7812 36.2188C98.7395 36.0938 98.677 35.948 98.5937 35.7812C98.5312 35.6145 98.427 35.5 98.2812 35.4375C98.1562 35.375 98.0416 35.3021 97.9375 35.2188C97.7708 34.573 97.5312 33.9791 97.2187 33.4375C96.9062 32.8958 96.5416 32.375 96.125 31.875C96 32.1041 95.8958 32.3541 95.8125 32.625C95.75 32.875 95.6875 33.1355 95.625 33.4062C95.5625 33.6562 95.4791 33.9166 95.375 34.1875C95.2916 34.4375 95.177 34.6666 95.0312 34.875V34.9688C95.0312 35.0729 95.0729 35.1354 95.1562 35.1562C95.2395 35.1771 95.2812 35.2396 95.2812 35.3438C95.2812 35.3646 95.2708 35.3854 95.25 35.4062C95.25 35.4271 95.25 35.4479 95.25 35.4688C95.1458 35.5521 95.0625 35.6562 95 35.7812C94.9583 35.9062 94.8541 35.9791 94.6875 36C94.7083 36.1041 94.7187 36.2083 94.7187 36.3125V36.5938C94.7187 37.198 94.6458 37.802 94.5 38.4062C94.375 39.0105 94.3125 39.625 94.3125 40.25V40.6562C94.3125 40.802 94.3229 40.9375 94.3437 41.0625C94.3854 41.1875 94.4479 41.3125 94.5312 41.4375C94.6145 41.5625 94.6562 41.6771 94.6562 41.7812C94.6562 41.927 94.5937 42.0625 94.4687 42.1875C94.6145 42.2916 94.7812 42.4062 94.9687 42.5312C95.1562 42.6562 95.3229 42.7916 95.4687 42.9375C95.6354 43.1041 95.7708 43.2708 95.875 43.4375C95.9791 43.625 96.0312 43.823 96.0312 44.0312C96.0312 44.3855 95.9166 44.6355 95.6875 44.7812C95.4583 44.927 95.177 45.0416 94.8437 45.125C94.5312 45.2083 94.1979 45.2812 93.8437 45.3438C93.5104 45.4271 93.2291 45.5625 93 45.75H92.9062C92.6562 45.75 92.4687 45.677 92.3437 45.5312C92.2187 45.3855 92.0312 45.3125 91.7812 45.3125C91.3854 44.6666 91.1145 43.9375 90.9687 43.125C90.8229 42.3333 90.75 41.573 90.75 40.8438C90.75 39.948 90.8333 39.052 91 38.1562C91.1458 37.2605 91.3333 36.375 91.5625 35.5C91.7708 34.625 92 33.7605 92.25 32.9062C92.5208 32.0312 92.7708 31.1562 93 30.2812L93.0312 30.1875C93.0312 30.0833 93 30.0105 92.9375 29.9688C92.8958 29.927 92.875 29.8646 92.875 29.7812C92.875 29.7395 92.8854 29.7188 92.9062 29.7188C92.9687 29.5105 93.0312 29.3125 93.0937 29.125C93.177 28.9375 93.2395 28.7291 93.2812 28.5C93.4062 27.9166 93.4895 27.323 93.5312 26.7188C93.5937 26.0938 93.625 25.4791 93.625 24.875C93.6458 24.2708 93.6666 23.6666 93.6875 23.0625C93.7291 22.4375 93.802 21.8229 93.9062 21.2187C94.0729 21.052 94.2291 20.875 94.375 20.6875C94.5208 20.5 94.7083 20.3333 94.9375 20.1875C95.3541 20.2083 95.7708 20.2708 96.1875 20.375C96.6041 20.4791 97 20.6458 97.375 20.875C97.625 21.7708 97.7916 22.6666 97.875 23.5625C97.9791 24.4583 98.1458 25.3541 98.375 26.25V26.3438C98.375 26.4479 98.427 26.5 98.5312 26.5C98.6562 26.4791 98.75 26.5104 98.8125 26.5938C98.7708 26.6562 98.7395 26.7291 98.7187 26.8125C98.7187 26.8958 98.7187 26.9791 98.7187 27.0625V27.5938C98.7604 27.7605 98.8125 27.9375 98.875 28.125C98.9375 28.3125 99.0729 28.427 99.2815 28.4688C99.3855 29.1355 99.5415 29.75 99.7495 30.3125C99.9585 30.875 100.198 31.4166 100.469 31.9375C100.74 32.4583 101.032 32.9791 101.344 33.5C101.657 34 101.98 34.5312 102.313 35.0938C102.834 35.4895 103.282 35.948 103.657 36.4688C104.032 36.9688 104.407 37.4583 104.782 37.9375C105.178 38.3958 105.615 38.802 106.094 39.1562C106.594 39.5105 107.24 39.7291 108.032 39.8125C108.136 39.7291 108.209 39.6145 108.25 39.4688L108.407 39.0312C108.469 38.8855 108.532 38.7604 108.594 38.6562C108.678 38.5312 108.792 38.4375 108.938 38.375C108.98 37.7916 109.021 37.198 109.063 36.5938C109.125 35.9895 109.261 35.4166 109.469 34.875C109.365 34.6875 109.313 34.4583 109.313 34.1875C109.313 33.9791 109.323 33.7812 109.344 33.5938C109.386 33.4062 109.407 33.2188 109.407 33.0312C109.407 32.6355 109.323 32.3125 109.157 32.0625C109.157 31.9166 109.167 31.7708 109.188 31.625C109.209 31.4583 109.271 31.302 109.375 31.1562C109.209 30.7395 109.073 30.302 108.969 29.8438C108.886 29.3855 108.844 28.9166 108.844 28.4375C108.844 28.1666 108.875 27.8855 108.938 27.5938C108.813 27.2812 108.73 26.9166 108.688 26.5L108.563 25.2188C108.521 24.7812 108.459 24.375 108.375 24C108.292 23.625 108.136 23.323 107.907 23.0938C108.032 22.9062 108.094 22.6875 108.094 22.4375C108.094 22.0208 108.032 21.625 107.907 21.25C107.782 20.875 107.719 20.4791 107.719 20.0625C107.719 19.7708 107.782 19.4791 107.907 19.1875C108.365 19.2083 108.813 19.2604 109.25 19.3437C109.709 19.4062 110.157 19.4375 110.594 19.4375C110.719 19.6041 110.865 19.7395 111.032 19.8437C111.198 19.9479 111.375 20.052 111.563 20.1562C111.75 20.2395 111.928 20.3333 112.094 20.4375C112.282 20.5416 112.428 20.6875 112.532 20.875ZM135.438 21.5312V21.6562C135.292 21.6979 135.219 21.802 135.219 21.9687C134.99 22.0729 134.75 22.1562 134.5 22.2188C134.25 22.2605 134.011 22.3333 133.782 22.4375C133.553 22.4166 133.313 22.4062 133.063 22.4062C132.834 22.3854 132.605 22.375 132.375 22.375C131.75 22.375 131.125 22.3958 130.5 22.4375C129.875 22.4791 129.25 22.4791 128.625 22.4375C128.334 22.6041 128.011 22.7396 127.657 22.8438C127.323 22.9271 127 22.9688 126.688 22.9688C126.438 22.9688 126.219 22.9375 126.032 22.875C125.532 23.125 124.98 23.3333 124.375 23.5C123.792 23.6666 123.198 23.8333 122.594 24C121.99 24.1458 121.407 24.323 120.844 24.5312C120.303 24.7188 119.823 24.9895 119.407 25.3438C119.365 25.6355 119.334 25.927 119.313 26.2188C119.292 26.4895 119.282 26.7605 119.282 27.0312C119.282 27.323 119.292 27.5938 119.313 27.8438C119.355 28.0938 119.428 28.3438 119.532 28.5938C119.636 28.6355 119.75 28.6666 119.875 28.6875C120.021 28.7083 120.146 28.7188 120.25 28.7188C120.355 28.7188 120.459 28.7083 120.563 28.6875C120.667 28.6458 120.74 28.5729 120.782 28.4688C121.094 28.427 121.407 28.4166 121.719 28.4375C122.032 28.4375 122.344 28.4375 122.657 28.4375C122.969 28.4375 123.271 28.4271 123.563 28.4062C123.875 28.3854 124.178 28.3333 124.469 28.25C124.803 28.1666 125.125 28.1146 125.438 28.0938C125.771 28.0729 126.094 28.0521 126.407 28.0312C126.719 28.0104 127.042 27.9791 127.375 27.9375C127.709 27.875 128.053 27.7605 128.407 27.5938C128.678 27.6979 128.948 27.75 129.219 27.75C129.511 27.75 129.792 27.7708 130.063 27.8125C130.209 27.9166 130.323 28.0312 130.407 28.1562C130.511 28.2812 130.563 28.427 130.563 28.5938C130.563 28.8855 130.459 29.177 130.25 29.4688C130.042 29.7605 129.875 30.0312 129.75 30.2812H129.407C128.907 30.2812 128.417 30.3541 127.938 30.5C127.48 30.625 127.011 30.7812 126.532 30.9688C126.073 31.1355 125.605 31.2916 125.125 31.4375C124.667 31.5625 124.188 31.625 123.688 31.625C123.605 31.625 123.553 31.6771 123.532 31.7812C123.532 31.8646 123.511 31.927 123.469 31.9688C123.365 31.9479 123.209 31.9375 123 31.9375C122.521 31.9375 122.063 31.9896 121.625 32.0938C121.188 32.1979 120.74 32.25 120.282 32.25C120.157 32.25 120.032 32.25 119.907 32.25C119.782 32.2291 119.657 32.2083 119.532 32.1875C119.428 32.3541 119.292 32.4688 119.125 32.5312C118.959 32.573 118.803 32.6562 118.657 32.7812C118.594 32.9688 118.553 33.198 118.532 33.4688C118.532 33.7395 118.521 34.0208 118.5 34.3125C118.5 34.5833 118.48 34.8438 118.438 35.0938C118.396 35.3438 118.313 35.5416 118.188 35.6875C118.209 35.7916 118.292 35.8333 118.438 35.8125C118.584 35.7708 118.657 35.8333 118.657 36C118.657 36.1875 118.636 36.3855 118.594 36.5938C118.553 36.802 118.532 37.0105 118.532 37.2188C118.532 37.6145 118.573 38.052 118.657 38.5312C118.761 38.9895 118.907 39.4166 119.094 39.8125C119.303 40.2083 119.573 40.5416 119.907 40.8125C120.24 41.0625 120.657 41.1875 121.157 41.1875C121.49 41.1875 121.803 41.125 122.094 41C122.386 40.875 122.625 40.6666 122.813 40.375L122.969 40.3438C123.053 40.3438 123.125 40.3541 123.188 40.375C123.271 40.3958 123.355 40.4062 123.438 40.4062C123.563 40.4062 123.719 40.3333 123.907 40.1875C124.115 40.0208 124.334 39.8333 124.563 39.625C124.813 39.4166 125.063 39.2188 125.313 39.0312C125.563 38.823 125.803 38.6771 126.032 38.5938C126.178 38.302 126.313 38.0105 126.438 37.7188C126.584 37.427 126.792 37.198 127.063 37.0312V36.125C127.271 35.8958 127.49 35.6875 127.719 35.5C127.969 35.3125 128.157 35.073 128.282 34.7812C128.386 34.823 128.48 34.8541 128.563 34.875C128.667 34.8958 128.771 34.9062 128.875 34.9062C128.98 34.9062 129.084 34.8958 129.188 34.875C129.313 34.8541 129.428 34.823 129.532 34.7812C129.698 35.0105 129.823 35.2708 129.907 35.5625C130.011 35.8333 130.136 36.0938 130.282 36.3438C130.094 36.7188 129.875 37.1666 129.625 37.6875C129.375 38.2083 129.105 38.7291 128.813 39.25C128.521 39.7708 128.209 40.2708 127.875 40.75C127.563 41.2083 127.25 41.5625 126.938 41.8125C126.875 41.875 126.74 41.9479 126.532 42.0312C126.303 42.198 126.094 42.3541 125.907 42.5C125.719 42.6666 125.542 42.8541 125.375 43.0625C124.771 43.25 124.188 43.5 123.625 43.8125C123.084 44.125 122.542 44.427 122 44.7188C121.75 44.6562 121.48 44.625 121.188 44.625C120.938 44.625 120.688 44.6354 120.438 44.6562C120.188 44.698 119.917 44.7188 119.625 44.7188C119.542 44.6146 119.417 44.5416 119.25 44.5C119.105 44.4791 119.053 44.375 119.094 44.1875C118.386 44.1458 117.813 43.948 117.375 43.5938C116.938 43.2605 116.563 42.8438 116.25 42.3438C115.959 41.8438 115.719 41.302 115.532 40.7188C115.344 40.1355 115.146 39.573 114.938 39.0312V38.9375C114.938 38.8333 114.98 38.7708 115.063 38.75C115.146 38.7291 115.188 38.6666 115.188 38.5625C115.188 38.5208 115.178 38.4896 115.157 38.4688C115.094 38.2395 115.042 38.0416 115 37.875C114.959 37.7083 114.938 37.5105 114.938 37.2812C114.938 36.948 114.959 36.625 115 36.3125C115.042 35.9791 115.063 35.6458 115.063 35.3125C115.063 34.9791 115.021 34.6875 114.938 34.4375C115.021 34.3333 115.094 34.198 115.157 34.0312C115.198 33.8438 115.23 33.6562 115.25 33.4688C115.271 33.2812 115.282 33.0938 115.282 32.9062C115.303 32.7188 115.334 32.552 115.375 32.4062C115.292 32.177 115.219 31.9791 115.157 31.8125C115.094 31.625 115.063 31.4062 115.063 31.1562V30.9375C115.271 30.5833 115.448 30.2188 115.594 29.8438C115.74 29.4688 115.896 29.0833 116.063 28.6875V28.5938C116.063 27.9895 116.042 27.3855 116 26.7812C115.959 26.177 115.938 25.573 115.938 24.9688V24.375C115.938 24.1666 115.948 23.9688 115.969 23.7812C116.136 23.6979 116.261 23.5833 116.344 23.4375C116.428 23.2916 116.553 23.1771 116.719 23.0938H117.75L117.938 22.7812C118 22.6771 118.042 22.5625 118.063 22.4375C118.292 22.375 118.511 22.2916 118.719 22.1875C118.948 22.0625 119.157 21.9375 119.344 21.8125C119.636 21.6458 119.896 21.5 120.125 21.375C120.375 21.2291 120.615 21.1145 120.844 21.0312C121.094 20.927 121.355 20.8437 121.625 20.7812C121.896 20.7187 122.209 20.6666 122.563 20.625C122.73 20.625 122.834 20.5937 122.875 20.5312C122.938 20.4687 123.021 20.3958 123.125 20.3125C123.375 20.3541 123.625 20.3958 123.875 20.4375C124.125 20.4583 124.375 20.4687 124.625 20.4687C125.125 20.4687 125.594 20.375 126.032 20.1875C126.657 20.1875 127.271 20.177 127.875 20.1562C128.5 20.1354 129.125 20.125 129.75 20.125C130.292 20.125 130.834 20.1458 131.375 20.1875C131.917 20.2291 132.448 20.302 132.969 20.4062C133.157 20.3437 133.365 20.3125 133.594 20.3125C133.844 20.3125 134.094 20.3437 134.344 20.4062C134.615 20.4479 134.875 20.4479 135.125 20.4062C135.146 20.6354 135.198 20.8333 135.282 21C135.386 21.1458 135.438 21.3229 135.438 21.5312ZM154.938 26C154.938 26.2083 154.865 26.3438 154.719 26.4062C154.573 26.4688 154.5 26.5938 154.5 26.7812C154.5 26.8438 154.521 26.8958 154.563 26.9375C154.605 26.9791 154.625 27.0416 154.625 27.125V27.25C154.375 28.4583 154.011 29.5105 153.532 30.4062C153.073 31.302 152.532 32.125 151.907 32.875C151.282 33.625 150.573 34.3333 149.782 35C149.011 35.6666 148.178 36.3645 147.282 37.0938C147.032 37.302 146.771 37.5105 146.5 37.7188C146.25 37.927 146.011 38.1458 145.782 38.375L145.094 39.0312C145.073 39.0521 144.959 39.1041 144.75 39.1875C144.542 39.25 144.417 39.2916 144.375 39.3125C144.084 39.4375 143.771 39.5833 143.438 39.75C143.125 39.9166 142.855 40.125 142.625 40.375C142.209 40.375 141.855 40.4375 141.563 40.5625C141.271 40.6875 140.948 40.8541 140.594 41.0625C140.49 41.0625 140.396 41.0416 140.313 41C140.25 40.9583 140.178 40.9166 140.094 40.875C140.011 40.8333 139.917 40.8125 139.813 40.8125C139.73 40.7916 139.615 40.802 139.469 40.8438C139.219 40.427 138.948 40.073 138.657 39.7812C138.365 39.4895 137.969 39.3125 137.469 39.25C137.407 38.8958 137.261 38.625 137.032 38.4375C136.803 38.2291 136.573 38.0105 136.344 37.7812C136.303 37.6562 136.271 37.5105 136.25 37.3438C136.23 37.177 136.188 37.0208 136.125 36.875C136.063 36.7291 135.98 36.6041 135.875 36.5C135.771 36.3958 135.625 36.3438 135.438 36.3438C135.417 36.2188 135.469 36.1562 135.594 36.1562C135.719 36.1562 135.782 36.1041 135.782 36C135.782 35.875 135.761 35.75 135.719 35.625C135.678 35.5 135.657 35.3645 135.657 35.2188C135.657 35.1146 135.667 35.0208 135.688 34.9375C135.709 34.8541 135.74 34.7604 135.782 34.6562C135.719 34.0938 135.688 33.5208 135.688 32.9375C135.688 31.8125 135.761 30.7083 135.907 29.625C136.073 28.5208 136.157 27.4062 136.157 26.2812C136.157 25.7812 136.125 25.2812 136.063 24.7812C136.021 24.2812 135.928 23.7916 135.782 23.3125C135.303 23.4166 134.823 23.5416 134.344 23.6875C133.865 23.8125 133.417 23.9895 133 24.2188C132.771 24.073 132.532 23.9896 132.282 23.9688C132.011 23.927 131.75 23.8646 131.5 23.7812C131.355 23.4895 131.282 23.1875 131.282 22.875C131.282 22.5833 131.334 22.302 131.438 22.0312L131.75 21.2187C132.25 21.1145 132.75 20.9583 133.25 20.75C133.73 20.5416 134.219 20.3541 134.719 20.1875C134.886 20.1458 135.094 20.0937 135.344 20.0312C135.615 19.9687 135.803 19.9166 135.907 19.875C136.053 19.8125 136.146 19.6979 136.188 19.5312C136.25 19.3437 136.334 19.1875 136.438 19.0625H136.969C137.094 19.0625 137.23 19.0729 137.375 19.0937C137.521 19.0937 137.657 19.125 137.782 19.1875C138.532 19 139.282 18.8854 140.032 18.8437C140.782 18.7812 141.553 18.6979 142.344 18.5937C142.428 18.5937 142.553 18.5833 142.719 18.5625L143.25 18.4687C143.438 18.427 143.605 18.3958 143.75 18.375C143.917 18.3333 144.032 18.3125 144.094 18.3125C144.157 18.3125 144.188 18.3437 144.188 18.4062H144.719C145.615 18.4062 146.49 18.5208 147.344 18.75L149.907 19.4375C150.261 19.7291 150.615 20.0104 150.969 20.2812C151.323 20.552 151.719 20.7916 152.157 21C152.261 21.3333 152.417 21.6041 152.625 21.8125C152.855 22 153.105 22.2083 153.375 22.4375C153.48 22.7083 153.615 23 153.782 23.3125C153.969 23.6041 154.146 23.9062 154.313 24.2188C154.48 24.5312 154.625 24.8438 154.75 25.1562C154.875 25.448 154.938 25.7291 154.938 26ZM152.032 26.4688C151.803 25.9895 151.584 25.4895 151.375 24.9688C151.167 24.448 150.907 23.9791 150.594 23.5625C150.219 23.4583 149.834 23.3333 149.438 23.1875C149.063 23.0208 148.803 22.7395 148.657 22.3438C148.615 22.3646 148.542 22.375 148.438 22.375C148.25 22.375 148.084 22.302 147.938 22.1562C147.792 22.0105 147.625 21.9166 147.438 21.875C147.271 21.8541 147.042 21.8229 146.75 21.7812C146.48 21.7395 146.188 21.7083 145.875 21.6875C145.563 21.6666 145.25 21.6458 144.938 21.625C144.646 21.6041 144.417 21.5937 144.25 21.5937C144.084 21.5937 143.907 21.6041 143.719 21.625C143.553 21.625 143.375 21.6354 143.188 21.6562C143.021 21.6562 142.917 21.6875 142.875 21.75C142.834 21.7916 142.75 21.8333 142.625 21.875C142.521 21.8333 142.407 21.8125 142.282 21.8125H141.907C141.469 21.8125 141.032 21.8855 140.594 22.0312C140.178 22.1562 139.761 22.3333 139.344 22.5625V22.6875C139.344 22.8541 139.417 22.9479 139.563 22.9688C139.709 22.9896 139.792 23.073 139.813 23.2188C139.709 23.2188 139.625 23.2291 139.563 23.25C139.5 23.25 139.469 23.323 139.469 23.4688C139.469 23.677 139.49 23.9062 139.532 24.1562C139.594 24.4062 139.625 24.6562 139.625 24.9062C139.625 25.0938 139.605 25.3125 139.563 25.5625C139.521 25.8125 139.417 26.0105 139.25 26.1562C139.459 26.3438 139.563 26.5938 139.563 26.9062C139.563 27.1145 139.521 27.3333 139.438 27.5625C139.355 27.7916 139.25 27.9895 139.125 28.1562C139.084 29.0312 139 29.9166 138.875 30.8125C138.75 31.7083 138.688 32.5938 138.688 33.4688C138.688 33.9062 138.709 34.3333 138.75 34.75C138.813 35.1666 138.907 35.5833 139.032 36C139.261 36.2291 139.5 36.4062 139.75 36.5312C140.021 36.6562 140.303 36.7812 140.594 36.9062V37C140.594 37.0625 140.553 37.125 140.469 37.1875C140.386 37.25 140.344 37.3333 140.344 37.4375C140.344 37.5208 140.386 37.5625 140.469 37.5625C141.344 37.3125 142.167 37.0105 142.938 36.6562C143.709 36.302 144.428 35.823 145.094 35.2188C145.157 35.1562 145.219 35.125 145.282 35.125C145.323 35.125 145.375 35.1354 145.438 35.1562C145.521 35.1771 145.594 35.1979 145.657 35.2188L145.625 35.0938C145.625 34.9688 145.657 34.8541 145.719 34.75C145.803 34.6458 145.896 34.5521 146 34.4688L146.313 34.1875C146.417 34.0833 146.5 33.9791 146.563 33.875C146.73 33.8333 146.844 33.75 146.907 33.625C146.99 33.5 147.125 33.4375 147.313 33.4375C147.355 33.2083 147.469 33.0416 147.657 32.9375C147.844 32.8125 147.959 32.6355 148 32.4062C148.417 32.177 148.782 31.8958 149.094 31.5625C149.428 31.2291 149.73 30.875 150 30.5C150.292 30.125 150.563 29.7395 150.813 29.3438C151.063 28.927 151.323 28.5312 151.594 28.1562V28.0312C151.594 27.698 151.646 27.427 151.75 27.2188C151.875 27.0105 151.969 26.7605 152.032 26.4688Z" fill="white"/>
</g>
</g>
<defs>
<filter id="filter0_d" x="0" y="0.5" width="182.5" height="56" filterUnits="userSpaceOnUse" color-interpolation-filters="sRGB">
<feFlood flood-opacity="0" result="BackgroundImageFix"/>
<feColorMatrix in="SourceAlpha" type="matrix" values="0 0 0 0 0 0 0 0 0 0 0 0 0 0 0 0 0 0 127 0"/>
<feOffset dy="4"/>
<feGaussianBlur stdDeviation="2"/>
<feColorMatrix type="matrix" values="0 0 0 0 0 0 0 0 0 0 0 0 0 0 0 0 0 0 0.35 0"/>
<feBlend mode="normal" in2="BackgroundImageFix" result="effect1_dropShadow"/>
<feBlend mode="normal" in="SourceGraphic" in2="effect1_dropShadow" result="shape"/>
</filter>
<filter id="filter1_d" x="158.5" y="0.5" width="24" height="56" filterUnits="userSpaceOnUse" color-interpolation-filters="sRGB">
<feFlood flood-opacity="0" result="BackgroundImageFix"/>
<feColorMatrix in="SourceAlpha" type="matrix" values="0 0 0 0 0 0 0 0 0 0 0 0 0 0 0 0 0 0 127 0"/>
<feOffset dy="4"/>
<feGaussianBlur stdDeviation="2"/>
<feColorMatrix type="matrix" values="0 0 0 0 0 0 0 0 0 0 0 0 0 0 0 0 0 0 0.35 0"/>
<feBlend mode="normal" in2="BackgroundImageFix" result="effect1_dropShadow"/>
<feBlend mode="normal" in="SourceGraphic" in2="effect1_dropShadow" result="shape"/>
</filter>
<filter id="filter2_d" x="0" y="6" width="158.938" height="48.8125" filterUnits="userSpaceOnUse" color-interpolation-filters="sRGB">
<feFlood flood-opacity="0" result="BackgroundImageFix"/>
<feColorMatrix in="SourceAlpha" type="matrix" values="0 0 0 0 0 0 0 0 0 0 0 0 0 0 0 0 0 0 127 0"/>
<feOffset dy="4"/>
<feGaussianBlur stdDeviation="2"/>
<feColorMatrix type="matrix" values="0 0 0 0 0 0 0 0 0 0 0 0 0 0 0 0 0 0 0.35 0"/>
<feBlend mode="normal" in2="BackgroundImageFix" result="effect1_dropShadow"/>
<feBlend mode="normal" in="SourceGraphic" in2="effect1_dropShadow" result="shape"/>
</filter>
</defs>
</svg>
