<svg width="1028" height="764" viewBox="0 0 1028 764" fill="none" xmlns="http://www.w3.org/2000/svg">
<g id="wine_platter">
<rect id="card" width="1028" height="764" fill="#F5F5F5"/>
<path id="base" d="M514.039 724C769.768 724 977.077 696.689 977.077 663C977.077 629.311 769.768 602 514.039 602C258.309 602 51 629.311 51 663C51 696.689 258.309 724 514.039 724Z" fill="#3F3D56"/>
<g id="wine_glass">
<path id="Vector" d="M620.466 381.369C601.154 395.555 585.21 406.194 573.016 413.86H573.006C555.217 412.507 537.354 413.066 519.662 415.53C507.162 407.754 490.299 396.603 469.555 381.369C469.358 381.223 469.161 381.077 468.964 380.919V380.906C449.936 366.319 449.466 335.425 455.655 303.836C471.403 301.886 496.511 302.739 530.247 316.169C570.195 332.073 612.013 323.079 636.246 314.902C640.227 342.773 637.799 368.634 620.466 381.369Z" fill="#6C63FF"/>
<path id="Vector_2" d="M545.01 667.764C508.431 667.764 469.554 661.57 469.554 650.093C469.554 639.19 503.925 633.377 536.262 632.533V445.961C536.262 441.523 534.342 435.835 530.554 429.055C528.807 425.964 526.913 422.979 524.88 420.113C523.075 419.023 521.158 417.85 519.13 416.595C503.532 406.892 486.651 395.383 468.953 382.387C468.74 382.229 468.533 382.074 468.324 381.907L467.87 381.541C451.466 368.537 446.997 342.312 454.587 303.576C463.592 257.542 486.95 209.431 487.185 208.95L487.649 208L488.551 208.401C488.986 208.594 532.822 227.515 601.61 208.35L602.431 208.122L602.836 208.95C602.87 209.02 606.34 216.131 611.035 227.296C620.57 249.948 632.872 283.5 637.327 314.71C642.106 348.179 636.636 370.949 621.068 382.387C604.37 394.651 588.384 405.598 573.554 414.922L573.295 415.079C571.211 416.396 569.236 417.623 567.372 418.758C566.668 419.853 565.982 421.005 565.332 422.186C564.462 423.763 563.628 425.434 562.85 427.155C558.28 437.42 555.891 448.719 555.87 460.178L554.881 632.573C586.678 633.501 620.466 639.336 620.466 650.093C620.466 661.57 581.59 667.764 545.01 667.764ZM470.058 380.278L470.161 380.355C487.809 393.315 504.645 404.793 520.194 414.466C522.289 415.766 524.265 416.973 526.12 418.089L526.319 418.209L526.459 418.407C528.594 421.404 530.581 424.528 532.411 427.766C536.418 434.939 538.449 441.06 538.449 445.961V634.92L537.378 634.945C496.836 635.866 471.742 643.525 471.742 650.093C471.742 657.298 501.832 665.326 545.01 665.326C588.189 665.326 618.279 657.298 618.279 650.093C618.279 643.623 593.61 636.006 553.756 634.98L552.68 634.952L553.683 460.162C553.707 448.328 556.175 436.659 560.897 426.059C561.702 424.277 562.567 422.545 563.468 420.912C564.191 419.598 564.957 418.316 565.745 417.106L565.89 416.883L566.106 416.751C568.103 415.536 570.223 414.219 572.466 412.801L572.729 412.641C587.446 403.379 603.303 392.517 619.865 380.352C634.651 369.488 639.799 347.532 635.166 315.093C630.752 284.164 618.53 250.84 609.055 228.331C605.307 219.418 602.349 213.114 601.314 210.944C537.756 228.424 495.35 213.653 488.662 211.041C485.392 217.923 464.975 261.917 456.724 304.095C449.269 342.14 453.596 367.645 469.584 379.902L470.058 380.278Z" fill="#F2F2F2" stroke="white" stroke-width="6"/>
<path id="Vector_3" d="M505.642 292.404C508.662 292.404 511.11 289.676 511.11 286.311C511.11 282.946 508.662 280.217 505.642 280.217C502.622 280.217 500.174 282.946 500.174 286.311C500.174 289.676 502.622 292.404 505.642 292.404Z" fill="#6C63FF"/>
<path id="Vector_4" d="M490.332 348.465C493.352 348.465 495.8 345.736 495.8 342.371C495.8 339.006 493.352 336.278 490.332 336.278C487.312 336.278 484.865 339.006 484.865 342.371C484.865 345.736 487.312 348.465 490.332 348.465Z" fill="white"/>
<path id="Vector_5" d="M518.765 304.591C520.577 304.591 522.046 302.954 522.046 300.935C522.046 298.916 520.577 297.279 518.765 297.279C516.953 297.279 515.484 298.916 515.484 300.935C515.484 302.954 516.953 304.591 518.765 304.591Z" fill="#6C63FF"/>
<path id="Vector_6" d="M531.888 374.057C533.7 374.057 535.168 372.42 535.168 370.401C535.168 368.382 533.7 366.745 531.888 366.745C530.076 366.745 528.607 368.382 528.607 370.401C528.607 372.42 530.076 374.057 531.888 374.057Z" fill="white"/>
<path id="Vector_7" d="M508.923 377.713C510.735 377.713 512.204 376.076 512.204 374.057C512.204 372.038 510.735 370.401 508.923 370.401C507.111 370.401 505.642 372.038 505.642 374.057C505.642 376.076 507.111 377.713 508.923 377.713Z" fill="white"/>
<path id="Vector_8" d="M575.63 255.843C577.442 255.843 578.911 254.207 578.911 252.187C578.911 250.168 577.442 248.531 575.63 248.531C573.818 248.531 572.349 250.168 572.349 252.187C572.349 254.207 573.818 255.843 575.63 255.843Z" fill="#6C63FF"/>
</g>
<g id="purple_wine_bottle">
<path id="Vector_9" d="M808.329 240.116C802.005 233.798 794.591 228.675 786.444 224.996V68.9011C786.444 67.9949 786.266 67.0975 785.919 66.2602C785.572 65.4229 785.064 64.6621 784.423 64.0213C783.782 63.3805 783.022 62.8721 782.184 62.5253C781.347 62.1785 780.45 62 779.543 62H740.901C739.995 62 739.097 62.1785 738.26 62.5253C737.423 62.8721 736.662 63.3805 736.021 64.0213C735.38 64.6621 734.872 65.4229 734.525 66.2602C734.178 67.0975 734 67.9949 734 68.9011V222.002C720.031 226.635 707.876 235.549 699.26 247.481C690.644 259.412 686.005 273.754 686 288.471V623.316C686 631.454 689.233 639.258 694.987 645.013C700.742 650.767 708.546 654 716.684 654H799.458C807.558 654 815.327 650.782 821.054 645.054C826.782 639.327 830 631.558 830 623.458V292.418C830.012 282.702 828.103 273.08 824.384 264.104C820.665 255.128 815.209 246.976 808.329 240.116Z" fill="#3F3D56"/>
<path id="Vector_10" d="M830 337.556H686V527.778H830V337.556Z" fill="#6C63FF"/>
<path id="Vector_11" d="M789.556 72.6667H786.444V68.9011C786.444 67.9949 786.266 67.0975 785.919 66.2602C785.572 65.4229 785.064 64.6621 784.423 64.0213C783.782 63.3805 783.022 62.8721 782.184 62.5253C781.347 62.1785 780.45 62 779.543 62H740.901C739.995 62 739.098 62.1785 738.26 62.5253C737.423 62.8721 736.662 63.3805 736.021 64.0213C735.381 64.6621 734.872 65.4229 734.525 66.2602C734.179 67.0975 734 67.9949 734 68.9011V72.6667H730.889V88.6667H734V170.444H786.444V88.6667H789.556V72.6667Z" fill="#6C63FF"/>
</g>
<g id="grapes">
<path id="Vector_12" d="M324.5 539L434.5 487L446.5 473L451.5 479L438.5 491L338.5 555L324.5 539Z" fill="#3F3D56"/>
<path id="Vector_13" d="M380.5 636C398.725 636 413.5 621.225 413.5 603C413.5 584.775 398.725 570 380.5 570C362.275 570 347.5 584.775 347.5 603C347.5 621.225 362.275 636 380.5 636Z" fill="#6C63FF"/>
<path id="Vector_14" opacity="0.1" d="M380.5 636C398.725 636 413.5 621.225 413.5 603C413.5 584.775 398.725 570 380.5 570C362.275 570 347.5 584.775 347.5 603C347.5 621.225 362.275 636 380.5 636Z" fill="black"/>
<path id="Vector_15" d="M293.5 658C311.725 658 326.5 643.225 326.5 625C326.5 606.775 311.725 592 293.5 592C275.275 592 260.5 606.775 260.5 625C260.5 643.225 275.275 658 293.5 658Z" fill="#6C63FF"/>
<path id="Vector_16" opacity="0.1" d="M293.5 658C311.725 658 326.5 643.225 326.5 625C326.5 606.775 311.725 592 293.5 592C275.275 592 260.5 606.775 260.5 625C260.5 643.225 275.275 658 293.5 658Z" fill="black"/>
<path id="Vector_17" d="M224.5 633C242.725 633 257.5 618.225 257.5 600C257.5 581.775 242.725 567 224.5 567C206.275 567 191.5 581.775 191.5 600C191.5 618.225 206.275 633 224.5 633Z" fill="#6C63FF"/>
<path id="Vector_18" d="M236 611.5C254.225 611.5 269 596.725 269 578.5C269 560.275 254.225 545.5 236 545.5C217.775 545.5 203 560.275 203 578.5C203 596.725 217.775 611.5 236 611.5Z" fill="#6C63FF"/>
<path id="Vector_19" d="M230 576.5C244.912 576.5 257 564.412 257 549.5C257 534.588 244.912 522.5 230 522.5C215.088 522.5 203 534.588 203 549.5C203 564.412 215.088 576.5 230 576.5Z" fill="#6C63FF"/>
<path id="Vector_20" d="M252 626.5C266.912 626.5 279 614.412 279 599.5C279 584.588 266.912 572.5 252 572.5C237.088 572.5 225 584.588 225 599.5C225 614.412 237.088 626.5 252 626.5Z" fill="#6C63FF"/>
<path id="Vector_21" opacity="0.1" d="M252 626.5C266.912 626.5 279 614.412 279 599.5C279 584.588 266.912 572.5 252 572.5C237.088 572.5 225 584.588 225 599.5C225 614.412 237.088 626.5 252 626.5Z" fill="black"/>
<path id="Vector_22" d="M271 562.5C284.255 562.5 295 551.755 295 538.5C295 525.245 284.255 514.5 271 514.5C257.745 514.5 247 525.245 247 538.5C247 551.755 257.745 562.5 271 562.5Z" fill="#6C63FF"/>
<path id="Vector_23" opacity="0.1" d="M271 562.5C284.255 562.5 295 551.755 295 538.5C295 525.245 284.255 514.5 271 514.5C257.745 514.5 247 525.245 247 538.5C247 551.755 257.745 562.5 271 562.5Z" fill="black"/>
<path id="Vector_24" d="M137 662.5C150.255 662.5 161 651.755 161 638.5C161 625.245 150.255 614.5 137 614.5C123.745 614.5 113 625.245 113 638.5C113 651.755 123.745 662.5 137 662.5Z" fill="#6C63FF"/>
<path id="Vector_25" d="M173 667.5C186.255 667.5 197 656.755 197 643.5C197 630.245 186.255 619.5 173 619.5C159.745 619.5 149 630.245 149 643.5C149 656.755 159.745 667.5 173 667.5Z" fill="#6C63FF"/>
<path id="Vector_26" d="M173 645.5C186.255 645.5 197 634.755 197 621.5C197 608.245 186.255 597.5 173 597.5C159.745 597.5 149 608.245 149 621.5C149 634.755 159.745 645.5 173 645.5Z" fill="#6C63FF"/>
<path id="Vector_27" opacity="0.1" d="M173 645.5C186.255 645.5 197 634.755 197 621.5C197 608.245 186.255 597.5 173 597.5C159.745 597.5 149 608.245 149 621.5C149 634.755 159.745 645.5 173 645.5Z" fill="black"/>
<path id="Vector_28" d="M137 626.5C150.255 626.5 161 615.755 161 602.5C161 589.245 150.255 578.5 137 578.5C123.745 578.5 113 589.245 113 602.5C113 615.755 123.745 626.5 137 626.5Z" fill="#6C63FF"/>
<path id="Vector_29" d="M193 590.5C206.255 590.5 217 579.755 217 566.5C217 553.245 206.255 542.5 193 542.5C179.745 542.5 169 553.245 169 566.5C169 579.755 179.745 590.5 193 590.5Z" fill="#6C63FF"/>
<path id="Vector_30" opacity="0.1" d="M193 590.5C206.255 590.5 217 579.755 217 566.5C217 553.245 206.255 542.5 193 542.5C179.745 542.5 169 553.245 169 566.5C169 579.755 179.745 590.5 193 590.5Z" fill="black"/>
<path id="Vector_31" d="M242.5 595C240.356 595.001 238.217 595.21 236.113 595.623C235.041 591.556 233.034 587.796 230.252 584.642C227.47 581.488 223.989 579.027 220.088 577.456C216.187 575.884 211.972 575.246 207.781 575.591C203.589 575.936 199.536 577.256 195.944 579.444C194.502 574.753 191.655 570.617 187.789 567.593C183.923 564.569 179.222 562.804 174.321 562.534C169.421 562.265 164.555 563.504 160.38 566.086C156.206 568.667 152.923 572.466 150.975 576.971C149.026 581.476 148.506 586.47 149.483 591.28C150.461 596.09 152.89 600.484 156.443 603.871C159.995 607.258 164.501 609.474 169.352 610.221C174.203 610.967 179.167 610.209 183.573 608.047C184.394 611.968 186.081 615.656 188.511 618.841C185.342 623.986 183.991 630.045 184.673 636.049C185.355 642.053 188.032 647.654 192.274 651.957C196.517 656.259 202.08 659.015 208.073 659.782C214.067 660.549 220.144 659.283 225.333 656.187C229.685 658.837 234.59 660.444 239.666 660.881C244.742 661.318 249.85 660.575 254.59 658.708C259.33 656.841 263.574 653.903 266.989 650.122C270.404 646.341 272.897 641.821 274.273 636.916C275.65 632.011 275.871 626.854 274.922 621.848C273.972 616.843 271.876 612.126 268.798 608.066C265.721 604.006 261.745 600.714 257.183 598.447C252.62 596.18 247.595 595 242.5 595Z" fill="#6C63FF"/>
<path id="Vector_32" d="M215.5 582C228.755 582 239.5 571.255 239.5 558C239.5 544.745 228.755 534 215.5 534C202.245 534 191.5 544.745 191.5 558C191.5 571.255 202.245 582 215.5 582Z" fill="#6C63FF"/>
<path id="Vector_33" d="M413.5 525C406.955 524.99 400.556 526.936 395.125 530.588C392.237 525.546 388.069 521.358 383.043 518.445C378.016 515.532 372.309 513.999 366.5 514C365.658 514 364.827 514.042 364.001 514.104C367.261 510.489 369.68 506.198 371.087 501.538C372.493 496.878 372.852 491.964 372.136 487.149C371.42 482.334 369.648 477.737 366.947 473.688C364.246 469.639 360.682 466.237 356.511 463.727C352.341 461.216 347.667 459.66 342.824 459.169C337.981 458.677 333.089 459.263 328.499 460.885C323.91 462.506 319.736 465.123 316.276 468.547C312.817 471.972 310.157 476.119 308.489 480.692C305.156 474.053 299.68 468.733 292.947 465.593C286.214 462.453 278.619 461.676 271.39 463.389C264.161 465.102 257.722 469.204 253.114 475.032C248.506 480.859 246 488.071 246 495.5C246 496.427 246.048 497.342 246.123 498.249C242.254 497.722 238.317 498.041 234.583 499.183C230.849 500.325 227.407 502.263 224.495 504.864C221.583 507.465 219.269 510.666 217.714 514.248C216.159 517.829 215.399 521.706 215.487 525.609C215.575 529.513 216.509 533.351 218.224 536.859C219.939 540.367 222.394 543.461 225.42 545.928C228.447 548.395 231.973 550.176 235.754 551.149C239.536 552.122 243.483 552.262 247.324 551.562C243.973 554.602 241.282 558.3 239.42 562.424C237.558 566.548 236.565 571.012 236.501 575.537C236.437 580.061 237.305 584.551 239.05 588.726C240.795 592.901 243.38 596.673 246.644 599.807C249.909 602.941 253.783 605.37 258.026 606.943C262.269 608.515 266.791 609.199 271.309 608.95C275.827 608.702 280.246 607.526 284.291 605.497C288.336 603.468 291.921 600.629 294.822 597.156C296.971 602.571 300.514 607.321 305.093 610.925C309.671 614.528 315.121 616.856 320.889 617.673C318.323 624.043 317.808 631.056 319.416 637.734C321.025 644.411 324.677 650.42 329.864 654.923C335.05 659.427 341.512 662.199 348.349 662.855C355.187 663.51 362.058 662.016 368.006 658.581C373.953 655.145 378.681 649.939 381.529 643.689C384.377 637.439 385.204 630.456 383.895 623.714C382.586 616.971 379.205 610.805 374.225 606.075C369.244 601.345 362.912 598.287 356.111 597.327C358.47 591.475 359.099 585.067 357.922 578.867C362.472 580.091 367.232 580.326 371.881 579.558C376.53 578.79 380.961 577.035 384.875 574.412C387.759 579.441 391.916 583.621 396.928 586.533C401.941 589.444 407.632 590.984 413.429 590.996C419.225 591.009 424.923 589.495 429.948 586.606C434.974 583.717 439.149 579.555 442.055 574.539C444.961 569.523 446.494 563.831 446.5 558.034C446.506 552.237 444.985 546.541 442.091 541.519C439.196 536.497 435.029 532.326 430.01 529.426C424.991 526.526 419.297 525 413.5 525ZM261.752 543.924C266.217 539.392 268.931 533.424 269.412 527.08C272.521 528.023 275.752 528.501 279 528.5C279.461 528.5 279.918 528.484 280.375 528.465C279.094 533.908 279.221 539.587 280.744 544.968C274.652 542.766 268.048 542.403 261.752 543.924Z" fill="#6C63FF"/>
</g>
</g>
</svg>
